<?xml version="1.0" standalone="no"?>
<!DOCTYPE svg PUBLIC "-//W3C//DTD SVG 1.1//EN" "http://www.w3.org/Graphics/SVG/1.1/DTD/svg11.dtd" >
<svg xmlns="http://www.w3.org/2000/svg" xmlns:xlink="http://www.w3.org/1999/xlink" version="1.1">
<metadata>
Created by FontForge 20161013 at Fri Jan  1 02:30:17 1904
 By ,,,
Converted by ALLTYPE
</metadata>
<defs>
<font id="Garamond-Normal" horiz-adv-x="278" >
  <font-face 
    font-family="Garamond-Normal"
    font-weight="5"
    font-style="italic"
    font-stretch="normal"
    units-per-em="1000"
    panose-1="0 0 0 0 0 0 0 0 0 0"
    ascent="800"
    descent="-200"
    x-height="418"
    cap-height="667"
    bbox="-86 -226 1090 867"
    underline-thickness="50"
    underline-position="-155"
    slope="17560"
    unicode-range="U+0020-F002"
  />
<missing-glyph 
 />
    <glyph glyph-name=".notdef" 
 />
    <glyph glyph-name="glyph1" horiz-adv-x="0" 
 />
    <glyph glyph-name="glyph2" 
 />
    <glyph glyph-name="space" unicode=" " 
 />
    <glyph glyph-name="space" unicode="&#xa0;" 
 />
    <glyph glyph-name="exclam" unicode="!" horiz-adv-x="232" 
d="M172 46q0 -24 -16.5 -40t-39.5 -16t-39.5 16t-16.5 39t16.5 39.5t39.5 16.5t39.5 -16.5t16.5 -39.5v1zM129 193h-27l-17 171q-3 30 -5.5 61.5t-4.5 62.5q-3 31 -4 62.5t-1 62.5v4.5v4.5q2 20 12.5 36.5t33.5 16.5t33 -16.5t12 -36.5v-4.5v-4.5q0 -31 -1 -62.5t-3 -62.5
t-5 -62.5t-6 -62.5l-17 -170v0z" />
    <glyph glyph-name="quotedbl" unicode="&#x22;" horiz-adv-x="333" 
d="M109 399h-35l-21 268h78l-22 -268v0zM260 399h-35l-21 268h77l-21 -268v0z" />
    <glyph glyph-name="numbersign" unicode="#" horiz-adv-x="566" 
d="M371 250l-36 -250h-37l34 250h-112l-35 -250h-39l34 250h-140v38h145l15 106h-136v39h141l33 234h40l-32 -234h111l34 234h37l-32 -234h130v-39h-135l-15 -106h128v-38h-133v0zM352 394h-111l-15 -106h111l15 106v0z" />
    <glyph glyph-name="dollar" unicode="$" horiz-adv-x="467" 
d="M206 735h32v-59q1 -1 2 -1t2 1h2h2q11 0 28.5 -2.5t36.5 -6.5q29 -8 53 -21t24 -32q0 -10 -8.5 -19t-18.5 -13q-3 -1 -6.5 -2t-6.5 -1q-6 0 -15 9.5t-23 21.5q-13 11 -31 20.5t-41 9.5v-250q5 -4 10 -7t10 -7q55 -34 100.5 -79.5t45.5 -116.5q0 -76 -47.5 -126
t-118.5 -63v-65h-32v64q-36 1 -70 6.5t-66 24.5q-3 2 -6.5 4.5t-7.5 4.5q-10 8 -18.5 17.5t-8.5 21.5q0 10 8 17.5t17 11.5q4 2 7.5 3t6.5 1l2 1q8 -1 18.5 -13t25.5 -26q16 -15 38.5 -27t53.5 -12v277q-58 34 -102.5 76.5t-48.5 115.5q0 68 41.5 118.5t109.5 60.5v62v0z
M238 31q38 11 65 43.5t27 73.5q0 46 -28.5 78t-63.5 54v-249v0zM206 636q-37 -11 -59 -41.5t-22 -69.5t24.5 -65t53.5 -47q1 0 1.5 -0.5l1.5 -1.5v225v0z" />
    <glyph glyph-name="percent" unicode="%" horiz-adv-x="791" 
d="M757 205q0 -17 -1.5 -34t-4.5 -34q-10 -55 -40.5 -100.5t-92.5 -45.5q-61 0 -92 45.5t-41 100.5q-3 17 -4.5 34t-1.5 33t1.5 33t4.5 35q11 54 41.5 99.5t91.5 45.5t92 -45.5t41 -99.5q3 -18 4.5 -35t1.5 -33v1zM687 206q0 12 -1 35.5t-4 49.5q-6 37 -20.5 67.5
t-43.5 30.5t-43.5 -30.5t-19.5 -67.5q-4 -26 -4.5 -49.5t-0.5 -36.5t0.5 -36.5t4.5 -49.5q5 -37 19.5 -67.5t43.5 -30.5t43.5 30.5t20.5 67.5q3 26 4 49.5t1 36.5v1zM496 634h41l-242 -634h-42l243 634v0zM311 429q0 -17 -1.5 -34.5t-4.5 -35.5q-11 -54 -41.5 -99.5
t-91.5 -45.5q-60 0 -91 45.5t-41 99.5q-4 18 -5.5 35.5t-1.5 33.5t1.5 33.5t5.5 35.5q10 54 41 99.5t91 45.5q61 0 91.5 -45.5t41.5 -99.5q3 -18 4.5 -35.5t1.5 -33.5v1zM241 430q0 12 -1 35.5t-4 49.5q-6 37 -20.5 67.5t-43.5 30.5t-43.5 -30.5t-19.5 -67.5
q-4 -26 -4.5 -49.5t-0.5 -36.5t0.5 -36.5t4.5 -49.5q5 -37 19.5 -67.5t43.5 -30.5t43.5 30.5t20.5 67.5q3 26 4 49.5t1 36.5v1z" />
    <glyph glyph-name="ampersand" unicode="&#x26;" horiz-adv-x="668" 
d="M426 342v30q27 -4 53.5 -5t52.5 -1t50.5 1.5t49.5 3.5v-29q-45 -4 -74.5 -28t-54.5 -57q-4 -4 -7 -8l-6 -8q-8 -10 -16 -20.5t-16 -20.5q-8 -11 -16 -21t-16 -21q9 -9 19 -21.5t21 -25.5q20 -23 41.5 -41.5t44.5 -18.5q16 0 30.5 7.5t27.5 16.5q3 2 6.5 4.5t6.5 4.5
l18 -19q-3 -5 -6 -8.5t-7 -7.5q-20 -23 -46 -42t-57 -19q-36 0 -64.5 23.5t-51.5 51.5q-9 11 -17 21.5t-16 19.5q-3 -4 -7 -8.5t-7 -8.5q-33 -37 -74 -68t-93 -31q-68 0 -115 45.5t-47 114.5q0 59 38.5 98.5t85.5 67.5q4 2 8.5 5t8.5 5q-22 23 -41 51.5t-19 61.5
q0 50 39.5 81t86.5 31h1.5h1.5q41 -1 75.5 -29t34.5 -73q0 -40 -27.5 -69t-60.5 -48l16.5 -16.5t17.5 -16.5l4 -4l4 -4q26 -24 51 -49.5t45 -55.5q7 9 16 19.5t18 22.5q8 10 16 20.5t15 21.5q7 12 11.5 23t5.5 22q0 14 -11 20t-24 7q-7 1 -13 1h-11v1zM198 300
q-3 -3 -5.5 -4.5t-4.5 -3.5q-31 -20 -56.5 -49t-25.5 -69q0 -48 31 -82t80 -34q41 0 76.5 22t61.5 50q-37 44 -76.5 86.5t-80.5 82.5v1zM241 356q24 16 40.5 38t16.5 53q0 27 -15 49.5t-46 22.5q-25 0 -42 -17t-17 -43q0 -29 16 -52t36 -41l5.5 -5.5l5.5 -5.5v1z" />
    <glyph glyph-name="quotesingle" unicode="'" horiz-adv-x="192" 
d="M114 399h-37l-21 268h80l-22 -268v0z" />
    <glyph glyph-name="parenleft" unicode="(" horiz-adv-x="286" 
d="M253 713l19 -21q-81 -95 -116 -213t-35 -241q0 -21 1 -42t3 -43q8 -98 40 -191t97 -168l-20 -19q-91 92 -146.5 214.5t-55.5 252.5q0 28 3 56t9 57q21 101 74 196t127 161v1z" />
    <glyph glyph-name="parenright" unicode=")" horiz-adv-x="286" 
d="M33 -225l-20 21q82 94 116.5 211.5t34.5 240.5q0 15 -0.5 30.5t-1.5 30.5q-6 104 -38 204t-100 180l20 20q91 -93 146 -215.5t55 -253.5q0 -21 -1.5 -42.5t-5.5 -42.5q-17 -109 -71 -211t-134 -173v0z" />
    <glyph glyph-name="asterisk" unicode="*" horiz-adv-x="417" 
d="M201 516l10 5q6 -7 13 -15.5t14 -18.5q5 -6 10 -13.5t10 -14.5q8 -13 13.5 -26t5.5 -23q0 -13 -10.5 -21.5t-23.5 -8.5q-14 0 -21 9.5t-10 21.5q0 3 -1 5.5t-1 5.5q-4 23 -6 46.5t-3 46.5v1zM169 531l7 -9q-5 -8 -13 -20.5t-18 -25.5q-7 -10 -15.5 -19.5t-16.5 -16.5
t-16 -11.5t-15 -4.5q-13 0 -22 9.5t-9 21.5q0 18 19.5 31.5t43.5 23.5q16 7 31 12l24 8v1zM225 540v11q6 2 14 5l16 6q6 2 13 4.5t14 4.5q15 5 29.5 8t25.5 3q14 0 23.5 -9.5t9.5 -23.5q0 -15 -11.5 -23.5t-25.5 -8.5q-10 0 -24.5 2.5t-29.5 5.5q-6 1 -12 2.5t-12 3.5l-16 4
t-14 4v1zM176 567l-7 -10q-9 1 -24.5 5.5t-32.5 10.5q-25 9 -45.5 21.5t-20.5 28.5q0 12 9 22t21 10q8 0 16 -4t16 -11q9 -7 17.5 -16t16.5 -18q10 -12 18.5 -22.5t15.5 -17.5v1zM209 572l-13 2v74v10t1 12q1 16 8 29t26 13q13 0 22.5 -8t9.5 -22q0 -11 -4.5 -24t-12.5 -27
q-3 -6 -7 -13t-8 -13q-6 -10 -11.5 -18.5t-10.5 -15.5v1z" />
    <glyph glyph-name="plus" unicode="+" horiz-adv-x="500" 
d="M22 363h205v193h44v-193h206v-43h-206v-193h-44v193h-205v43v0z" />
    <glyph glyph-name="comma" unicode="," horiz-adv-x="218" 
d="M26 -142l3 29q35 1 64.5 19t29.5 58q0 16 -10 21t-23 9q-2 0 -4 0.5t-4 1.5q-15 4 -28 13.5t-13 37.5q0 24 18 39t41 15q33 0 51 -25t23 -54q1 -7 1.5 -13.5t0.5 -11.5q0 -68 -42.5 -103.5t-107.5 -35.5v0z" />
    <glyph glyph-name="hyphen" unicode="-" horiz-adv-x="215" 
d="M0 252h215v-65h-215v65v0z" />
    <glyph glyph-name="period" unicode="." horiz-adv-x="218" 
d="M165 46q0 -24 -16.5 -40t-39.5 -16t-39.5 16t-16.5 39t16.5 39.5t39.5 16.5t39.5 -16.5t16.5 -39.5v1z" />
    <glyph glyph-name="slash" unicode="/" horiz-adv-x="416" 
d="M356 713l41 -19l-410 -919l-42 19l411 919v0z" />
    <glyph glyph-name="zero" unicode="0" horiz-adv-x="467" 
d="M433 311q0 -26 -2.5 -55t-8.5 -58q-16 -78 -60 -142t-129 -64q-88 0 -131 66.5t-58 146.5q-5 30 -7.5 60.5t-2.5 56.5q0 25 2.5 54t7.5 58q16 79 59.5 144.5t130.5 65.5t130 -66.5t58 -146.5q6 -32 8.5 -63t2.5 -58v1zM346 305v8q0 23 -1 59t-6 75q-8 62 -31 113.5
t-73 51.5q-47 0 -71 -47.5t-34 -104.5q-7 -39 -9 -74.5t-2 -56.5q0 -22 1 -61t7 -81q9 -61 32 -112t73 -51t73.5 47.5t32.5 104.5q5 37 6.5 72t1.5 56v1z" />
    <glyph glyph-name="one" unicode="1" horiz-adv-x="467" 
d="M267 658l20 -13q-4 -55 -4.5 -109t-0.5 -108v-265v-27q0 -60 12 -81.5t75 -23.5v-31q-31 1 -63.5 2.5t-64.5 1.5q-16 0 -32 -0.5t-32 -0.5l-32 -2t-32 -1v32q3 -1 6 -0.5t5 0.5q55 7 69 23.5t14 77.5v30v412q-8 -5 -16.5 -8.5t-17.5 -7.5q-12 -6 -24.5 -11.5t-25.5 -10.5
l-16 31q41 19 81.5 41.5t78.5 47.5v1z" />
    <glyph glyph-name="two" unicode="2" horiz-adv-x="467" 
d="M80 490l-27 15q26 53 76 96t113 43q68 0 110 -45t42 -113q0 -12 -2 -24.5t-5 -24.5q-13 -48 -45 -94.5t-68 -87.5q-17 -19 -33.5 -37t-30.5 -33l-110 -118q3 -1 6 -1h7q3 -1 6.5 -1h6.5l101 1q5 -1 10.5 -1h11.5q5 -1 10.5 -1h11.5q41 0 78 12.5t56 52.5l27 -7l-56 -122
h-42h-41q-21 1 -42 1h-42q-32 0 -63.5 -0.5t-62.5 -0.5h-31.5h-31.5l-12 24q25 25 57 59.5t65 73.5q30 34 58.5 72t52.5 76q28 46 46 91t18 85q0 43 -29.5 72t-72.5 29q-42 0 -72 -28t-49 -62l-1.5 -1.5t-0.5 -1.5v1z" />
    <glyph glyph-name="three" unicode="3" horiz-adv-x="467" 
d="M97 523l-26 20q29 42 68.5 71.5t94.5 29.5q56 0 94.5 -40t38.5 -96q0 -58 -36 -91.5t-84 -55.5q70 -4 111.5 -47t41.5 -114q0 -91 -65.5 -149.5t-153.5 -58.5q-11 0 -26 1.5t-31 5.5q-29 5 -53 20.5t-24 43.5q0 14 11.5 24.5t24.5 11.5h1.5h1.5q10 0 18.5 -5t16.5 -13
q4 -4 8 -8.5t9 -8.5q13 -14 29 -25t40 -11q46 0 71 34.5t34 75.5q2 13 3.5 25.5t1.5 24.5q0 71 -42 108t-110 37l-21 1v30q58 5 103.5 35.5t45.5 95.5q0 40 -25.5 68.5t-66.5 28.5q-36 0 -60.5 -21t-43.5 -49v1z" />
    <glyph glyph-name="four" unicode="4" horiz-adv-x="467" 
d="M276 632l79 30v-415h70v-58h-70v-189h-73v189h-259l6 62l247 381v0zM282 247v330l-212 -330h212v0z" />
    <glyph glyph-name="five" unicode="5" horiz-adv-x="467" 
d="M139 637h249l-17 -70h-206l-26 -138l24 2t24 1q89 0 149.5 -49t60.5 -144q0 -101 -64.5 -174t-169.5 -73q-10 0 -22.5 1t-25.5 3q-26 4 -47.5 17t-22.5 39q0 17 12 28.5t28 11.5q12 0 22 -5.5t20 -13.5q3 -3 6 -5.5t7 -5.5q13 -11 28 -20.5t36 -9.5q48 0 79 37.5t42 82.5
q2 11 3.5 22t1.5 21q0 77 -42.5 120t-119.5 43q-17 0 -34.5 -3t-34.5 -7l-8 9l48 280v0z" />
    <glyph glyph-name="six" unicode="6" horiz-adv-x="467" 
d="M367 666l13 -23q-105 -59 -162.5 -141t-80.5 -199q29 26 60 46t71 20q69 0 109 -52.5t45 -115.5v-6.5v-6.5q0 -82 -54 -139t-137 -57q-92 0 -134.5 66.5t-47.5 146.5v9.5v9.5q0 143 96 264t222 177v1zM132 262q-1 -11 -2 -20.5t-1 -19.5q0 -15 1 -31.5t4 -32.5
q7 -47 30.5 -86t74.5 -42q53 0 80 39.5t27 88.5q0 9 -1 18.5t-2 19.5q-9 45 -36.5 82t-77.5 37q-29 0 -54 -16t-43 -38v1z" />
    <glyph glyph-name="seven" unicode="7" horiz-adv-x="467" 
d="M70 637h362l7 -13l-254 -624h-73l16 34t17 34q5 12 11 23.5t11 22.5l203 457h-126l-55 -1q-44 -2 -73 -13.5t-46 -55.5l-29 1l29 135v0z" />
    <glyph glyph-name="eight" unicode="8" horiz-adv-x="467" 
d="M284 344q50 -32 91 -77t41 -108q0 -76 -55 -121.5t-128 -45.5q-70 0 -126 41.5t-56 117.5q0 62 41 103t92 68l-6 4l-6 4q-42 29 -72.5 63.5t-30.5 92.5q0 69 48 113.5t116 44.5q66 0 114 -36t48 -107q0 -56 -31.5 -94.5t-79.5 -63.5v1zM212 302q-38 -23 -61.5 -59.5
t-23.5 -81.5v-4v-4q3 -49 34.5 -89t82.5 -40q44 0 73 29t29 72q0 55 -34.5 92.5t-76.5 67.5q-6 4 -11.5 8t-11.5 8v1zM258 364q29 19 49 49.5t20 67.5q0 49 -26 87.5t-80 38.5q-37 0 -66 -24.5t-29 -63.5q0 -45 30 -76.5t65 -55.5q10 -6 19 -12l18 -12v1z" />
    <glyph glyph-name="nine" unicode="9" horiz-adv-x="467" 
d="M104 -17l-16 30q98 55 159 130.5t82 187.5q-25 -26 -56.5 -46t-69.5 -20q-69 0 -113.5 53.5t-44.5 119.5q0 86 51 146t140 60t133.5 -66.5t48.5 -146.5v-7.5v-6.5q0 -145 -95.5 -259t-218.5 -175v0zM334 374q1 4 1.5 9.5t0.5 11.5q1 5 1 10.5v10.5q0 14 -1 30.5t-4 32.5
q-8 47 -33 86t-78 39q-48 0 -71.5 -35t-27.5 -77q-1 -4 -1 -8.5v-8.5q0 -10 1 -21.5t4 -22.5q9 -42 36 -77t73 -35q30 0 55 16t44 38v1z" />
    <glyph glyph-name="colon" unicode=":" horiz-adv-x="218" 
d="M165 46q0 -24 -16.5 -40t-39.5 -16t-39.5 16t-16.5 39t16.5 39.5t39.5 16.5t39.5 -16.5t16.5 -39.5v1zM165 362q0 -23 -16.5 -39.5t-39.5 -16.5t-39.5 16.5t-16.5 38.5q0 23 16.5 39.5t39.5 16.5t39.5 -16.5t16.5 -39.5v1z" />
    <glyph glyph-name="semicolon" unicode=";" horiz-adv-x="218" 
d="M26 -142l3 29q35 1 64.5 19t29.5 58q0 16 -10 21t-23 9q-2 0 -4 0.5t-4 1.5q-15 4 -28 13.5t-13 37.5q0 24 18 39t41 15q33 0 51 -25t23 -54q1 -7 1.5 -13.5t0.5 -11.5q0 -68 -42.5 -103.5t-107.5 -35.5v0zM156 363q0 -24 -16.5 -40.5t-39.5 -16.5q-22 0 -38.5 16.5
t-16.5 39.5t16.5 39.5t38.5 16.5q23 0 39.5 -16.5t16.5 -39.5v1z" />
    <glyph glyph-name="less" unicode="&#x3c;" horiz-adv-x="500" 
d="M457 613v-38l-311 -202l311 -209v-100l-414 277v6l414 266v0z" />
    <glyph glyph-name="equal" unicode="=" horiz-adv-x="500" 
d="M22 292h455v-42h-455v42v0zM22 433h455v-42h-455v42v0z" />
    <glyph glyph-name="greater" unicode="&#x3e;" horiz-adv-x="500" 
d="M43 64v38l312 203l-312 208v100l414 -276v-7l-414 -266v0z" />
    <glyph glyph-name="question" unicode="?" horiz-adv-x="314" 
d="M174 46q0 -24 -16.5 -40t-39.5 -16q-22 0 -39 16t-17 39t17 39.5t39 16.5q23 0 39.5 -16.5t16.5 -39.5v1zM129 204h-33v171q1 -1 2.5 -0.5t3.5 0.5q48 6 88 30t40 80v6.5t-1 6.5q-4 40 -31 73t-70 33q-8 0 -15.5 -1t-14.5 -3q-5 -2 -10 -3t-10 -3l-1.5 -0.5t-2.5 -0.5
h-0.5h-1.5q-7 0 -14 9t-11 20q-3 7 -4.5 13.5t-1.5 10.5v2q1 10 10 15.5t20 7.5q5 0 10 0.5t9 0.5h1.5h1.5q55 -2 105 -51t74 -108q8 -19 12.5 -38.5t4.5 -37.5v-6.5t-1 -6.5q-2 -22 -13 -43.5t-29 -35.5q-4 -4 -8.5 -7t-8.5 -6q-15 -9 -29.5 -13t-26.5 -7
q-19 -5 -31.5 -13.5t-12.5 -34.5v-60v0z" />
    <glyph glyph-name="at" unicode="@" horiz-adv-x="734" 
d="M639 185h40q-33 -87 -113 -136.5t-169 -55.5q-6 -1 -12.5 -1h-12.5q-136 0 -234 101t-98 235q0 140 96.5 244t239.5 104q119 0 215 -77t96 -204q0 -12 -1 -24t-3 -23q-15 -81 -72.5 -148.5t-145.5 -67.5h-2h-2q-24 1 -45.5 13.5t-27.5 38.5q-22 -22 -50.5 -37t-61.5 -15
q-52 0 -81 39.5t-29 88.5q0 18 2.5 37.5t7.5 39.5q20 74 72 135.5t131 61.5h4h4q27 -2 51.5 -15t33.5 -40l14 43h77l-91 -265q-1 -5 -3.5 -12t-5.5 -14l-2 -8l-2 -8q-3 -9 -4.5 -17t-1.5 -15q0 -10 6.5 -15.5t16.5 -5.5q62 0 103.5 49t57.5 108q6 19 8.5 37.5t2.5 35.5
q0 110 -85 177t-189 67q-124 0 -209 -92t-85 -214q0 -119 86 -209.5t207 -90.5q86 0 154.5 40.5t111.5 113.5v1zM397 267l54 158q2 4 2.5 9.5t0.5 10.5v2.5v2.5q-2 22 -16 40.5t-38 18.5q-46 0 -81 -51t-56 -112q-13 -36 -19.5 -71t-6.5 -58q0 -24 14.5 -41.5t39.5 -17.5
q33 0 56.5 24.5t37.5 53.5q3 8 6.5 15.5t5.5 14.5v1z" />
    <glyph glyph-name="A" unicode="A" horiz-adv-x="640" 
d="M300 660l58 26q11 -37 21.5 -73t22.5 -71l107 -320q4 -13 7.5 -25t7.5 -23q8 -24 17 -47.5t19 -46.5q12 -26 31.5 -34t45.5 -12q0 -1 1 -1h2v-33q-29 1 -58.5 2.5t-58.5 1.5q-21 0 -42.5 -1t-42.5 -2q-8 -1 -15 -1h-14v34q2 -1 4.5 -1t4.5 1q4 0 8 0.5t8 0.5q14 2 25.5 8
t11.5 21q0 4 -0.5 8t-1.5 9q-1 7 -3.5 15t-4.5 15q-2 5 -3.5 9.5t-2.5 8.5l-44 138h-209l-36 -101q-2 -7 -4 -12.5t-4 -11.5q-7 -19 -13 -38.5t-6 -38.5q0 -15 11.5 -21.5t25.5 -8.5q6 -1 11 -1.5t10 -0.5h0.5h1.5h1.5h0.5v-33q-26 1 -52.5 2.5t-52.5 1.5q-25 0 -49.5 -1.5
t-48.5 -2.5l-1 34q3 -1 5.5 -0.5t5.5 0.5q9 1 17 2.5t16 4.5t16 13t17 24q9 16 18 35.5t17 39.5q13 32 23.5 60.5t15.5 42.5l75 200q9 25 19 50.5t20 50.5q9 26 19 51.5t19 50.5v1zM396 314l-82 256l-94 -256h176v0z" />
    <glyph glyph-name="B" unicode="B" horiz-adv-x="587" 
d="M344 365q80 -6 139.5 -44t59.5 -129q0 -106 -73.5 -149.5t-167.5 -43.5q-18 0 -36 0.5t-35 1.5l-36 2t-36 1q-14 0 -28.5 -0.5t-28.5 -1.5h-5t-4 -1q-12 0 -24.5 -0.5t-24.5 -0.5v34q38 -1 57.5 10t20.5 53l1 66v342l-1 66q-1 44 -22.5 53.5t-59.5 9.5v35q6 -1 12.5 -1.5
t13.5 -1.5q6 0 12.5 -0.5t13.5 -0.5q12 -1 25 -1.5t26 -0.5q18 0 36.5 0.5t37.5 1.5q19 0 37.5 0.5t36.5 0.5l52 1q62 -1 106.5 -37.5t44.5 -102.5q0 -70 -44 -108.5t-106 -54.5v1zM206 334v-161v-9.5v-9.5q-1 -5 -1 -11v-12q0 -55 16 -75.5t73 -20.5q74 0 119 40t45 116
q0 90 -59 115.5t-130 27.5h-12.5h-12.5h-10h-9q-5 -1 -9.5 -1h-9.5v1zM206 375q5 -1 9.5 -1h8.5q71 2 130 26.5t59 113.5q0 61 -44 87t-96 27h-3.5h-2.5h-15t-15 -1q-8 0 -15.5 -0.5t-15.5 -0.5v-251v0z" />
    <glyph glyph-name="C" unicode="C" horiz-adv-x="679" 
d="M645 488l-33 -6q-18 79 -70 115.5t-133 36.5q-126 0 -199.5 -87.5t-73.5 -208.5q0 -129 73 -217.5t208 -88.5q87 0 136 42.5t68 124.5l35 -2l-23 -154q-55 -23 -112.5 -38t-117.5 -15q-156 0 -259.5 89.5t-103.5 251.5q0 154 105 249.5t256 95.5q55 0 110 -13t109 -29
q2 -1 4.5 -1.5t4.5 -1.5l16 -143v0z" />
    <glyph glyph-name="D" unicode="D" horiz-adv-x="743" 
d="M44 632v34q6 -1 12 -1.5t11 -1.5l36 -2t36 -1q35 0 70.5 1t70.5 2q35 0 70.5 1t70.5 1q139 0 210.5 -98.5t71.5 -226.5q0 -70 -24 -136t-75 -116q-55 -55 -118.5 -72.5t-138.5 -17.5q-22 0 -44.5 1t-44.5 2t-44.5 2t-44.5 1q-32 0 -64.5 -1.5t-64.5 -2.5v34
q38 -1 59.5 9.5t22.5 53.5l1 66v339l-1 66q-1 42 -21 52.5t-57 10.5v1zM208 619v-23v-21q-1 -11 -1 -22v-22v-322v-50q0 -17 0.5 -32.5t2.5 -31.5q2 -12 7 -22.5t15 -17.5q9 -5 22 -8t27 -4q12 -1 23.5 -1.5t20.5 -0.5h6h6q49 1 97 12t86 47q44 41 65.5 97.5t24.5 115.5
q1 7 1 13v12q0 139 -80 211.5t-216 72.5q-13 0 -26.5 -0.5t-26.5 -1.5h-5.5h-5.5q-11 -1 -21.5 -1.5t-21.5 -0.5v1z" />
    <glyph glyph-name="E" unicode="E" horiz-adv-x="574" 
d="M501 530l-35 -8l-0.5 1t-0.5 2q-1 5 -2 10.5t-2 10.5q-3 15 -9 28.5t-17 22.5q-15 13 -36.5 18t-43.5 7q-11 1 -22 1h-21h-17.5h-16.5q-9 -1 -17.5 -1h-17.5q-21 0 -28 -4t-7 -25v-230h105q53 -1 78 11.5t25 68.5l35 1q-1 -26 -1.5 -51t-0.5 -51q0 -12 0.5 -24.5
t0.5 -24.5q1 -12 2 -24.5t2 -24.5l-38 1q-2 58 -26 67.5t-80 9.5l-102 1v-137v-38v-11v-10q1 -19 2.5 -36.5t6.5 -25.5q6 -10 16.5 -14t21.5 -6q18 -3 36 -3.5t36 -0.5l29 1q75 -1 110.5 16.5t56.5 93.5l34 -8l-34 -144q-30 0 -60.5 1t-60.5 2q-30 0 -60.5 0.5t-60.5 0.5
h-114q-31 -2 -61.5 -2.5t-62.5 -1.5v35q38 -1 58 9.5t21 52.5l1 67v339l-1 65q-1 43 -21 53t-58 10v36q28 -3 56 -4t56 -1q27 -1 55 -1h56t55.5 0.5t55.5 0.5q27 1 54.5 2t55.5 2l14 -136v0z" />
    <glyph glyph-name="F" unicode="F" horiz-adv-x="504" 
d="M478 523l-34 -3q-5 55 -33.5 79t-83.5 25q-10 0 -20 0.5t-20 0.5q-11 0 -21 0.5t-20 0.5q-25 0 -32.5 -3.5t-7.5 -20.5v-10t1 -9v-10v-10v-218h93q67 -1 83.5 8.5t22.5 42.5l2 14t3 15l33 1q0 -9 -0.5 -17.5t-0.5 -17.5q-1 -17 -1.5 -33.5t-0.5 -33.5q0 -12 0.5 -24.5
t0.5 -24.5q0 -4 0.5 -8t0.5 -8q0 -8 0.5 -16.5t0.5 -16.5l-33 1q0 2 -0.5 5.5t-0.5 6.5q-2 30 -14 47.5t-72 17.5l-117 1v-141l1 -66q1 -45 22.5 -54.5t58.5 -9.5v-34q-15 0 -29.5 1t-29.5 2q-15 0 -29.5 0.5t-29.5 0.5q-16 0 -32 -0.5t-32 -0.5l-32 -2t-32 -1v35
q38 -1 58 9.5t21 52.5l1 67v339l-1 65q-1 45 -23 54t-60 9v36q29 -3 57.5 -4t57.5 -1q28 -1 57 -1h57q24 0 48.5 0.5t48.5 0.5q24 1 48.5 2t48.5 2l16 -143v0z" />
    <glyph glyph-name="G" unicode="G" horiz-adv-x="703" 
d="M635 492l-30 -5q-18 76 -69 111t-129 35q-139 0 -205 -99t-66 -224q0 -117 71 -198.5t192 -81.5q59 0 93.5 17t34.5 79v23q0 56 -11 71t-76 18l-23 2v36q33 -5 65.5 -6.5t64.5 -1.5t63.5 2t62.5 5v-35q-41 -3 -51 -16t-12 -55v-58q0 -22 1.5 -42t7.5 -40
q-55 -19 -112 -30.5t-115 -11.5q-146 0 -249 85.5t-103 239.5q0 170 98.5 266.5t267.5 96.5q54 0 107.5 -11.5t105.5 -26.5l16 -145v0z" />
    <glyph glyph-name="H" unicode="H" horiz-adv-x="779" 
d="M207 368h366v135l-2 65q-1 42 -20.5 52.5t-58.5 10.5v36q15 -2 30.5 -3t30.5 -2t30.5 -1h30.5q31 0 61.5 1t61.5 4v-34h-11q-37 -1 -52.5 -13.5t-16.5 -51.5l-1 -64v-339l1 -66q1 -39 16.5 -51.5t52.5 -12.5l11 1v-35q-30 1 -60 2.5t-61 1.5q-15 0 -30.5 -0.5t-31.5 -1.5
q-8 0 -15.5 -0.5t-15.5 -0.5q-8 -1 -15.5 -1h-15.5v35q39 -1 58.5 10t20.5 52l2 67v161h-366v-161l1 -66q1 -44 22 -54t58 -10v-34q-32 1 -64.5 2.5t-64.5 1.5q-22 0 -44 -1l-44 -2q-8 -1 -15 -1h-15v35q38 -1 59 9t22 53l1 67v339l-1 65q-1 44 -22 53.5t-59 9.5v36
q31 -3 62 -4.5t62 -1.5t61.5 1.5t61.5 3.5v-34h-11q-36 -1 -52 -13.5t-17 -51.5l-1 -64v-135v0z" />
    <glyph glyph-name="I" unicode="I" horiz-adv-x="328" 
d="M42 632v35q15 -2 30.5 -3t31.5 -2t31.5 -1h30.5q31 0 61 1.5t60 3.5v-34h-12q-36 -1 -52 -13.5t-17 -51.5l-1 -64v-339l1 -66q1 -44 22.5 -54t58.5 -10v-34q-15 0 -30.5 1t-30.5 2q-15 0 -30.5 0.5t-30.5 0.5q-31 0 -61.5 -1.5t-61.5 -2.5v35q38 -1 59 9t22 53l1 67v339
l-1 65q-1 43 -22 53t-59 10v1z" />
    <glyph glyph-name="J" unicode="J" horiz-adv-x="310" 
d="M33 667q16 -2 31.5 -3t31.5 -2q15 0 30.5 -0.5t31.5 -0.5q15 0 30 0.5t31 0.5l30 2l30 2v-34q-3 -1 -6 -1t-6 -1h-5.5h-4.5q-17 -1 -31.5 -7t-17.5 -29q-2 -16 -2.5 -32.5t-0.5 -33.5v-74v-173q0 -15 0.5 -29t0.5 -28q0 -15 0.5 -29t0.5 -28q0 -60 -4 -110.5t-26 -97.5
q-8 -16 -18.5 -33t-24.5 -34q-7 -9 -15.5 -19t-19.5 -20q-18 -19 -40.5 -36t-45.5 -27q-11 -5 -21.5 -7.5t-21.5 -2.5q-4 0 -11 0.5t-15 1.5q-11 1 -20.5 5.5t-9.5 13.5q0 4 3.5 12.5t9.5 17.5q3 6 6.5 11.5t7.5 9.5q4 5 8.5 8t7.5 4h2t2 -1h2h2q12 -5 23.5 -8.5t24.5 -3.5
q52 0 74 38.5t29 84.5q3 20 4 38.5t1 34.5l1 121v117v155v63t-2 64q-3 45 -23 53.5t-59 10.5h-2.5h-2.5v36v0z" />
    <glyph glyph-name="K" unicode="K" horiz-adv-x="676" 
d="M205 336l120 131q15 15 29.5 32t28.5 34l4 4t3 4q6 7 11.5 13.5t10.5 12.5q2 2 5 5.5t5 6.5q3 4 6 8.5t5 8.5t3.5 8t1.5 8q0 10 -7 13.5t-16 4.5q-4 1 -8 1h-7l-11 1v35q27 -3 54 -4.5t54 -1.5q29 0 57.5 1.5t56.5 3.5v-34q-44 -3 -75 -20t-59 -43l-18 -18t-18 -19
l-116 -120l158 -208q10 -15 22 -32t25 -34q29 -40 66 -73.5t83 -33.5v-31h-52.5h-52.5q-23 1 -36.5 6t-25.5 17q-5 5 -10.5 12t-11.5 15q-9 12 -18.5 24.5t-18.5 25.5q-10 13 -19.5 25.5t-18.5 24.5l-146 202l-64 -68v-120l2 -66q1 -44 22 -54t58 -10v-34h-15.5t-15.5 1
q-22 1 -44.5 2t-45.5 1q-16 0 -31.5 -0.5t-30.5 -0.5q-16 -1 -31.5 -2t-31.5 -1v35q38 -1 59 9t22 53l1 67v339l-1 65q-1 44 -22 53.5t-59 9.5v36q31 -3 61.5 -4.5t61.5 -1.5t61.5 1.5t61.5 3.5v-34h-12q-36 -1 -51.5 -13.5t-16.5 -51.5l-2 -64v-167v0z" />
    <glyph glyph-name="L" unicode="L" horiz-adv-x="524" 
d="M499 149l32 -9l-41 -140q-81 3 -162 3.5t-163 0.5q-30 0 -60 -1.5t-61 -2.5v35q38 -1 58 9.5t20 52.5l2 67v339l-2 65q0 43 -20.5 53t-57.5 10v36q15 -2 29.5 -3t28.5 -2q14 0 28.5 -0.5t29.5 -0.5q32 0 64.5 1t65.5 4v-34h-13q-37 -1 -52.5 -13.5t-16.5 -51.5l-1 -64
v-329v-62v-9.5t1 -8.5q1 -14 5 -26.5t15 -19.5q8 -5 24.5 -6.5t34.5 -2.5h8.5h8.5q79 0 124 13.5t71 95.5v1z" />
    <glyph glyph-name="M" unicode="M" horiz-adv-x="882" 
d="M33 667q10 -2 19.5 -3t19.5 -1q9 -1 18.5 -1h19.5h21.5t21.5 1q10 0 21 1t21 2q22 -52 45 -103t47 -101l154 -318l152 319q8 15 16 31.5t16 33.5q6 12 11.5 23.5t11.5 23.5q10 23 19.5 46t15.5 45q22 -2 43 -3t42 -1q20 0 39.5 1t38.5 3v-32h-21q-39 -2 -55.5 -13.5
t-16.5 -52.5v-12t1 -12l10 -355l1 -59q1 -58 12 -76t69 -20v-34q-31 1 -61.5 2.5t-61.5 1.5t-61.5 -1.5t-61.5 -2.5v35q49 1 65.5 17t16.5 63v37l-4 386l-195 -413q-3 -7 -5.5 -13t-5.5 -11q-11 -24 -21.5 -47.5t-19.5 -48.5l-16 1l-250 526l-5 -326q-1 -17 -1 -34v-34
q0 -43 10.5 -73.5t63.5 -30.5l8 1v-35h-13.5t-13.5 1q-20 1 -40.5 2t-41.5 1q-25 0 -49.5 -1.5t-49.5 -2.5v35q2 -1 3.5 -1t2.5 1h3.5h2.5h3.5h2.5q12 1 23.5 4.5t18.5 12.5q7 10 10.5 25.5t5.5 31.5q1 11 1.5 21.5t0.5 19.5v4.5v4.5l1 35l10 303q0 5 0.5 10.5t0.5 11.5
q0 3 0.5 5.5t0.5 5.5q0 8 0.5 16.5t0.5 17.5q0 40 -14.5 54.5t-52.5 14.5l-25 1v33v0z" />
    <glyph glyph-name="N" unicode="N" horiz-adv-x="760" 
d="M40 667q11 -2 21.5 -2.5t21.5 -1.5q11 0 21.5 -0.5t21.5 -0.5q10 0 19.5 0.5t19.5 0.5q9 1 18.5 1.5t19.5 1.5l395 -518v232v58l-4 103q-1 52 -13.5 71t-67.5 20v35q13 -2 26.5 -3t26.5 -2t26.5 -1h26.5q14 0 27 0.5t27 0.5q13 1 26.5 2t26.5 2v-33q-4 -1 -9 -1h-9
q-10 -1 -19 -3t-17 -7q-11 -8 -16.5 -22t-7.5 -29q-1 -9 -1 -18v-16v-5l-2 -105l-4 -443h-18l-456 589l2 -295v-14.5v-13.5q1 -39 2 -78.5t5 -78.5q5 -40 23 -50.5t55 -10.5v-32q-14 0 -28 1l-28 2q-15 0 -29 0.5t-28 0.5q-13 0 -25.5 -0.5t-24.5 -1.5q-7 0 -13 -0.5
t-13 -0.5q-6 -1 -12.5 -1h-12.5v33q57 -1 67 26.5t11 73.5v2.5v2.5l2 72l4 301v34q0 55 -17 69t-67 18v35v0z" />
    <glyph glyph-name="O" unicode="O" horiz-adv-x="774" 
d="M734 334q0 -149 -100.5 -246.5t-248.5 -97.5q-149 0 -247 99t-98 247q0 147 103.5 243.5t247.5 96.5q146 0 244.5 -98.5t98.5 -244.5v1zM641 324q0 12 -1 25.5t-3 26.5q-14 98 -77.5 179t-169.5 81q-124 0 -190 -90t-66 -204q0 -8 0.5 -16.5t0.5 -16.5q10 -106 75.5 -194
t182.5 -88q121 0 183.5 90.5t64.5 199.5v3.5v2.5v1z" />
    <glyph glyph-name="P" unicode="P" horiz-adv-x="511" 
d="M261 290v33q69 3 110.5 44t41.5 111q0 79 -47.5 115t-120.5 36h-18t-17 -1q-1 -16 -1.5 -32t-0.5 -32q-1 -16 -1 -32v-32v-336l1 -66q1 -46 23 -55t60 -9v-34q-15 0 -30 1l-30 2q-16 0 -31 0.5t-30 0.5q-32 0 -64.5 -1.5t-64.5 -2.5v35q38 -1 59 9t22 53l2 67v339v16.5
t-1 16.5q0 47 -10 71t-72 24v36q10 -2 20.5 -2.5t20.5 -0.5q10 -1 20.5 -1h20.5q21 0 41.5 1t40.5 2t40.5 2t41.5 1l34 1q80 -1 126.5 -48.5t46.5 -127.5q0 -100 -70.5 -152.5t-162.5 -52.5v1z" />
    <glyph glyph-name="Q" unicode="Q" horiz-adv-x="772" 
d="M438 -7l123 -59q1 -1 2.5 -1.5t3.5 -1.5q76 -37 157.5 -68.5t167.5 -31.5q38 0 74.5 4t72.5 14l3 -25q-3 -1 -6.5 -1.5t-6.5 -1.5q-11 -2 -22.5 -4.5t-22.5 -4.5q-44 -9 -88 -15t-89 -6q-59 0 -129.5 23t-143.5 56q-28 13 -56 27t-55 28q-53 27 -101.5 52t-89.5 44
q-92 44 -142 127.5t-50 184.5q0 147 102.5 244.5t247.5 97.5q142 0 242 -98t100 -241q0 -142 -79.5 -228.5t-214.5 -114.5v0zM640 325q0 6 -0.5 13.5t-0.5 14.5q-8 106 -73.5 194t-182.5 88q-118 0 -183 -89.5t-68 -196.5v-5v-4q0 -118 64 -215t195 -97q121 0 184 90.5
t65 199.5v3.5v2.5v1z" />
    <glyph glyph-name="R" unicode="R" horiz-adv-x="637" 
d="M637 31v-31h-67q-57 0 -75.5 11t-29.5 29l-6 10l-6 10l-174 251q-9 -2 -18 -2.5t-18 -0.5q-10 -1 -19 -1h-18v-143l1 -66q1 -45 22.5 -55t59.5 -10l-1 -33q-30 1 -60.5 2.5t-61.5 1.5t-62 -1.5t-62 -2.5v34q38 -1 58.5 9.5t21.5 53.5l1 67v339l-1 65q-1 43 -21.5 53
t-58.5 10v36q20 -3 39.5 -4.5t38.5 -1.5q25 0 50 1t50 3q24 1 49 2t50 1q66 0 114.5 -43t48.5 -111q0 -66 -33.5 -113t-93.5 -71q8 -8 15.5 -18t14.5 -21q2 -2 3.5 -4.5t3.5 -5.5l95 -128q7 -10 16 -23t19 -26l10 -12l10 -12q10 -11 20 -20.5t18 -15.5q13 -7 27.5 -9.5
t29.5 -4.5v1zM206 346h35q65 -1 112.5 37t47.5 107q0 73 -45.5 106t-112.5 33q-8 0 -17 -0.5t-18 -1.5q0 -15 -0.5 -30t-0.5 -30q0 -16 -0.5 -31t-0.5 -30v-160v0z" />
    <glyph glyph-name="S" unicode="S" horiz-adv-x="457" 
d="M410 536l-34 -7q-10 43 -38.5 76t-76.5 36q-49 0 -89.5 -29.5t-40.5 -83.5q0 -47 33 -78t77 -59q7 -5 15 -10t17 -10q53 -33 97 -76.5t44 -118.5q0 -90 -66 -138t-149 -48q-40 0 -79 9.5t-75 25.5q-3 34 -8.5 67.5t-11.5 66.5l38 8q12 -56 43 -97.5t94 -44.5q53 0 96 33
t43 90q0 54 -36.5 88t-82.5 64l-10 6l-10 6q-52 33 -95.5 75t-43.5 113q0 89 64.5 132.5t144.5 43.5q30 0 60 -5.5t59 -14.5q3 -31 8.5 -61t12.5 -60v1z" />
    <glyph glyph-name="T" unicode="T" horiz-adv-x="568" 
d="M44 685h16q14 -10 29.5 -14t31.5 -6q9 -1 18 -1.5t18 -1.5q21 0 41.5 -0.5t40.5 -0.5h40.5h41.5h37.5t37.5 1q18 0 36.5 1t37.5 2q23 2 44.5 6.5t42.5 12.5l17 1q-10 -36 -19 -72t-15 -73l-33 1q2 7 3 14.5t1 14.5q0 34 -22 43t-51 9l-112 1v-459l1 -66q1 -47 24 -55.5
t60 -8.5v-34q-31 1 -62.5 2.5t-63.5 1.5q-15 0 -30.5 -0.5t-31.5 -1.5q-8 0 -15.5 -0.5t-15.5 -0.5q-8 -1 -15.5 -1h-15.5v35q38 -1 58 9.5t21 52.5l2 67v459h-65q-53 -1 -82.5 -10.5t-53.5 -58.5q-2 -3 -3.5 -6.5t-3.5 -7.5l-34 1q9 23 16.5 47t13.5 48l2 6l2 6q2 9 4.5 18
t5.5 18v1z" />
    <glyph glyph-name="U" unicode="U" horiz-adv-x="728" 
d="M32 633v34q13 -2 26.5 -3t26.5 -2t26.5 -1h26.5q33 0 65.5 1.5t64.5 3.5v-33q-2 -1 -3.5 -1h-3.5q-4 0 -7.5 -0.5t-7.5 -0.5q-12 -1 -22.5 -4t-18.5 -11q-8 -9 -11.5 -22t-4.5 -28v-8.5v-8.5v-25v-219q0 -106 29 -190.5t159 -84.5q132 0 166 78.5t34 188.5v39v109l-1 75
v5v6q-1 44 -10.5 72.5t-66.5 28.5v35q23 -4 47 -5t48 -1q25 0 49.5 1t49.5 4v-33q-46 -1 -56.5 -30.5t-10.5 -70.5v-22v-22q-1 -11 -1 -22v-22v-126q0 -140 -45.5 -236.5t-212.5 -96.5q-11 0 -21.5 0.5t-21.5 1.5q-57 5 -109.5 27.5t-81.5 76.5q-11 20 -16.5 43.5t-7.5 48.5
q-1 18 -1.5 36t-0.5 34v243v30q0 46 -10 76t-65 30v1z" />
    <glyph glyph-name="V" unicode="V" horiz-adv-x="586" 
d="M-27 633v34q28 -5 56.5 -5.5t56.5 -0.5q29 0 58.5 1t59.5 4v-33q-3 -1 -7 -1.5t-7 -0.5q-17 -3 -31 -10.5t-14 -26.5q0 -16 5 -31.5t12 -29.5q0 -2 0.5 -3.5t1.5 -2.5l144 -370l140 352q2 5 4.5 11.5t5.5 12.5q6 15 11.5 30.5t5.5 31.5q0 20 -15.5 27.5t-34.5 8.5
q-3 1 -5.5 1h-5.5v35q13 -2 26 -3l26 -2q12 -1 25 -1h26q25 0 49.5 1t49.5 4v-33q-51 -1 -74 -35.5t-38 -75.5q-1 -5 -3 -10t-3 -9q-2 -7 -4.5 -13t-4.5 -12l-124 -303q-5 -13 -9.5 -26t-8.5 -26q-2 -6 -4.5 -12.5t-4.5 -12.5q-9 -27 -19 -53t-22 -48h-16q-10 28 -21 57
t-23 58q-4 9 -7.5 18.5t-7.5 19.5l-113 291q-5 11 -10 23t-10 25q-1 4 -3 8t-3 8q-3 8 -6.5 16t-6.5 16t-6.5 16t-6.5 15q-12 28 -28.5 44.5t-54.5 19.5z" />
    <glyph glyph-name="W" unicode="W" horiz-adv-x="877" 
d="M-26 634v32q7 -1 13.5 -1.5t12.5 -1.5l38 -2t38 -1q28 0 55.5 1.5t54.5 3.5v-31q-3 -1 -5.5 -1.5t-4.5 -0.5q-14 -2 -25.5 -8t-11.5 -22q0 -7 1 -13.5t3 -13.5q3 -10 7 -19.5t8 -19.5q3 -7 6 -13.5t5 -12.5l148 -373l93 206l-88 198q-1 1 -1.5 2.5t-1.5 3.5q-1 1 -1.5 3
t-1.5 3q-13 29 -30 53t-53 27v33q7 -1 13.5 -1.5t12.5 -1.5q20 -1 39.5 -2t38.5 -1q12 0 24 0.5t24 1.5q5 0 11 0.5t12 0.5q6 1 12 1.5t12 0.5v-31q-16 -2 -29 -6.5t-13 -23.5q0 -15 5 -30t11 -30q1 -2 2 -4.5t2 -5.5l45 -101l47 108q1 0 1.5 1.5t0.5 2.5q7 13 12 27.5
t5 28.5q0 20 -13 26t-29 6v33q5 -1 10 -1.5t10 -1.5q15 -1 30.5 -2t31.5 -1q11 0 22 0.5t22 0.5l22 2l22 2v-31q-37 -1 -54 -18t-30 -44l-6 -14t-7 -14l-73 -163l108 -244l134 311q9 20 17.5 41t16.5 43q1 3 2 5.5t2 5.5q5 11 8.5 22.5t4.5 23.5q0 24 -16.5 32.5t-36.5 10.5
q-2 1 -4 1h-4v33q12 -2 24.5 -3t25.5 -2q13 0 25.5 -0.5t24.5 -0.5q24 0 48 1.5t48 3.5v-33q-1 -1 -2 -1h-2q-1 -1 -2 -1h-2q-17 -1 -28 -5t-21 -15q-2 -3 -4 -5.5t-4 -5.5q-11 -16 -21 -36.5t-20 -42.5q-8 -17 -15 -34t-13 -31l-138 -318q-11 -23 -20 -45.5t-18 -45.5v-1
v-1q-5 -13 -10.5 -26.5t-10.5 -25.5h-11l-133 294l-132 -294h-11l-211 522q-1 1 -1.5 2.5t-0.5 2.5q-3 7 -6 14.5t-6 14.5q-12 32 -31.5 58.5t-57.5 26.5z" />
    <glyph glyph-name="X" unicode="X" horiz-adv-x="592" 
d="M6 635v32q30 -4 60 -5t60 -1q32 0 64.5 1t64.5 4v-31h-14q-3 -1 -6.5 -1t-7.5 -1q-11 0 -20.5 -4t-12.5 -13q0 -1 -0.5 -2l-0.5 -1v-2v-2q0 -3 0.5 -5.5t0.5 -5.5q3 -9 7.5 -18t10.5 -17q3 -4 6 -8.5t5 -8.5l87 -142l81 122q4 4 8.5 10.5t8.5 13.5q3 4 5.5 8.5t5.5 8.5
q5 9 9 18t5 16q0 19 -13.5 25.5t-29.5 7.5h-8h-8v33q26 -4 52.5 -5t52.5 -1q29 0 57.5 1.5t56.5 3.5v-31q-49 -1 -79.5 -31t-55.5 -66q-3 -5 -5.5 -9t-5.5 -8q-1 -1 -1.5 -2t-1.5 -2l-107 -156l104 -170q8 -14 17.5 -30t19.5 -33q23 -36 53 -66t67 -32v-30q-31 2 -62.5 3
t-63.5 1q-23 0 -46 -1l-46 -2q-8 -1 -15.5 -1h-15.5v31q2 -1 3.5 -1h3.5q5 0 10.5 0.5t11.5 0.5q15 2 27.5 8t12.5 22q0 8 -8 24.5t-18 34.5q-2 3 -4 6.5t-4 6.5q-8 14 -16 26.5t-13 19.5l-69 115l-117 -178q-2 -4 -4.5 -7.5t-5.5 -6.5q-6 -9 -11 -18.5t-6 -20.5v0
q0 -16 12.5 -23t26.5 -9q8 -1 15 -1h13v-30q-27 1 -54 2.5t-54 1.5t-54 -1.5t-53 -2.5l-1 31q49 4 82 38.5t59 74.5q8 12 15 23.5t14 22.5l96 147l-110 176q-4 6 -8.5 13t-9.5 14q-22 36 -51 65t-74 29v1z" />
    <glyph glyph-name="Y" unicode="Y" horiz-adv-x="537" 
d="M-30 635v32q15 -2 28 -3t27 -2t27.5 -1h27.5h30.5t30.5 1t30.5 2t30.5 2v-31q-4 -1 -9 -1.5t-10 -1.5q-13 -2 -23.5 -7.5t-10.5 -20.5v0q1 -15 6.5 -28t12.5 -25q3 -4 5.5 -8.5t4.5 -9.5l110 -201l96 180l7.5 12.5t8.5 16.5q2 4 4.5 8.5t4.5 9.5q5 12 9 23.5t4 20.5v2
q-1 15 -12.5 21t-24.5 7q-4 1 -7.5 1h-7.5v33q14 -2 27.5 -3t27.5 -2q13 -1 27 -1h27q23 0 46 1.5t45 3.5v-31q-51 -3 -76.5 -31.5t-45.5 -66.5l-8 -16l-8 -16l-121 -232v-109v-11.5v-11.5q-1 -5 -1 -10.5v-11.5q0 -43 12.5 -64t58.5 -21l12 1v-35q-31 1 -61.5 2.5
t-61.5 1.5h-31.5t-30.5 -1q-16 -1 -31.5 -1.5t-31.5 -1.5v35q2 -1 4 -1h4q27 1 49.5 10t24.5 41q1 10 1 19.5v19.5v40v112l-154 275q-18 34 -40.5 57t-62.5 26z" />
    <glyph glyph-name="Z" unicode="Z" horiz-adv-x="594" 
d="M77 681h11q5 -5 9.5 -8.5t10.5 -5.5q11 -3 26.5 -5t32.5 -2q9 -1 18.5 -1h18.5q45 0 89.5 0.5t88.5 1.5t88.5 1.5t89.5 0.5l6 -10q-18 -22 -34 -45t-31 -47q-4 -5 -7 -10t-7 -11q-6 -9 -12.5 -18.5t-12.5 -18.5l-314 -460h155q6 -1 11.5 -1h10.5q88 1 136 18.5t78 115.5
l31 -7q-3 -15 -6.5 -29t-6.5 -28q-7 -28 -13 -56t-10 -56h-6h-7h-6.5h-6.5l-105 2l-97 1q-15 -1 -30 -1h-30q-16 0 -31 -0.5t-30 -0.5h-120q-4 -1 -8.5 -1h-8.5h-8.5h-8.5l-8 13q11 16 22.5 32t23.5 32q12 15 23.5 31.5t22.5 32.5l326 480h-132h-49q-70 -1 -116.5 -17.5
t-66.5 -96.5l-31 6l31 168v0z" />
    <glyph glyph-name="bracketleft" unicode="[" horiz-adv-x="286" 
d="M77 700h176v-33h-105v-845h105v-33h-176v911v0z" />
    <glyph glyph-name="backslash" unicode="\" horiz-adv-x="416" 
d="M61 713l411 -919l-42 -19l-410 919l41 19v0z" />
    <glyph glyph-name="bracketright" unicode="]" horiz-adv-x="286" 
d="M209 -211h-176v33h105v845h-105v33h176v-911v0z" />
    <glyph glyph-name="asciicircum" unicode="^" horiz-adv-x="500" 
d="M524 286h-38l-202 312l-209 -312h-100l277 414h6l266 -414v0z" />
    <glyph glyph-name="underscore" unicode="_" horiz-adv-x="500" 
d="M22 -88h455v-43h-455v43v0z" />
    <glyph glyph-name="grave" unicode="`" horiz-adv-x="500" 
d="M263 661l70 -171l-21 -10l-124 161l-0.5 0.5l-1.5 1.5q-2 3 -3.5 6t-1.5 5t2.5 4t8.5 2l71 1v0z" />
    <glyph glyph-name="a" unicode="a" horiz-adv-x="415" 
d="M389 52l12 -19q-19 -16 -42 -27.5t-48 -11.5q-29 0 -39.5 18t-12.5 43q-25 -27 -56 -46.5t-69 -19.5q-41 0 -67.5 27.5t-26.5 67.5q0 42 28.5 62t62.5 32l10 4l10 4l107 40v33q0 9 -0.5 20.5t-2.5 24.5q-3 26 -15.5 48.5t-42.5 22.5q-7 0 -16 -2t-19 -6q-17 -7 -32.5 -19
t-16.5 -27q-3 -23 -15 -31t-36 -10q-4 0 -6.5 2.5t-2.5 6.5q0 22 10.5 37t27.5 27q9 6 19.5 13.5t21.5 15.5q9 6 18.5 12.5t19.5 11.5q13 7 26.5 12t25.5 5q65 0 85 -44t21 -97v-4v-4q0 -22 -0.5 -44t-0.5 -44q0 -23 -0.5 -45t-0.5 -44v-8v-8q2 -17 8 -31.5t22 -14.5
q6 0 12.5 3t11.5 7q2 2 4.5 3.5t4.5 2.5v1zM258 198q-12 -5 -27 -10t-30 -11q-32 -12 -58.5 -31t-26.5 -52q0 -23 16 -40t40 -17t44 13.5t37 29.5l2.5 2.5l2.5 2.5v113v0z" />
    <glyph glyph-name="b" unicode="b" horiz-adv-x="501" 
d="M146 366q8 4 16 9.5t16 10.5q27 16 55.5 27t63.5 11q71 0 112.5 -52.5t51.5 -115.5l2 -20t1 -20q0 -95 -62.5 -159t-158.5 -64q-13 0 -25.5 1t-25.5 2q-13 2 -25.5 3t-25.5 1q-8 0 -16 -0.5t-16 -1.5q-9 -1 -17 -2.5t-16 -3.5v123v385l-1 67q0 32 -10 49t-45 17v27
q32 7 60.5 21t56.5 31l19 -8q-6 -52 -8 -103t-2 -102v-133v0zM146 337v-145v-2.5v-0.5q0 -9 0.5 -17.5t0.5 -17.5q3 -47 20.5 -86t77.5 -39q72 0 109 51.5t37 117.5v6.5v6.5q-4 59 -40 107.5t-101 48.5q-28 0 -53.5 -8.5t-50.5 -22.5v1z" />
    <glyph glyph-name="c" unicode="c" horiz-adv-x="398" 
d="M368 89l17 -18q-28 -36 -70 -57t-87 -21q-93 0 -142 63.5t-49 150.5q0 91 60.5 154t151.5 63q10 0 26 -2.5t32 -7.5q27 -8 50 -22t23 -32q-1 -9 -9.5 -17.5t-18.5 -12.5q-3 -1 -5.5 -1.5t-5.5 -0.5l-1 1q-8 -1 -16.5 9t-19.5 22q-12 12 -27.5 22t-36.5 10
q-56 0 -90 -43.5t-38 -96.5q-1 -3 -1 -6.5v-6.5q0 -10 1 -20t2 -21q9 -58 44.5 -106t100.5 -48q32 0 58.5 12.5t50.5 31.5v1z" />
    <glyph glyph-name="d" unicode="d" horiz-adv-x="514" 
d="M472 41v-29q-30 -2 -60 -7t-59 -15l-14 17q0 4 0.5 9.5t1.5 10.5v2.5v2.5q1 7 1.5 13.5t0.5 12.5q-31 -25 -66 -44.5t-76 -19.5q-71 0 -110.5 52t-49.5 115q-2 12 -3 23t-1 22q0 89 59 153.5t149 64.5q27 0 53.5 -7.5t49.5 -21.5v112l-1 61q0 33 -9.5 49t-45.5 16v27
q32 7 60.5 21.5t55.5 31.5l19 -9q-5 -50 -7 -99t-2 -99v-302v-58q0 -21 0.5 -40t2.5 -33q4 -23 18 -27.5t33 -5.5v1zM347 100v9.5t1 10.5v10.5v10.5v26.5v26.5q0 27 -0.5 53.5t-2.5 52.5q-3 43 -33 66t-71 23q-67 0 -100.5 -51t-33.5 -113q0 -10 1 -19.5t2 -19.5
q9 -52 41.5 -95t90.5 -43q32 0 58.5 14t46.5 37v1z" />
    <glyph glyph-name="e" unicode="e" horiz-adv-x="386" 
d="M352 84l14 -20q-30 -34 -70 -52.5t-84 -18.5q-75 0 -121 57t-53 126q0 6 -0.5 11.5t-0.5 11.5q0 88 52.5 156.5t145.5 68.5q52 0 90 -35.5t38 -87.5q0 -27 -9 -35t-33 -8l-216 1q-1 -9 -2 -16.5t-1 -15.5q0 -67 41 -121t113 -54q27 0 50.5 8.5t45.5 22.5v1zM112 293h144
q2 -1 3.5 -1h3.5q12 0 22 4t10 20q0 31 -21.5 51t-51.5 20q-45 0 -70.5 -28.5t-39.5 -66.5v1z" />
    <glyph glyph-name="f" unicode="f" horiz-adv-x="316" 
d="M178 401h138l-15 -41h-123v-196v-17v-16q-1 -8 -1 -16v-16q0 -35 9 -51t48 -16l23 1v-33q-13 0 -26.5 1t-26.5 2q-14 0 -27 0.5t-27 0.5q-20 0 -40 -1l-40 -2q-6 -1 -12.5 -1h-13.5v33q41 -1 52.5 13.5t11.5 52.5v16v16q-1 8 -1 16v16v197h-63l9 34q31 4 43.5 14t14.5 41
q10 104 64 178.5t169 74.5q6 0 16.5 -1t20.5 -4q17 -4 31 -12.5t14 -22.5v-3.5t-1 -3.5q-3 -11 -13 -21.5t-22 -14.5q-3 -1 -6 -1.5t-6 -0.5q-8 0 -16.5 8t-18.5 17q-11 9 -23 17t-28 8q-54 0 -77.5 -44t-30.5 -97q-4 -28 -5 -55t-1 -47v-23v0z" />
    <glyph glyph-name="g" unicode="g" horiz-adv-x="437" 
d="M427 390v-35l-95 1q8 -17 12.5 -33.5t4.5 -33.5q0 -67 -49.5 -99.5t-108.5 -33.5h-1.5h-1.5q-4 -3 -8 -6.5t-8 -6.5q-11 -9 -20 -20t-9 -24q0 -16 12 -22t26 -8q6 -1 12 -1h11l49 1q2 -1 5 -1h5q10 0 21 -0.5t22 -0.5q42 -3 77.5 -19.5t35.5 -68.5q0 -73 -58 -121.5
t-127 -65.5q-16 -4 -32.5 -6t-31.5 -2q-58 0 -100.5 33t-42.5 95q0 24 14.5 44t31.5 38l13.5 13.5t12.5 13.5q-13 10 -22.5 24t-9.5 30q0 4 0.5 7t1.5 6l77 74q-42 16 -68.5 46.5t-26.5 78.5q0 64 49 100t107 37h1.5h1.5q6 0 12 -0.5t12 -1.5q21 -3 40.5 -11t34.5 -23l118 2
v0zM123 9q-11 -16 -19 -32.5t-10 -35.5q0 -54 41.5 -81.5t90.5 -27.5q9 0 19 1t19 3q34 8 62 29t30 57q0 49 -40.5 63t-88.5 15q-8 0 -15.5 0.5t-15.5 0.5q-21 1 -40 2t-33 5v1zM276 280q0 8 -1 17.5t-2 18.5q-6 30 -22.5 55t-49.5 27q-37 0 -56.5 -28t-21.5 -61v-4v-4
q0 -7 0.5 -15t2.5 -16q5 -30 22.5 -56t51.5 -27q38 0 57 28.5t19 63.5v1z" />
    <glyph glyph-name="h" unicode="h" horiz-adv-x="534" 
d="M170 354q7 4 15 9.5t16 11.5q26 18 55.5 33.5t59.5 15.5q81 0 104.5 -48.5t23.5 -116.5q0 -20 -0.5 -39.5t-0.5 -39.5v-39.5v-39.5v-7.5v-7.5q1 -13 3 -25.5t8 -17.5q5 -5 12 -7.5t14 -2.5q5 -1 10 -1h9l2 1v-33q-24 1 -48.5 2.5t-49.5 1.5t-49.5 -1.5t-49.5 -2.5v33
q41 -1 54.5 11t13.5 52v10v10q-1 4 -1 7.5v6.5v28.5t1 28.5v28.5v28.5q0 8 -0.5 16.5t-1.5 17.5q-3 35 -20 64.5t-60 29.5q-34 0 -64.5 -15t-55.5 -38v-155v-17v-16q-1 -8 -1 -16v-16q0 -35 9 -51t48 -16l6 1v-33q-12 0 -24 1l-24 2q-13 0 -25 0.5t-24 0.5q-19 0 -38 -1
l-38 -2q-7 -1 -13.5 -1h-12.5v33q43 -1 55 13t12 55v63v341l-1 62q0 34 -10.5 50t-46.5 16v27q32 7 62 21t58 31l17 -8q-3 -26 -4.5 -51t-2.5 -49q-1 -25 -1.5 -50t-0.5 -50v-150v0z" />
    <glyph glyph-name="i" unicode="i" horiz-adv-x="276" 
d="M48 354l1 26q32 8 62 21.5t58 30.5l18 -7q-2 -15 -4 -29t-3 -28q-1 -15 -1.5 -29t-0.5 -28l1 -86v-32.5v-30.5q-1 -16 -1 -31.5v-31.5q0 -35 9 -51t48 -16l5 1v-33q-25 1 -49 2.5t-48 1.5q-13 0 -26 -0.5t-25 -0.5l-26 -2t-26 -1v33q43 -1 55 13t12 55v46v47
q0 23 -0.5 46t-0.5 46q0 35 -10.5 51t-47.5 16v1zM182 647q0 -20 -14.5 -33t-33.5 -13q-18 0 -32 13t-14 31q0 20 14.5 34.5t33.5 14.5q20 0 33 -14.5t13 -33.5v1z" />
    <glyph glyph-name="j" unicode="j" horiz-adv-x="240" 
d="M21 -184l-14 24q20 13 34 25t24 24q23 27 27.5 57t5.5 77q1 4 1 9.5v10.5q0 9 0.5 18.5t0.5 19.5v19.5v18.5v113l-1 56q0 32 -10 48.5t-46 16.5l1 27q32 9 60.5 22t56.5 31l17 -8q-4 -29 -6 -57t-2 -57l1 -79v-148q0 -85 -9.5 -129.5t-52.5 -80.5q-16 -14 -37.5 -28
t-50.5 -30v0zM177 648q0 -20 -14 -33.5t-34 -13.5q-18 0 -31.5 13t-13.5 32q0 20 14 34t33 14q20 0 33 -14.5t13 -32.5v1z" />
    <glyph glyph-name="k" unicode="k" horiz-adv-x="484" 
d="M233 33v-33q-12 0 -24.5 1t-25.5 2q-13 0 -25.5 0.5t-24.5 0.5t-24.5 -0.5t-24.5 -0.5q-12 -1 -24.5 -2t-24.5 -1v33q41 -1 53.5 12.5t12.5 53.5v16v16q-1 8 -1 16v16v342l-1 62q0 33 -10 49.5t-45 16.5v27q32 7 60.5 21t56.5 31l19 -8q-3 -26 -5 -51t-3 -49
q-1 -25 -1.5 -50t-0.5 -50v-340v-62q0 -36 8 -53t48 -17l7 1v0zM271 385v33q11 -2 22.5 -2.5t23.5 -0.5q11 -1 22.5 -1h22.5q23 0 45.5 1t44.5 2v-32q-55 -1 -95 -31.5t-77 -66.5q-1 -2 -3 -3.5t-3 -3.5l-11.5 -11.5t-11.5 -10.5l100 -132q7 -10 13.5 -19.5t13.5 -17.5
q17 -23 37.5 -39.5t55.5 -19.5v-30q-8 0 -15.5 0.5t-15.5 0.5q-8 1 -15.5 1h-15.5h-16t-16 -1q-8 0 -16 -0.5t-16 -0.5q-37 60 -79 117t-86 112l85 86q3 3 7.5 6.5t8.5 7.5q6 6 11.5 12t9.5 12q2 4 3.5 7.5t1.5 6.5v2q0 7 -6 10.5t-13 4.5h-6h-5l-6 1v0z" />
    <glyph glyph-name="l" unicode="l" horiz-adv-x="267" 
d="M234 33v-33q-24 1 -48 2.5t-48 1.5q-25 0 -50.5 -1.5t-51.5 -2.5v33q42 -1 53 14t11 54v63v342l-2 61q0 31 -9.5 48.5t-44.5 17.5l-1 27q32 7 61 21t56 31l19 -8q-6 -50 -7.5 -99.5t-1.5 -99.5v-341v-18.5v-16.5q-1 -8 -1 -16.5v-17.5q0 -34 9.5 -48.5t46.5 -14.5l9 1v0z
" />
    <glyph glyph-name="m" unicode="m" horiz-adv-x="796" 
d="M432 354q6 4 13 9l14 10q23 16 48 30t51 19q5 1 10 1.5t10 0.5q77 0 102.5 -47.5t25.5 -113.5v-41.5v-40.5q-1 -20 -1 -40.5v-41.5v-5.5v-5.5q1 -14 3 -26.5t8 -18.5q5 -5 12 -7t14 -3q6 -1 11 -1h9l4 1v-33h-12t-11 1l-36 2t-36 1q-12 0 -24.5 -0.5t-25.5 -1.5
q-6 0 -12.5 -0.5t-12.5 -0.5q-6 -1 -12.5 -1h-12.5v33q48 -1 56 14.5t8 51.5v33.5v33.5q-1 16 -1 33v33v13.5v13.5q-2 42 -17 77.5t-69 35.5q-31 0 -58 -14.5t-51 -32.5q0 -4 0.5 -8.5t0.5 -8.5v-8.5v-8.5v-189v-8.5v-7.5q1 -13 3 -25.5t8 -17.5q5 -5 12 -7.5t14 -2.5
q5 -1 10 -1h9l6 1v-33h-12t-12 1l-36 2t-37 1q-12 0 -24 -0.5t-23 -0.5l-24 -2t-24 -1v33q38 -1 49 13.5t11 48.5v38.5v38.5q-1 19 -1 38.5v38.5q0 48 -13.5 85.5t-72.5 37.5q-29 0 -55 -13t-49 -30v-165v-17v-16q-1 -8 -1 -16v-16q0 -35 9 -51t48 -16l4 1v-33
q-25 1 -49.5 2.5t-49.5 1.5q-12 0 -24.5 -0.5t-25.5 -1.5q-6 0 -12.5 -0.5t-12.5 -0.5q-6 -1 -12.5 -1h-12.5v33q44 -1 56 12.5t12 55.5q0 47 -0.5 93.5t-1.5 92.5q0 33 -9 49.5t-45 16.5v28q30 7 58.5 21t54.5 30l20 -8l-2 -16t-2 -15q0 -8 -1 -15.5t-1 -15.5q7 5 14.5 10
t15.5 10q15 9 31 18t33 15q10 4 21 6.5t21 2.5q38 0 70 -17.5t47 -53.5v1z" />
    <glyph glyph-name="n" unicode="n" horiz-adv-x="542" 
d="M179 319v-155q0 -9 -0.5 -16.5t-0.5 -15.5v-15.5v-15.5q0 -35 8 -52t48 -17l8 1v-33h-12.5t-12.5 1q-20 1 -39 2t-38 1q-12 0 -24.5 -0.5t-25.5 -0.5q-13 -1 -25.5 -2t-24.5 -1v33q41 -1 54.5 12t13.5 54v46.5t-1 47.5q0 23 -0.5 46.5t-0.5 46.5q0 37 -9 52t-46 15v27
q30 10 58.5 23t56.5 29l19 -8q-2 -18 -3.5 -35.5t-2.5 -34.5q5 4 11 8l12 8q28 20 60.5 37t67.5 17q69 0 95.5 -45.5t26.5 -105.5v-44.5v-44.5q-1 -22 -1 -44.5v-44.5v-4v-3q0 -15 2.5 -27.5t8.5 -17.5q5 -5 13 -7.5t16 -2.5q4 -1 8.5 -1h8.5l2 1v-33h-12.5t-12.5 1
q-18 1 -37 2t-38 1q-12 0 -24 -0.5t-24 -1.5q-7 0 -13 -0.5t-12 -0.5q-6 -1 -12 -1h-12v33q44 -1 55.5 13.5t11.5 54.5v34.5v34.5q-1 17 -1 34.5v34.5q0 8 -0.5 16.5t-0.5 16.5q-4 38 -21 69t-62 31q-34 0 -62.5 -16t-53.5 -38v1z" />
    <glyph glyph-name="o" unicode="o" horiz-adv-x="508" 
d="M472 207q0 -92 -65.5 -153t-154.5 -61q-95 0 -155 62t-60 156q0 93 66 155t157 62q95 0 153.5 -65t58.5 -157v1zM394 198q0 10 -1 21.5t-3 22.5q-10 56 -44.5 102.5t-95.5 46.5q-64 0 -98 -49t-35 -107v-1.5v-1.5q0 -14 1.5 -29.5t4.5 -30.5q11 -54 43 -99t93 -45
q70 0 102 52t33 114v1.5v1.5v1z" />
    <glyph glyph-name="p" unicode="p" horiz-adv-x="520" 
d="M172 17v-140q0 -36 9 -52.5t47 -16.5h8v-33q-13 1 -25.5 2t-24.5 2q-13 0 -25.5 0.5t-25.5 0.5t-25.5 -0.5t-24.5 -0.5q-13 -1 -25.5 -2t-25.5 -2v33q38 0 52.5 10t14.5 53v17.5v16.5q-1 8 -1 16.5v17.5v286l-1 63q0 31 -7 47t-41 17q-1 1 -2.5 1h-3.5v27q30 8 58.5 22
t55.5 30l20 -8q-1 -8 -2 -15l-2 -14t-1.5 -14t-1.5 -14q1 1 2 1.5t2 1.5q30 20 61 37t69 17q84 0 130.5 -63.5t46.5 -141.5v-4v-5q-3 -81 -59 -149t-143 -68q-28 0 -55.5 6t-53.5 17v1zM172 75q14 -19 35 -29.5t43 -14.5q7 -1 13 -1.5t12 -0.5q68 0 101.5 50.5t35.5 111.5
v3.5v2.5q0 67 -36 119t-110 52q-7 0 -13.5 -0.5t-13.5 -2.5q-18 -3 -35 -10t-32 -17v-263v0z" />
    <glyph glyph-name="q" unicode="q" horiz-adv-x="488" 
d="M361 376l50 51l16 -9q-3 -26 -5 -51t-2 -49q-1 -25 -1.5 -50t-0.5 -50v-279q0 -8 -0.5 -15.5t-0.5 -15.5v-15.5v-15.5q0 -39 9.5 -54t46.5 -15h8v-33q-6 0 -12.5 0.5t-12.5 1.5q-18 1 -36.5 2t-37.5 1q-26 0 -51.5 -1.5t-51.5 -3.5v33q44 0 56 13t12 56v15.5v15.5
t-0.5 15.5t-0.5 15.5v129q-28 -31 -64.5 -53t-80.5 -22q-70 0 -110 52t-50 116q-2 11 -3 21.5t-1 21.5q0 89 58 154.5t149 65.5q34 0 63.5 -13t53.5 -36v1zM346 104v145q0 53 -17.5 96.5t-84.5 43.5q-68 0 -101 -50t-33 -112q0 -11 1 -22.5t3 -22.5q10 -50 41 -92t87 -42
q5 0 10.5 0.5t10.5 1.5q25 4 47.5 18t35.5 35v1z" />
    <glyph glyph-name="r" unicode="r" horiz-adv-x="348" 
d="M52 356v24q30 10 58 23t55 29l13 -3v-90q2 2 4.5 5.5t5.5 7.5q19 27 45 49.5t62 22.5q3 0 6.5 -0.5t7.5 -0.5q9 -3 17 -8.5t8 -15.5q0 -5 -0.5 -11.5t-2.5 -13.5q-2 -12 -8 -22t-16 -10q-5 0 -10 1l-10 2q-2 0 -4.5 1t-5.5 2q-7 2 -14.5 3.5t-15.5 1.5q-21 0 -37 -13.5
t-23 -32.5q-4 -10 -5.5 -24t-2.5 -29q-1 -13 -1 -25.5v-22.5v-26v-26q-1 -14 -1 -27v-26q0 -35 8 -52t48 -17l10 1v-33q-26 1 -52.5 2.5t-52.5 1.5q-25 0 -49.5 -1.5t-49.5 -2.5v33q44 -1 56 12.5t12 55.5v15.5v15.5t-0.5 15.5t-0.5 15.5v28t1 28v28v28q0 39 -7 58t-48 22v1
z" />
    <glyph glyph-name="s" unicode="s" horiz-adv-x="336" 
d="M275 406l9 -85l-25 -4l-0.5 0.5t-0.5 1.5q-8 27 -26.5 49.5t-49.5 22.5q-25 0 -43.5 -15.5t-18.5 -41.5q0 -30 21 -50t50 -38q4 -3 8.5 -5.5t8.5 -5.5q33 -21 60.5 -47.5t27.5 -71.5q0 -57 -40.5 -90t-95.5 -33q-8 0 -15.5 0.5t-15.5 1.5q-20 2 -39 6.5t-37 11.5l-13 103
l27 5q8 -37 26.5 -67t61.5 -30q30 0 52 18t22 49q0 25 -17.5 42.5t-42.5 34.5q-7 4 -13.5 8.5t-13.5 8.5q-33 22 -60 49.5t-27 72.5q0 56 37.5 86.5t90.5 30.5q6 0 12 -0.5t11 -0.5q18 -2 35.5 -7t33.5 -11v1z" />
    <glyph glyph-name="t" unicode="t" horiz-adv-x="303" 
d="M140 521h27l-2 -126h128l-14 -40h-118v-121q1 -24 1 -47.5v-46.5v-10.5t1 -11.5q2 -31 15 -57.5t52 -26.5q14 0 27 3t26 8l10 -25q-21 -10 -43.5 -17t-45.5 -9q-5 -1 -9.5 -1h-9.5q-49 0 -72.5 24.5t-23.5 72.5v14t1 15v14v14v208h-55l7 28q35 24 61.5 59t36.5 78v1z" />
    <glyph glyph-name="u" unicode="u" horiz-adv-x="521" 
d="M484 39v-29q-32 -4 -63.5 -9t-62.5 -14l-12 13q3 15 5.5 31t2.5 32q-30 -30 -69 -52t-83 -22q-60 0 -83.5 40.5t-27.5 89.5q-1 7 -1 13.5v12.5v19.5t1 19.5v18.5v19.5v24t1 24v24v24q0 38 -12.5 51t-48.5 13v33q3 -2 6 -2h5q32 0 62.5 1t61.5 7q-3 -57 -4 -114t-1 -114
v-5v-5q1 -8 1 -16t1 -16q2 -38 17 -70t63 -32q32 0 59 13t52 32v159v15.5t1 16.5v16.5v16.5q0 37 -11.5 50.5t-49.5 13.5v33q2 -2 4 -2h4h7.5h7.5q4 -1 7.5 -1h7.5q25 0 49.5 2.5t48.5 6.5l-2 -19q-1 -32 -1.5 -63.5t-1.5 -62.5v-62.5v-62.5v-7.5v-7.5q0 -26 1.5 -48.5
t4.5 -29.5q5 -10 14.5 -13.5t19.5 -5.5q4 0 8 -0.5t8 -0.5h1.5h1.5v1z" />
    <glyph glyph-name="v" unicode="v" horiz-adv-x="438" 
d="M-3 385v34q12 -2 24 -3l24 -2q11 -1 23 -1h24q27 0 53.5 1t52.5 4v-33h-14q-1 -1 -1.5 -1h-1.5q-14 -1 -26 -6.5t-12 -19.5q0 -4 0.5 -7.5t1.5 -7.5q1 -6 3.5 -12.5t5.5 -12.5q2 -5 4 -9.5t3 -9.5l75 -186l58 139q3 7 7 15.5t8 18.5q2 4 4 8.5t3 9.5q6 13 9.5 25.5
t3.5 23.5q0 16 -11 22.5t-24 7.5q-5 1 -9 1h-8v35q22 -4 44 -5t44 -1q10 0 20 0.5t20 0.5l20 2l20 2v-33q-14 -2 -27.5 -5.5t-23.5 -14.5q-12 -13 -22.5 -31.5t-19.5 -38.5q-6 -13 -11 -26t-10 -24l-60 -141q-12 -29 -23.5 -57t-21.5 -56h-19q-2 7 -4.5 13t-5.5 12q0 3 -1 5
l-2 4q-6 18 -12.5 35.5t-14.5 34.5l-65 161q-4 8 -10 22.5t-13 29.5l-8 16t-7 15q-6 10 -11 17.5t-10 12.5q-8 7 -17.5 9.5t-18.5 4.5q-3 0 -5 0.5t-4 0.5z" />
    <glyph glyph-name="w" unicode="w" horiz-adv-x="615" 
d="M-3 385v33q20 -3 40.5 -4.5t40.5 -1.5q23 0 46.5 1.5t46.5 3.5v-32q-3 -1 -7 -1.5t-8 -1.5q-10 -2 -18.5 -7t-9.5 -16q0 -4 0.5 -7.5t2.5 -7.5q1 -5 3 -10t4 -9q1 -3 2.5 -5.5t2.5 -5.5l71 -193l78 182q-2 5 -4 10.5t-4 10.5q-10 25 -23.5 42t-46.5 18v34q12 -2 24.5 -3
t24.5 -2q12 0 24.5 -0.5t24.5 -0.5q13 0 26 0.5t26 0.5q12 1 25 2l26 2v-32q-3 -2 -7 -2.5t-8 -0.5q-2 0 -4.5 -0.5t-4.5 -0.5h-1.5h-1.5q-13 0 -24 -4t-12 -20q0 -9 2.5 -17t6.5 -16l80 -203l56 157q2 5 4 11l4 12q5 14 9.5 28t4.5 28q0 15 -7.5 19t-16.5 5h-1.5h-1.5
q-4 0 -8.5 1t-7.5 2v34q20 -2 39.5 -3.5t38.5 -1.5q9 0 17.5 0.5t16.5 0.5q8 1 16.5 1.5t17.5 1.5v-32q-27 -3 -41.5 -23t-24.5 -43q-3 -8 -6 -15.5t-6 -14.5l-68 -175q-11 -30 -21.5 -59.5t-20.5 -58.5h-19q-9 25 -19 51.5t-21 52.5l-64 156l-67 -155q-4 -11 -8.5 -21.5
t-8.5 -21.5q-7 -16 -13.5 -31.5t-12.5 -30.5h-18q-6 17 -12 34.5t-12 34.5q-1 3 -2.5 6.5t-2.5 7.5l-10 28l-10 28l-51 136q-2 4 -4 9.5t-4 11.5l-0.5 1t-0.5 2q-11 30 -26 56.5t-50 32.5z" />
    <glyph glyph-name="x" unicode="x" horiz-adv-x="449" 
d="M20 386v32q23 -3 46 -4.5t45 -1.5q24 0 47.5 1.5t46.5 3.5v-31h-9q-1 -1 -1.5 -1h-0.5q-2 0 -4 -0.5t-4 -0.5q-6 -1 -11 -3.5t-5 -8.5q0 -10 7.5 -24.5t17.5 -29.5q3 -4 5.5 -8t5.5 -7q9 -13 17.5 -24t13.5 -18q5 6 10 13t10 13q12 18 23.5 36t14.5 38q0 14 -9 18.5
t-21 4.5q-2 1 -4 1h-4v33q11 -2 21.5 -3t21.5 -2q11 0 21.5 -0.5t21.5 -0.5q20 0 38.5 1.5t37.5 3.5v-31q-40 -1 -70 -30.5t-54 -64.5q-10 -16 -19.5 -31t-18.5 -27l80 -118q4 -7 9 -15t10 -15q8 -12 17 -23.5t18 -18.5q7 -6 15 -8t16 -3h0.5h0.5q4 0 8 -1l8 -2v-29
q-22 1 -43.5 2.5t-43.5 1.5q-19 0 -38 -1l-38 -2q-6 -1 -12.5 -1h-12.5v30h8q2 -1 4.5 -1h4.5q9 1 16.5 4.5t7.5 13.5q0 2 -0.5 4t-0.5 4q-2 6 -5.5 12t-6.5 11q-2 2 -3.5 4.5t-3.5 4.5l-60 88q-5 -9 -15.5 -22.5t-21.5 -29.5q-2 -4 -4.5 -7.5t-5.5 -6.5q-12 -19 -21.5 -36
t-9.5 -27v0q0 -9 6.5 -12t14.5 -4q2 0 4.5 -0.5t4.5 -0.5h2h2l6 1v-30q-21 1 -42 2.5t-42 1.5q-10 0 -20 -0.5t-20 -0.5l-20 -2t-20 -1v30q30 2 49 12.5t35 28.5q5 6 10 13t11 14l78 106l-85 124q-7 9 -12 16.5t-10 13.5q-12 14 -25.5 20t-40.5 7v1z" />
    <glyph glyph-name="y" unicode="y" horiz-adv-x="432" 
d="M-3 386v32q12 -2 23.5 -3t22.5 -2q11 0 22.5 -0.5t23.5 -0.5q25 0 49.5 1.5t49.5 3.5v-31q-4 -1 -9.5 -1t-10.5 -1q-11 -2 -20.5 -7t-9.5 -17q0 -4 0.5 -7.5t1.5 -7.5q1 -8 4 -16t6 -15q1 -3 2.5 -6.5t2.5 -6.5l78 -203l54 142q3 6 6 13.5t6 15.5q9 20 16.5 42t7.5 44
q0 17 -12 23t-26 7h-6.5h-6.5v33q6 -1 11.5 -1.5t10.5 -1.5q6 0 11.5 -0.5t11.5 -0.5q11 -1 22 -1.5t22 -0.5q21 0 42 1.5t43 3.5v-31q-50 -7 -69 -35t-32 -66q-4 -11 -8 -22.5t-9 -23.5l-90 -224q-7 -18 -17.5 -44.5t-23.5 -54.5q-21 -46 -51 -85t-69 -39q-16 0 -29 11.5
t-13 28.5q0 19 14 28.5t30 12.5q3 1 5.5 1.5t5.5 0.5q36 5 56 32t34 59q3 8 6.5 16t6.5 16l1.5 3l1.5 3l-93 242l-18 42q-5 13 -9 24.5t-8 21.5q-9 23 -22.5 35t-47.5 16z" />
    <glyph glyph-name="z" unicode="z" horiz-adv-x="415" 
d="M62 433h19q11 -6 19 -10t16 -6q10 -3 21 -4t26 -1l218 1l5 -11l-265 -365q20 -2 40.5 -2.5t39.5 -0.5q58 0 92 7.5t63 48.5q4 6 8 12.5t8 14.5l26 -6l-35 -111q-25 1 -49.5 1h-49.5l-63 1q-22 -1 -44.5 -1h-44.5t-44.5 -0.5t-44.5 -0.5l-7 11q9 11 18.5 23.5t18.5 25.5
t18.5 25.5t18.5 24.5l193 270h-104q-44 -1 -70 -12.5t-40 -58.5l-29 5l22 119v0z" />
    <glyph glyph-name="braceleft" unicode="{" horiz-adv-x="500" 
d="M104 311v15q41 1 70 15.5t29 62.5q0 15 -0.5 30t-0.5 30q0 14 -0.5 29t-0.5 30q0 92 19.5 143t122.5 54h14.5t14.5 1h14.5h14.5v-21q-61 -2 -97 -21t-38 -90v-171q-1 -39 -19 -64.5t-57 -34.5v-2q42 -8 58 -40.5t19 -69.5v-7v-8q0 -19 -0.5 -38t-0.5 -37q0 -19 -0.5 -38
t-0.5 -38q0 -77 30.5 -104.5t105.5 -27.5v-22h-15q-81 1 -133.5 19.5t-52.5 118.5q0 33 0.5 66t1.5 66q0 17 0.5 33.5t0.5 32.5q0 53 -26 69t-73 18v1z" />
    <glyph glyph-name="bar" unicode="|" horiz-adv-x="500" 
d="M223 666h54v-833h-54v833v0z" />
    <glyph glyph-name="braceright" unicode="}" horiz-adv-x="500" 
d="M396 326v-15q-43 -3 -71 -18t-28 -65q0 -25 0.5 -50.5t1.5 -50.5q0 -26 0.5 -51t0.5 -51q0 -75 -33.5 -105t-107.5 -32h-14.5t-15.5 -1h-14.5h-15.5v22q63 0 98 21t36 89v45.5t1 45.5v45.5v45.5q1 42 15.5 74t60.5 41v4q-38 8 -56.5 33.5t-19.5 63.5v122q0 88 -21.5 123
t-113.5 37v23q2 -1 4.5 -1h4.5q2 -1 4.5 -1h4.5q93 0 137.5 -21t44.5 -139q0 -19 -0.5 -38.5t-0.5 -38.5t-0.5 -38.5t-0.5 -38.5q0 -49 28 -64t71 -17v1z" />
    <glyph glyph-name="asciitilde" unicode="~" horiz-adv-x="500" 
d="M457 400l16 -8q-22 -38 -60 -67.5t-84 -29.5q-25 0 -48.5 6.5t-46.5 14.5t-46.5 14.5t-48.5 6.5q-27 0 -46 -13.5t-36 -30.5l-4.5 -4.5l-4.5 -4.5l-2.5 -2.5l-2.5 -2.5l-16 10l0.5 0.5l1.5 1.5q25 35 60.5 64.5t81.5 29.5q24 0 46.5 -6t44.5 -14q22 -7 44.5 -13.5
t46.5 -6.5q32 0 58.5 15.5t45.5 38.5v1z" />
    <glyph glyph-name="glyph98" unicode="&#xa1;" horiz-adv-x="232" 
d="M102 257h27l17 -171q3 -32 6 -63t5 -62t3 -62.5t1 -62.5v-2.5v-2.5q-1 -22 -10.5 -39.5t-34.5 -17.5q-23 0 -33 16.5t-12 36.5v4.5v4.5q0 31 1 62.5t3 62.5t4.5 62t5.5 62l17 172v0zM60 404q0 22 16.5 38.5t39.5 16.5t39.5 -16.5t16.5 -39.5t-16.5 -39.5t-39.5 -16.5
t-39.5 16.5t-16.5 39.5v1z" />
    <glyph glyph-name="cent" unicode="&#xa2;" horiz-adv-x="467" 
d="M243 617h32v-60q23 -2 45 -6t42 -15q4 -2 9 -5l10 -6q10 -7 18 -15t8 -17q0 -11 -9 -20t-20 -12q-3 -1 -5.5 -1.5t-4.5 -0.5q-9 0 -18.5 10t-21.5 22q-11 11 -24 20.5t-29 10.5v-342q2 -1 4.5 -1t5.5 -1q32 0 59 12t50 33l18 -18q-25 -32 -61 -53.5t-76 -27.5v-57h-32v58
q-87 7 -134 67t-47 144q0 83 49 144t132 75v62v0zM243 523q-46 -10 -72 -48t-31 -82q-1 -7 -1.5 -13.5t-0.5 -12.5q0 -58 24.5 -107.5t80.5 -73.5v337v0z" />
    <glyph glyph-name="sterling" unicode="&#xa3;" horiz-adv-x="467" 
d="M54 353h93q-3 14 -5.5 28.5t-4.5 29.5t-3 29.5t-1 29.5q0 85 45 147.5t137 62.5q9 0 21 -2.5t25 -6.5q23 -8 42.5 -22t19.5 -32q0 -2 -0.5 -4t-1.5 -4q-3 -8 -10.5 -15.5t-16.5 -11.5q-3 -1 -6.5 -2t-6.5 -1q-2 0 -3.5 0.5t-2.5 1.5q-7 3 -14.5 12.5t-15.5 19.5
q-11 13 -24.5 23.5t-32.5 10.5q-35 0 -52 -26t-22 -57q-2 -10 -3 -21t-1 -20q0 -39 5 -78t12 -77q0 -4 0.5 -8t1.5 -8l145 1v-34h-140q0 -8 0.5 -15t0.5 -13q1 -7 1 -14v-14q0 -39 -3 -77.5t-14 -76.5q8 -3 15.5 -6t14.5 -6q3 -2 6 -3t6 -3q28 -12 56 -22t59 -10
q20 0 33.5 12t24.5 27q1 1 2 2.5t2 2.5l21 -16q-3 -6 -6 -11l-6 -10q-19 -29 -47 -53.5t-65 -24.5h-5.5t-5.5 1q-22 3 -43 15.5t-41 27.5q-9 7 -18.5 14.5t-17.5 13.5q-15 -29 -40.5 -49.5t-60.5 -20.5q-32 0 -57 20t-25 54q0 35 26.5 55.5t59.5 20.5q17 0 34 -3.5t32 -10.5
q0 3 0.5 6t0.5 6v5v6q0 34 -5 68t-10 67q-2 9 -3.5 17.5t-2.5 16.5l-99 1v34v0zM168 83q-1 0 -2 0.5t-2 1.5q-13 7 -28 13.5t-30 6.5q-19 0 -33.5 -10.5t-14.5 -30.5q0 -19 14 -29t30 -11h1.5h1.5q26 0 42 17t21 41v1z" />
    <glyph glyph-name="Idieresis" unicode="&#xa4;" horiz-adv-x="667" 
d="M65 102l91 91q-2 1 -3.5 3.5t-2.5 4.5q-22 32 -35 66t-13 75q0 40 15.5 77t35.5 71l-91 92l29 29l92 -91q32 24 71 38t80 14q42 0 78.5 -15.5t70.5 -38.5l93 94l29 -29l-93 -94q5 -9 9.5 -17t8.5 -16q15 -27 23.5 -55.5t8.5 -62.5q0 -40 -14.5 -75t-36.5 -68l94 -93
l-30 -30l-93 93q-34 -23 -70.5 -38t-78.5 -15q-41 0 -77 14.5t-70 36.5l-92 -91l-29 30v0zM505 342q0 70 -50 121t-121 51t-122 -51t-51 -122q0 -70 51.5 -120.5t121.5 -50.5t120.5 50.5t50.5 120.5v1z" />
    <glyph glyph-name="ae" unicode="&#xa5;" horiz-adv-x="467" 
d="M28 387h122l-64 164q-12 29 -29 52.5t-52 30.5v33q22 -3 43.5 -4.5t43.5 -1.5q27 0 54.5 1t55.5 4v-31q-4 -1 -8 -1.5t-8 -0.5q-12 -2 -22 -7.5t-10 -19.5q0 -17 5.5 -32.5t12.5 -30.5q1 -3 2 -5.5t2 -4.5l71 -201l60 180q2 7 5 14.5t6 15.5v1t1 2q5 14 10 28.5t5 30.5
q0 15 -10.5 21.5t-23.5 7.5q-3 1 -6.5 1h-6.5v33q25 -4 49.5 -5t49.5 -1q17 0 34.5 1.5t34.5 3.5v-31q-37 -3 -58 -30t-34 -59q-4 -10 -8 -20.5t-7 -20.5l-41 -118h125v-34h-137q-2 -7 -4.5 -13.5t-4.5 -12.5q-7 -18 -13 -37t-6 -38l165 1v-33h-165v-26.5v-25.5
q-1 -13 -1 -25.5v-25.5q0 -39 9.5 -62.5t55.5 -23.5l11 1v-32q-14 0 -28 1l-28 2q-14 0 -28 0.5t-28 0.5h-28t-28 -1q-15 -1 -29 -1.5t-28 -1.5v32q28 -1 50 9t24 42q1 10 1 19.5v19.5v98h-164v33h164v23l-30 77h-134v34v0z" />
    <glyph glyph-name="brokenbar" unicode="&#xa6;" 
 />
    <glyph glyph-name="section" unicode="&#xa7;" horiz-adv-x="467" 
d="M340 88q26 -22 45 -52.5t19 -64.5q0 -73 -52.5 -117.5t-122.5 -48.5h-12t-12 1q-36 2 -71 14t-61 39q-6 6 -10.5 12.5t-4.5 14.5q0 3 1 5.5t2 5.5q4 7 11 14t15 11q3 2 7 3t7 1q8 0 19 -13t26 -29q15 -15 35 -28t47 -13q45 0 73.5 31.5t28.5 75.5q0 39 -32 66t-75 53
q-9 5 -17.5 10t-17.5 10q-51 30 -94.5 67t-47.5 95v2v3q1 46 24.5 87t68.5 59q-23 21 -38 47t-18 57q0 73 47 116.5t119 43.5q32 0 62 -8t55 -29q8 -5 13.5 -12t5.5 -17q0 -3 -1 -6t-3 -7q-4 -6 -10 -12.5t-13 -9.5q-3 -1 -5.5 -2t-5.5 -1q-8 0 -18 10.5t-22 23.5
q-13 12 -29.5 22.5t-38.5 10.5q-37 0 -63.5 -25.5t-26.5 -63.5q0 -41 32.5 -68.5t76.5 -51.5q7 -5 15 -9.5t16 -8.5q53 -30 96.5 -68t43.5 -102q0 -46 -24 -85t-65 -60v1zM164 385q-26 -17 -42.5 -41t-16.5 -56q0 -31 23.5 -55t51.5 -42q13 -9 26 -16.5t23 -13.5
q22 -13 43 -26.5t41 -27.5q26 16 40.5 42t14.5 57q0 37 -35.5 68t-77.5 56q-26 16 -50.5 29.5t-40.5 24.5v1z" />
    <glyph glyph-name="dieresis" unicode="&#xa8;" horiz-adv-x="500" 
d="M215 566q0 -20 -13.5 -33.5t-32.5 -13.5t-34.5 13t-15.5 32q0 20 14 35.5t34 15.5t34 -15t14 -35v1zM381 566q0 -20 -13.5 -33.5t-32.5 -13.5t-34 13t-15 32q0 20 14 35.5t34 15.5t33.5 -15t13.5 -35v1z" />
    <glyph glyph-name="copyright" unicode="&#xa9;" horiz-adv-x="804" 
d="M402 -13q-143 0 -245 101.5t-102 244.5t102 244.5t245 101.5t244.5 -101.5t101.5 -244.5t-101.5 -244.5t-244.5 -101.5v0zM402 19q130 -1 222.5 91.5t92.5 222.5t-92.5 222.5t-222.5 92.5t-223 -92.5t-93 -222.5t93 -222.5t223 -92.5v1zM549 524v-116h-16q-11 40 -41 65
t-73 25q-68 0 -99 -51t-31 -113q0 -64 29.5 -114t102.5 -50q44 0 78 25.5t58 59.5v-35q-27 -35 -64.5 -55t-81.5 -20q-80 0 -134.5 50t-54.5 132q0 83 52.5 138.5t135.5 55.5q16 0 30 -4t27 -8q13 -5 24 -9t21 -4q6 0 11 5.5t7 11.5q1 2 1.5 4.5t0.5 4.5l17 2v0z" />
    <glyph glyph-name="ellipsis" unicode="&#xaa;" horiz-adv-x="311" 
d="M311 330v-33h-311v33h311v0zM299 531q0 -60 -44 -98.5t-101 -38.5q-61 0 -101.5 38.5t-40.5 100.5q0 61 44.5 100t102.5 39q62 0 101 -40.5t39 -101.5v1zM244 526q0 5 -0.5 11.5t-1.5 12.5q-6 35 -28 64t-61 29q-40 0 -62 -29.5t-22 -66.5q0 -8 0.5 -16t2.5 -17
q6 -34 26.5 -63t59.5 -29q44 0 65 31.5t21 71.5v1z" />
    <glyph glyph-name="ydieresis" unicode="&#xab;" horiz-adv-x="385" 
d="M195 88l-20 -17l-141 144v9l141 141l20 -19l-88 -128l88 -130v0zM345 88l-20 -17l-141 144v9l141 141l20 -19l-88 -128l88 -130v0z" />
    <glyph glyph-name="emdash" unicode="&#xac;" 
 />
    <glyph glyph-name="uni00AD" unicode="&#xad;" horiz-adv-x="500" 
 />
    <glyph glyph-name="registered" unicode="&#xae;" horiz-adv-x="804" 
d="M402 -13q-143 0 -245 101.5t-102 244.5t102 244.5t245 101.5t244.5 -101.5t101.5 -244.5t-101.5 -244.5t-244.5 -101.5v0zM402 19q130 -1 222.5 91.5t92.5 222.5t-92.5 222.5t-222.5 92.5t-223 -92.5t-93 -222.5t93 -222.5t223 -92.5v1zM520 152l-99 173h-74v-117
q0 -20 6 -30t27 -10l17 1v-17h-156v17q26 -1 37 5t11 33v253q0 18 -5.5 27.5t-27.5 9.5l-17 1v18h160q9 -1 18 -1.5t18 -1.5q42 -4 77 -25t35 -73q0 -36 -19 -56.5t-50 -33.5l76 -130q8 -14 19.5 -20.5t26.5 -6.5v-16h-80v0zM347 342h58q38 -1 60 15t22 58q0 39 -23.5 58.5
t-59.5 19.5l-57 1v-152v0z" />
    <glyph glyph-name="glyph263" unicode="&#xaf;" 
 />
    <glyph glyph-name="glyph264" unicode="&#xb0;" 
 />
    <glyph glyph-name="mu" unicode="&#xb1;" horiz-adv-x="500" 
d="M22 98h455v-43h-455v43v0zM22 375h205v193h44v-193h206v-43h-206v-190h-44v190h-205v43v0z" />
    <glyph glyph-name="uni00B2" unicode="&#xb2;" 
 />
    <glyph glyph-name="uni00B3" unicode="&#xb3;" 
 />
    <glyph glyph-name="acute" unicode="&#xb4;" horiz-adv-x="500" 
d="M243 661h67q1 -1 2.5 -1h2.5q4 -1 6.5 -2t2.5 -5v0q0 -4 -2 -6.5t-4 -5.5q-1 -2 -2 -3.5t-2 -2.5l-116 -155l-23 10l68 171v0z" />
    <glyph glyph-name="oslash" unicode="&#xb5;" horiz-adv-x="549" 
d="M460 457v-340v-8v-11t1 -11q1 -17 8.5 -32t27.5 -15q6 0 11.5 1.5t10.5 3.5q3 1 5.5 2.5t5.5 2.5v-15q-5 -4 -15 -10t-22 -13q-2 -1 -3.5 -2t-3.5 -2q-14 -8 -26.5 -13.5t-17.5 -5.5q-20 0 -30 15t-14 34q-2 9 -3 18t-2 16q-4 -3 -7.5 -7t-7.5 -7q-29 -28 -62 -50.5
t-75 -22.5q-46 0 -72 23t-40 64q0 -26 2 -51t5 -50q1 -6 1.5 -12t1.5 -12q2 -19 4.5 -38.5t3.5 -39.5q0 -4 -0.5 -9t-0.5 -9q-3 -16 -11 -28.5t-25 -12.5q-18 0 -26.5 13t-10.5 28q-1 4 -1 7.5v6.5q6 56 12.5 102.5t10.5 92.5q6 49 9 101t3 116v180h71v-286v-15t1 -14
q3 -42 20.5 -76.5t69.5 -34.5q41 0 69.5 24t50.5 55v347h71v0z" />
    <glyph glyph-name="paragraph" unicode="&#xb6;" horiz-adv-x="467" 
d="M211 -105v413q-81 -1 -140 44.5t-59 132.5q0 92 59.5 136t144.5 44l216 1v-26h-47v-745h-36v745h-103v-745h-35v0z" />
    <glyph glyph-name="glyph265" unicode="&#xb7;" 
 />
    <glyph glyph-name="glyph121" unicode="&#xb8;" horiz-adv-x="500" 
d="M296 0l-33 -38h4h4q25 -3 46 -17t21 -43q0 -37 -28 -57.5t-61 -26.5q-8 -2 -16 -2.5t-16 -0.5q-4 0 -10 0.5t-11 1.5q-12 2 -21.5 8t-9.5 17v1q1 7 7 12t13 5q6 0 12 -2.5t12 -5.5q1 0 1.5 -0.5t1.5 -0.5q5 -3 10 -5.5t11 -3.5q17 0 29.5 11.5t12.5 28.5q0 19 -13 29
t-30 10q-10 0 -19 -2.5t-17 -6.5l-9 19q20 16 38 33.5t36 35.5h35v0z" />
    <glyph glyph-name="uni00B9" unicode="&#xb9;" 
 />
    <glyph glyph-name="Agrave" unicode="&#xba;" horiz-adv-x="311" 
d="M311 330v-33h-311v33h311v0zM273 440l10 -16q-13 -11 -29 -19.5t-33 -8.5q-16 0 -25 10t-11 26q-16 -16 -36 -27.5t-43 -11.5q-28 0 -46 18t-18 45q0 28 25 44.5t55 26.5q18 6 34 10.5t28 8.5v20v8.5t-1 9.5q-1 19 -8.5 35t-27.5 16q-4 0 -10 -1t-12 -4q-11 -4 -20 -10.5
t-10 -15.5q-4 -18 -10.5 -22t-17.5 -6h-2h-2h-0.5h-1.5h-1.5h-0.5l-1 1q-4 -1 -5.5 1.5t-1.5 6.5q0 18 17 33.5t38 28.5q13 7 25 13.5t20 10.5q50 0 67 -27t17 -75q0 -13 -0.5 -26.5t-0.5 -26.5t-0.5 -26.5t-0.5 -26.5v-3.5v-3.5q1 -10 4 -19t13 -9q5 0 8.5 2t6.5 4q2 2 4 3
l4 2v1zM180 524q-7 -4 -16.5 -7t-18.5 -6q-20 -7 -36 -18t-16 -31q0 -13 10.5 -23t23.5 -10q15 0 27.5 8t22.5 18l1.5 1.5l1.5 1.5v66v0z" />
    <glyph glyph-name="Ydieresis" unicode="&#xbb;" horiz-adv-x="385" 
d="M40 348l20 17l141 -144v-9l-141 -141l-20 18l88 128l-88 131v0zM190 348l20 17l141 -144v-9l-141 -141l-20 18l88 128l-88 131v0z" />
    <glyph glyph-name="onequarter" unicode="&#xbc;" 
 />
    <glyph glyph-name="glyph243" unicode="&#xbd;" horiz-adv-x="737" 
d="M458 635h42l-222 -635h-42l222 635v0zM490 288l-23 12q17 34 49.5 60t72.5 26q41 0 69 -27.5t28 -68.5q0 -20 -9 -42t-24 -44q-14 -21 -32.5 -42.5t-37.5 -41.5l-40.5 -40.5l-34.5 -34.5q12 0 24.5 -0.5t24.5 -0.5h24.5h24.5q26 0 47.5 6t34.5 33l24 -5l-38 -78h-26.5
h-26.5h-26.5h-26.5h-30h-29h-30h-30l-9 18l35.5 35.5t41.5 44.5q17 19 34 40t31 42q19 28 30.5 55t11.5 51q0 26 -17.5 41.5t-41.5 15.5q-26 0 -44.5 -17.5t-30.5 -38.5v1zM174 650l16 -10q-3 -33 -3.5 -65.5t-0.5 -64.5v-156v-17v-8v-7q1 -10 2.5 -18.5t5.5 -13.5
q5 -6 13 -8.5t16 -2.5h3.5h2.5l11 1v-26q-10 0 -20.5 0.5t-20.5 0.5q-10 1 -20.5 1h-20.5h-20.5t-20.5 -1q-11 0 -21 -0.5t-21 -1.5v27q2 -1 4.5 -1t4.5 1h4.5h4.5h4t5 1q8 1 16 4t11 13q2 6 3 12.5t1 13.5v6.5v6.5v17v238q-12 -7 -24.5 -12.5t-25.5 -9.5l-13 25q7 2 13.5 5
t12.5 6q20 10 39.5 20.5t38.5 22.5v1z" />
    <glyph glyph-name="threequarters" unicode="&#xbe;" 
 />
    <glyph glyph-name="oe" unicode="&#xbf;" horiz-adv-x="314" 
d="M186 246h33v-171q-3 -1 -5.5 -1.5t-5.5 -0.5q-46 -7 -84.5 -31t-38.5 -78v-6.5t1 -6.5q4 -40 31 -73t70 -33q8 0 15.5 1t14.5 4q5 1 10 2.5t10 3.5q13 0 22 -11t13 -25q1 -3 1.5 -7t0.5 -8q0 -13 -9.5 -19t-21.5 -8q-4 0 -8.5 -0.5t-8.5 -0.5q-58 0 -108.5 50t-74.5 110
q-8 20 -12 39t-4 35v6.5t1 6.5q2 22 13 43.5t28 35.5l1.5 1.5t1.5 0.5q19 16 37.5 21.5t34.5 9.5q18 5 30 13.5t12 34.5v62v0zM142 404q0 22 16.5 38.5t39.5 16.5t39 -16.5t16 -39.5q0 -22 -16 -39t-39 -17t-39.5 17t-16.5 39v1z" />
    <glyph glyph-name="currency" unicode="&#xc0;" horiz-adv-x="640" 
d="M300 660l58 26q11 -37 21.5 -73t22.5 -71l107 -320q4 -13 7.5 -25t7.5 -23q8 -24 17 -47.5t19 -46.5q12 -26 31.5 -34t45.5 -12q0 -1 1 -1h2v-33q-29 1 -58.5 2.5t-58.5 1.5q-21 0 -42.5 -1t-42.5 -2q-8 -1 -15 -1h-14v34q2 -1 4.5 -1t4.5 1q4 0 8 0.5t8 0.5q14 2 25.5 8
t11.5 21q0 4 -0.5 8t-1.5 9q-1 7 -3.5 15t-4.5 15q-2 5 -3.5 9.5t-2.5 8.5l-44 138h-209l-36 -101q-2 -7 -4 -12.5t-4 -11.5q-7 -19 -13 -38.5t-6 -38.5q0 -15 11.5 -21.5t25.5 -8.5q6 -1 11 -1.5t10 -0.5h0.5h1.5h1.5h0.5v-33q-26 1 -52.5 2.5t-52.5 1.5q-25 0 -49.5 -1.5
t-48.5 -2.5l-1 34q3 -1 5.5 -0.5t5.5 0.5q9 1 17 2.5t16 4.5t16 13t17 24q9 16 18 35.5t17 39.5q13 32 23.5 60.5t15.5 42.5l75 200q9 25 19 50.5t20 50.5q9 26 19 51.5t19 50.5v1zM396 314l-82 256l-94 -256h176v0zM326 863l70 -171l-21 -10l-124 161l-0.5 0.5l-1.5 1.5
q-2 3 -3.5 6t-1.5 5t2.5 4t8.5 2l71 1v0z" />
    <glyph glyph-name="breve" unicode="&#xc1;" horiz-adv-x="640" 
d="M300 660l58 26q11 -37 21.5 -73t22.5 -71l107 -320q4 -13 7.5 -25t7.5 -23q8 -24 17 -47.5t19 -46.5q12 -26 31.5 -34t45.5 -12q0 -1 1 -1h2v-33q-29 1 -58.5 2.5t-58.5 1.5q-21 0 -42.5 -1t-42.5 -2q-8 -1 -15 -1h-14v34q2 -1 4.5 -1t4.5 1q4 0 8 0.5t8 0.5q14 2 25.5 8
t11.5 21q0 4 -0.5 8t-1.5 9q-1 7 -3.5 15t-4.5 15q-2 5 -3.5 9.5t-2.5 8.5l-44 138h-209l-36 -101q-2 -7 -4 -12.5t-4 -11.5q-7 -19 -13 -38.5t-6 -38.5q0 -15 11.5 -21.5t25.5 -8.5q6 -1 11 -1.5t10 -0.5h0.5h1.5h1.5h0.5v-33q-26 1 -52.5 2.5t-52.5 1.5q-25 0 -49.5 -1.5
t-48.5 -2.5l-1 34q3 -1 5.5 -0.5t5.5 0.5q9 1 17 2.5t16 4.5t16 13t17 24q9 16 18 35.5t17 39.5q13 32 23.5 60.5t15.5 42.5l75 200q9 25 19 50.5t20 50.5q9 26 19 51.5t19 50.5v1zM396 314l-82 256l-94 -256h176v0zM314 863h67q1 -1 2.5 -1h2.5q4 -1 6.5 -2t2.5 -5v0
q0 -4 -2 -6.5t-4 -5.5q-1 -2 -2 -3.5t-2 -2.5l-116 -155l-23 10l68 171v0z" />
    <glyph glyph-name="tilde" unicode="&#xc2;" horiz-adv-x="640" 
d="M300 660l58 26q11 -37 21.5 -73t22.5 -71l107 -320q4 -13 7.5 -25t7.5 -23q8 -24 17 -47.5t19 -46.5q12 -26 31.5 -34t45.5 -12q0 -1 1 -1h2v-33q-29 1 -58.5 2.5t-58.5 1.5q-21 0 -42.5 -1t-42.5 -2q-8 -1 -15 -1h-14v34q2 -1 4.5 -1t4.5 1q4 0 8 0.5t8 0.5q14 2 25.5 8
t11.5 21q0 4 -0.5 8t-1.5 9q-1 7 -3.5 15t-4.5 15q-2 5 -3.5 9.5t-2.5 8.5l-44 138h-209l-36 -101q-2 -7 -4 -12.5t-4 -11.5q-7 -19 -13 -38.5t-6 -38.5q0 -15 11.5 -21.5t25.5 -8.5q6 -1 11 -1.5t10 -0.5h0.5h1.5h1.5h0.5v-33q-26 1 -52.5 2.5t-52.5 1.5q-25 0 -49.5 -1.5
t-48.5 -2.5l-1 34q3 -1 5.5 -0.5t5.5 0.5q9 1 17 2.5t16 4.5t16 13t17 24q9 16 18 35.5t17 39.5q13 32 23.5 60.5t15.5 42.5l75 200q9 25 19 50.5t20 50.5q9 26 19 51.5t19 50.5v1zM396 314l-82 256l-94 -256h176v0zM294 867h51l86 -179l-18 -11l-95 116l-91 -116l-17 11
l84 179v0z" />
    <glyph glyph-name="guilsinglleft" unicode="&#xc3;" horiz-adv-x="640" 
d="M300 660l58 26q11 -37 21.5 -73t22.5 -71l107 -320q4 -13 7.5 -25t7.5 -23q8 -24 17 -47.5t19 -46.5q12 -26 31.5 -34t45.5 -12q0 -1 1 -1h2v-33q-29 1 -58.5 2.5t-58.5 1.5q-21 0 -42.5 -1t-42.5 -2q-8 -1 -15 -1h-14v34q2 -1 4.5 -1t4.5 1q4 0 8 0.5t8 0.5q14 2 25.5 8
t11.5 21q0 4 -0.5 8t-1.5 9q-1 7 -3.5 15t-4.5 15q-2 5 -3.5 9.5t-2.5 8.5l-44 138h-209l-36 -101q-2 -7 -4 -12.5t-4 -11.5q-7 -19 -13 -38.5t-6 -38.5q0 -15 11.5 -21.5t25.5 -8.5q6 -1 11 -1.5t10 -0.5h0.5h1.5h1.5h0.5v-33q-26 1 -52.5 2.5t-52.5 1.5q-25 0 -49.5 -1.5
t-48.5 -2.5l-1 34q3 -1 5.5 -0.5t5.5 0.5q9 1 17 2.5t16 4.5t16 13t17 24q9 16 18 35.5t17 39.5q13 32 23.5 60.5t15.5 42.5l75 200q9 25 19 50.5t20 50.5q9 26 19 51.5t19 50.5v1zM396 314l-82 256l-94 -256h176v0zM428 826h23q0 -9 -1.5 -18t-3.5 -19q-5 -24 -19 -44
t-40 -20q-16 0 -33 6t-34 13q-17 6 -35 12t-36 6q-16 0 -24 -12t-10 -26l-25 1q0 5 1 11.5t2 12.5q4 29 17.5 52.5t47.5 23.5q18 0 35 -6t34 -13q1 -1 2 -1.5t2 -0.5q15 -7 31 -12.5t33 -5.5q13 0 20.5 10t11.5 22q0 2 0.5 3.5t0.5 3.5v1z" />
    <glyph glyph-name="Adieresis" unicode="&#xc4;" horiz-adv-x="640" 
d="M300 660l58 26q11 -37 21.5 -73t22.5 -71l107 -320q4 -13 7.5 -25t7.5 -23q8 -24 17 -47.5t19 -46.5q12 -26 31.5 -34t45.5 -12q0 -1 1 -1h2v-33q-29 1 -58.5 2.5t-58.5 1.5q-21 0 -42.5 -1t-42.5 -2q-8 -1 -15 -1h-14v34q2 -1 4.5 -1t4.5 1q4 0 8 0.5t8 0.5q14 2 25.5 8
t11.5 21q0 4 -0.5 8t-1.5 9q-1 7 -3.5 15t-4.5 15q-2 5 -3.5 9.5t-2.5 8.5l-44 138h-209l-36 -101q-2 -7 -4 -12.5t-4 -11.5q-7 -19 -13 -38.5t-6 -38.5q0 -15 11.5 -21.5t25.5 -8.5q6 -1 11 -1.5t10 -0.5h0.5h1.5h1.5h0.5v-33q-26 1 -52.5 2.5t-52.5 1.5q-25 0 -49.5 -1.5
t-48.5 -2.5l-1 34q3 -1 5.5 -0.5t5.5 0.5q9 1 17 2.5t16 4.5t16 13t17 24q9 16 18 35.5t17 39.5q13 32 23.5 60.5t15.5 42.5l75 200q9 25 19 50.5t20 50.5q9 26 19 51.5t19 50.5v1zM396 314l-82 256l-94 -256h176v0zM285 780q0 -20 -13.5 -33.5t-32.5 -13.5t-34.5 13
t-15.5 32q0 20 14 35.5t34 15.5t34 -15t14 -35v1zM451 780q0 -20 -13.5 -33.5t-32.5 -13.5t-34 13t-15 32q0 20 14 35.5t34 15.5t33.5 -15t13.5 -35v1z" />
    <glyph glyph-name="Aring" unicode="&#xc5;" horiz-adv-x="640" 
d="M300 660l58 26q11 -37 21.5 -73t22.5 -71l107 -320q4 -13 7.5 -25t7.5 -23q8 -24 17 -47.5t19 -46.5q12 -26 31.5 -34t45.5 -12q0 -1 1 -1h2v-33q-29 1 -58.5 2.5t-58.5 1.5q-21 0 -42.5 -1t-42.5 -2q-8 -1 -15 -1h-14v34q2 -1 4.5 -1t4.5 1q4 0 8 0.5t8 0.5q14 2 25.5 8
t11.5 21q0 4 -0.5 8t-1.5 9q-1 7 -3.5 15t-4.5 15q-2 5 -3.5 9.5t-2.5 8.5l-44 138h-209l-36 -101q-2 -7 -4 -12.5t-4 -11.5q-7 -19 -13 -38.5t-6 -38.5q0 -15 11.5 -21.5t25.5 -8.5q6 -1 11 -1.5t10 -0.5h0.5h1.5h1.5h0.5v-33q-26 1 -52.5 2.5t-52.5 1.5q-25 0 -49.5 -1.5
t-48.5 -2.5l-1 34q3 -1 5.5 -0.5t5.5 0.5q9 1 17 2.5t16 4.5t16 13t17 24q9 16 18 35.5t17 39.5q13 32 23.5 60.5t15.5 42.5l75 200q9 25 19 50.5t20 50.5q9 26 19 51.5t19 50.5v1zM396 314l-82 256l-94 -256h176v0zM398 791q0 -32 -23 -55.5t-55 -23.5t-55 23.5t-23 55.5
t23.5 54t54.5 22q32 0 55 -22.5t23 -54.5v1zM365 793q0 17 -13.5 30t-31.5 13t-32 -12.5t-14 -31.5t13 -33.5t32 -14.5t32.5 14.5t13.5 33.5v1z" />
    <glyph glyph-name="Oslash" unicode="&#xc6;" horiz-adv-x="846" 
d="M246 634v33q63 -5 126 -6t127 -1q65 0 130.5 1t130.5 5q2 -34 5 -68t8 -68l-35 -6q-11 59 -37.5 79t-94.5 20q-11 0 -22 -0.5t-22 -0.5t-22 -0.5t-22 -0.5h-3h-3q-6 0 -12 -1.5t-8 -3.5q-2 -3 -3.5 -8.5t-1.5 -10.5v-3v-2v-14t1 -14v-14v-14v-175h94q56 -1 81 13t25 71
l37 1q-2 -26 -3.5 -50.5t-1.5 -49.5t1.5 -50.5t3.5 -51.5l-37 1q-3 40 -15.5 58t-57.5 18l-127 1v-148v-42q0 -58 17 -74t96 -16q81 0 125 14t69 96l34 -8l-34 -144h-28.5t-28.5 1q-14 0 -28 0.5t-28 0.5q-29 1 -57 1.5t-57 0.5q-61 0 -122 -1t-122 -3v35q38 -1 58.5 9.5
t21.5 52.5l1 67v158h-165l-45 -98q-5 -14 -11.5 -28t-13.5 -30q-3 -7 -6 -13.5t-6 -13.5q-8 -20 -14 -40t-6 -37q0 -18 12 -24t27 -7q5 -1 9.5 -1h8.5v-30q-25 1 -51.5 2.5t-52.5 1.5t-52.5 -1.5t-51.5 -2.5l-1 31q38 4 56 16t31 36q5 9 10.5 20.5t12.5 24.5l36 73l114 236
q5 9 13.5 27t18.5 38q2 4 4 8.5t4 8.5q11 27 20 50.5t9 35.5q0 16 -13.5 21.5t-29.5 6.5h-7.5h-7.5l-11 1v0zM405 361v262h-30l-117 -262h147v0z" />
    <glyph glyph-name="Ccedilla" unicode="&#xc7;" horiz-adv-x="679" 
d="M645 487l-33 -5q-24 82 -72.5 117t-135.5 35q-129 0 -198.5 -93t-69.5 -213q0 -121 73.5 -209t199.5 -88q94 0 141.5 40t70.5 127l35 -1l-23 -155q-45 -23 -93.5 -35t-97.5 -18q-6 0 -12.5 -1t-12.5 -1l-22 -25q3 0 6 -0.5t6 -0.5q23 -3 43 -17t20 -42q0 -38 -28.5 -58
t-62.5 -26q-8 -2 -16 -2.5t-15 -0.5q-4 0 -9.5 0.5t-11.5 1.5q-11 2 -20.5 7.5t-9.5 17.5v1q1 7 7 12t13 5q6 0 11 -2t10 -5q1 -1 2 -1.5l1 -0.5q6 -3 11.5 -6t12.5 -3q17 0 29.5 11.5t12.5 28.5q0 19 -13 29t-31 10q-9 0 -18 -2.5t-18 -6.5l-8 19q17 13 32 27.5t30 29.5
q-150 7 -245.5 97t-95.5 244q0 155 105 251t256 96q46 0 89.5 -10t87.5 -22q3 -1 6.5 -2t7.5 -2q9 -3 18.5 -5.5t18.5 -4.5l16 -143v0z" />
    <glyph glyph-name="ring" unicode="&#xc8;" horiz-adv-x="574" 
d="M501 530l-35 -8l-0.5 1t-0.5 2q-1 5 -2 10.5t-2 10.5q-3 15 -9 28.5t-17 22.5q-15 13 -36.5 18t-43.5 7q-11 1 -22 1h-21h-17.5h-16.5q-9 -1 -17.5 -1h-17.5q-21 0 -28 -4t-7 -25v-230h105q53 -1 78 11.5t25 68.5l35 1q-1 -26 -1.5 -51t-0.5 -51q0 -12 0.5 -24.5
t0.5 -24.5q1 -12 2 -24.5t2 -24.5l-38 1q-2 58 -26 67.5t-80 9.5l-102 1v-137v-38v-11v-10q1 -19 2.5 -36.5t6.5 -25.5q6 -10 16.5 -14t21.5 -6q18 -3 36 -3.5t36 -0.5l29 1q75 -1 110.5 16.5t56.5 93.5l34 -8l-34 -144q-30 0 -60.5 1t-60.5 2q-30 0 -60.5 0.5t-60.5 0.5
h-114q-31 -2 -61.5 -2.5t-62.5 -1.5v35q38 -1 58 9.5t21 52.5l1 67v339l-1 65q-1 43 -21 53t-58 10v36q28 -3 56 -4t56 -1q27 -1 55 -1h56t55.5 0.5t55.5 0.5q27 1 54.5 2t55.5 2l14 -136v0zM293 863l70 -171l-21 -10l-124 161l-0.5 0.5l-1.5 1.5q-2 3 -3.5 6t-1.5 5t2.5 4
t8.5 2l71 1v0z" />
    <glyph glyph-name="Eacute" unicode="&#xc9;" horiz-adv-x="574" 
d="M501 530l-35 -8l-0.5 1t-0.5 2q-1 5 -2 10.5t-2 10.5q-3 15 -9 28.5t-17 22.5q-15 13 -36.5 18t-43.5 7q-11 1 -22 1h-21h-17.5h-16.5q-9 -1 -17.5 -1h-17.5q-21 0 -28 -4t-7 -25v-230h105q53 -1 78 11.5t25 68.5l35 1q-1 -26 -1.5 -51t-0.5 -51q0 -12 0.5 -24.5
t0.5 -24.5q1 -12 2 -24.5t2 -24.5l-38 1q-2 58 -26 67.5t-80 9.5l-102 1v-137v-38v-11v-10q1 -19 2.5 -36.5t6.5 -25.5q6 -10 16.5 -14t21.5 -6q18 -3 36 -3.5t36 -0.5l29 1q75 -1 110.5 16.5t56.5 93.5l34 -8l-34 -144q-30 0 -60.5 1t-60.5 2q-30 0 -60.5 0.5t-60.5 0.5
h-114q-31 -2 -61.5 -2.5t-62.5 -1.5v35q38 -1 58 9.5t21 52.5l1 67v339l-1 65q-1 43 -21 53t-58 10v36q28 -3 56 -4t56 -1q27 -1 55 -1h56t55.5 0.5t55.5 0.5q27 1 54.5 2t55.5 2l14 -136v0zM281 863h67q1 -1 2.5 -1h2.5q4 -1 6.5 -2t2.5 -5v0q0 -4 -2 -6.5t-4 -5.5
q-1 -2 -2 -3.5t-2 -2.5l-116 -155l-23 10l68 171v0z" />
    <glyph glyph-name="macron" unicode="&#xca;" horiz-adv-x="574" 
d="M501 530l-35 -8l-0.5 1t-0.5 2q-1 5 -2 10.5t-2 10.5q-3 15 -9 28.5t-17 22.5q-15 13 -36.5 18t-43.5 7q-11 1 -22 1h-21h-17.5h-16.5q-9 -1 -17.5 -1h-17.5q-21 0 -28 -4t-7 -25v-230h105q53 -1 78 11.5t25 68.5l35 1q-1 -26 -1.5 -51t-0.5 -51q0 -12 0.5 -24.5
t0.5 -24.5q1 -12 2 -24.5t2 -24.5l-38 1q-2 58 -26 67.5t-80 9.5l-102 1v-137v-38v-11v-10q1 -19 2.5 -36.5t6.5 -25.5q6 -10 16.5 -14t21.5 -6q18 -3 36 -3.5t36 -0.5l29 1q75 -1 110.5 16.5t56.5 93.5l34 -8l-34 -144q-30 0 -60.5 1t-60.5 2q-30 0 -60.5 0.5t-60.5 0.5
h-114q-31 -2 -61.5 -2.5t-62.5 -1.5v35q38 -1 58 9.5t21 52.5l1 67v339l-1 65q-1 43 -21 53t-58 10v36q28 -3 56 -4t56 -1q27 -1 55 -1h56t55.5 0.5t55.5 0.5q27 1 54.5 2t55.5 2l14 -136v0zM261 867h51l86 -179l-18 -11l-95 116l-91 -116l-17 11l84 179v0z" />
    <glyph glyph-name="dotaccent" unicode="&#xcb;" horiz-adv-x="574" 
d="M501 530l-35 -8l-0.5 1t-0.5 2q-1 5 -2 10.5t-2 10.5q-3 15 -9 28.5t-17 22.5q-15 13 -36.5 18t-43.5 7q-11 1 -22 1h-21h-17.5h-16.5q-9 -1 -17.5 -1h-17.5q-21 0 -28 -4t-7 -25v-230h105q53 -1 78 11.5t25 68.5l35 1q-1 -26 -1.5 -51t-0.5 -51q0 -12 0.5 -24.5
t0.5 -24.5q1 -12 2 -24.5t2 -24.5l-38 1q-2 58 -26 67.5t-80 9.5l-102 1v-137v-38v-11v-10q1 -19 2.5 -36.5t6.5 -25.5q6 -10 16.5 -14t21.5 -6q18 -3 36 -3.5t36 -0.5l29 1q75 -1 110.5 16.5t56.5 93.5l34 -8l-34 -144q-30 0 -60.5 1t-60.5 2q-30 0 -60.5 0.5t-60.5 0.5
h-114q-31 -2 -61.5 -2.5t-62.5 -1.5v35q38 -1 58 9.5t21 52.5l1 67v339l-1 65q-1 43 -21 53t-58 10v36q28 -3 56 -4t56 -1q27 -1 55 -1h56t55.5 0.5t55.5 0.5q27 1 54.5 2t55.5 2l14 -136v0zM252 780q0 -20 -13.5 -33.5t-32.5 -13.5t-34.5 13t-15.5 32q0 20 14 35.5t34 15.5
t34 -15t14 -35v1zM418 780q0 -20 -13.5 -33.5t-32.5 -13.5t-34 13t-15 32q0 20 14 35.5t34 15.5t33.5 -15t13.5 -35v1z" />
    <glyph glyph-name="caron" unicode="&#xcc;" horiz-adv-x="328" 
d="M42 632v35q15 -2 30.5 -3t31.5 -2t31.5 -1h30.5q31 0 61 1.5t60 3.5v-34h-12q-36 -1 -52 -13.5t-17 -51.5l-1 -64v-339l1 -66q1 -44 22.5 -54t58.5 -10v-34q-15 0 -30.5 1t-30.5 2q-15 0 -30.5 0.5t-30.5 0.5q-31 0 -61.5 -1.5t-61.5 -2.5v35q38 -1 59 9t22 53l1 67v339
l-1 65q-1 43 -22 53t-59 10v1zM170 863l70 -171l-21 -10l-124 161l-0.5 0.5l-1.5 1.5q-2 3 -3.5 6t-1.5 5t2.5 4t8.5 2l71 1v0z" />
    <glyph glyph-name="cedilla" unicode="&#xcd;" horiz-adv-x="328" 
d="M42 632v35q15 -2 30.5 -3t31.5 -2t31.5 -1h30.5q31 0 61 1.5t60 3.5v-34h-12q-36 -1 -52 -13.5t-17 -51.5l-1 -64v-339l1 -66q1 -44 22.5 -54t58.5 -10v-34q-15 0 -30.5 1t-30.5 2q-15 0 -30.5 0.5t-30.5 0.5q-31 0 -61.5 -1.5t-61.5 -2.5v35q38 -1 59 9t22 53l1 67v339
l-1 65q-1 43 -22 53t-59 10v1zM159 863h67q1 -1 2.5 -1h2.5q4 -1 6.5 -2t2.5 -5v0q0 -4 -2 -6.5t-4 -5.5q-1 -2 -2 -3.5t-2 -2.5l-116 -155l-23 10l68 171v0z" />
    <glyph glyph-name="hungarumlaut" unicode="&#xce;" horiz-adv-x="328" 
d="M42 632v35q15 -2 30.5 -3t31.5 -2t31.5 -1h30.5q31 0 61 1.5t60 3.5v-34h-12q-36 -1 -52 -13.5t-17 -51.5l-1 -64v-339l1 -66q1 -44 22.5 -54t58.5 -10v-34q-15 0 -30.5 1t-30.5 2q-15 0 -30.5 0.5t-30.5 0.5q-31 0 -61.5 -1.5t-61.5 -2.5v35q38 -1 59 9t22 53l1 67v339
l-1 65q-1 43 -22 53t-59 10v1zM138 867h51l86 -179l-18 -11l-95 116l-91 -116l-17 11l84 179v0z" />
    <glyph glyph-name="ogonek" unicode="&#xcf;" horiz-adv-x="328" 
d="M42 632v35q15 -2 30.5 -3t31.5 -2t31.5 -1h30.5q31 0 61 1.5t60 3.5v-34h-12q-36 -1 -52 -13.5t-17 -51.5l-1 -64v-339l1 -66q1 -44 22.5 -54t58.5 -10v-34q-15 0 -30.5 1t-30.5 2q-15 0 -30.5 0.5t-30.5 0.5q-31 0 -61.5 -1.5t-61.5 -2.5v35q38 -1 59 9t22 53l1 67v339
l-1 65q-1 43 -22 53t-59 10v1zM129 762q0 -20 -13.5 -33.5t-32.5 -13.5t-34.5 13t-15.5 32q0 20 14 35.5t34 15.5t34 -15t14 -35v1zM295 762q0 -20 -13.5 -33.5t-32.5 -13.5t-34 13t-15 32q0 20 14 35.5t34 15.5t33.5 -15t13.5 -35v1z" />
    <glyph glyph-name="glyph232" unicode="&#xd0;" horiz-adv-x="743" 
d="M123 367v135l-1 66q-1 42 -21 52.5t-57 10.5v35q6 -1 12 -1.5t11 -1.5l36 -2t36 -1q35 0 70.5 1t70.5 2q35 0 70.5 1t70.5 1q139 0 210.5 -98.5t71.5 -226.5q0 -70 -24 -136t-75 -116q-55 -55 -118.5 -72.5t-138.5 -17.5q-22 0 -44.5 1t-44.5 2t-44.5 2t-44.5 1
q-32 0 -64.5 -1.5t-64.5 -2.5v34q38 -1 59.5 9.5t22.5 53.5l1 66v161h-83v43h83v0zM207 367h185v-43h-185v-115v-50q0 -17 0.5 -32.5t2.5 -31.5q2 -12 7 -22.5t15 -17.5q9 -5 22 -8t27 -4q12 -1 23.5 -1.5t20.5 -0.5h6h6q49 1 97 12t86 47q44 41 65.5 97.5t24.5 115.5
q1 7 1 13v12q0 139 -80 211.5t-216 72.5q-13 0 -26.5 -0.5t-26.5 -1.5h-5.5h-5.5q-11 -1 -21.5 -1.5t-21.5 -0.5v-22v-21q-1 -11 -1 -22v-22v-164v0z" />
    <glyph glyph-name="Ntilde" unicode="&#xd1;" horiz-adv-x="760" 
d="M40 667q11 -2 21.5 -2.5t21.5 -1.5q11 0 21.5 -0.5t21.5 -0.5q10 0 19.5 0.5t19.5 0.5q9 1 18.5 1.5t19.5 1.5l395 -518v232v58l-4 103q-1 52 -13.5 71t-67.5 20v35q13 -2 26.5 -3t26.5 -2t26.5 -1h26.5q14 0 27 0.5t27 0.5q13 1 26.5 2t26.5 2v-33q-4 -1 -9 -1h-9
q-10 -1 -19 -3t-17 -7q-11 -8 -16.5 -22t-7.5 -29q-1 -9 -1 -18v-16v-5l-2 -105l-4 -443h-18l-456 589l2 -295v-14.5v-13.5q1 -39 2 -78.5t5 -78.5q5 -40 23 -50.5t55 -10.5v-32q-14 0 -28 1l-28 2q-15 0 -29 0.5t-28 0.5q-13 0 -25.5 -0.5t-24.5 -1.5q-7 0 -13 -0.5
t-13 -0.5q-6 -1 -12.5 -1h-12.5v33q57 -1 67 26.5t11 73.5v2.5v2.5l2 72l4 301v34q0 55 -17 69t-67 18v35v0zM488 826h23q0 -9 -1.5 -18t-3.5 -19q-5 -24 -19 -44t-40 -20q-16 0 -33 6t-34 13q-17 6 -35 12t-36 6q-16 0 -24 -12t-10 -26l-25 1q0 5 1 11.5t2 12.5
q4 29 17.5 52.5t47.5 23.5q18 0 35 -6t34 -13q1 -1 2 -1.5t2 -0.5q15 -7 31 -12.5t33 -5.5q13 0 20.5 10t11.5 22q0 2 0.5 3.5t0.5 3.5v1z" />
    <glyph glyph-name="scaron" unicode="&#xd2;" 
 />
    <glyph glyph-name="Lslash" unicode="&#xd3;" horiz-adv-x="774" 
d="M734 334q0 -149 -100.5 -246.5t-248.5 -97.5q-149 0 -247 99t-98 247q0 147 103.5 243.5t247.5 96.5q146 0 244.5 -98.5t98.5 -244.5v1zM641 324q0 12 -1 25.5t-3 26.5q-14 98 -77.5 179t-169.5 81q-124 0 -190 -90t-66 -204q0 -8 0.5 -16.5t0.5 -16.5q10 -106 75.5 -194
t182.5 -88q121 0 183.5 90.5t64.5 199.5v3.5v2.5v1zM381 863h67q1 -1 2.5 -1h2.5q4 -1 6.5 -2t2.5 -5v0q0 -4 -2 -6.5t-4 -5.5q-1 -2 -2 -3.5t-2 -2.5l-116 -155l-23 10l68 171v0z" />
    <glyph glyph-name="lslash" unicode="&#xd4;" horiz-adv-x="774" 
d="M734 334q0 -149 -100.5 -246.5t-248.5 -97.5q-149 0 -247 99t-98 247q0 147 103.5 243.5t247.5 96.5q146 0 244.5 -98.5t98.5 -244.5v1zM641 324q0 12 -1 25.5t-3 26.5q-14 98 -77.5 179t-169.5 81q-124 0 -190 -90t-66 -204q0 -8 0.5 -16.5t0.5 -16.5q10 -106 75.5 -194
t182.5 -88q121 0 183.5 90.5t64.5 199.5v3.5v2.5v1zM361 867h51l86 -179l-18 -11l-95 116l-91 -116l-17 11l84 179v0z" />
    <glyph glyph-name="guilsinglright" unicode="&#xd5;" horiz-adv-x="774" 
d="M734 334q0 -149 -100.5 -246.5t-248.5 -97.5q-149 0 -247 99t-98 247q0 147 103.5 243.5t247.5 96.5q146 0 244.5 -98.5t98.5 -244.5v1zM641 324q0 12 -1 25.5t-3 26.5q-14 98 -77.5 179t-169.5 81q-124 0 -190 -90t-66 -204q0 -8 0.5 -16.5t0.5 -16.5q10 -106 75.5 -194
t182.5 -88q121 0 183.5 90.5t64.5 199.5v3.5v2.5v1zM495 826h23q0 -9 -1.5 -18t-3.5 -19q-5 -24 -19 -44t-40 -20q-16 0 -33 6t-34 13q-17 6 -35 12t-36 6q-16 0 -24 -12t-10 -26l-25 1q0 5 1 11.5t2 12.5q4 29 17.5 52.5t47.5 23.5q18 0 35 -6t34 -13q1 -1 2 -1.5t2 -0.5
q15 -7 31 -12.5t33 -5.5q13 0 20.5 10t11.5 22q0 2 0.5 3.5t0.5 3.5v1z" />
    <glyph glyph-name="Odieresis" unicode="&#xd6;" horiz-adv-x="774" 
d="M734 334q0 -149 -100.5 -246.5t-248.5 -97.5q-149 0 -247 99t-98 247q0 147 103.5 243.5t247.5 96.5q146 0 244.5 -98.5t98.5 -244.5v1zM641 324q0 12 -1 25.5t-3 26.5q-14 98 -77.5 179t-169.5 81q-124 0 -190 -90t-66 -204q0 -8 0.5 -16.5t0.5 -16.5q10 -106 75.5 -194
t182.5 -88q121 0 183.5 90.5t64.5 199.5v3.5v2.5v1zM352 780q0 -20 -13.5 -33.5t-32.5 -13.5t-34.5 13t-15.5 32q0 20 14 35.5t34 15.5t34 -15t14 -35v1zM518 780q0 -20 -13.5 -33.5t-32.5 -13.5t-34 13t-15 32q0 20 14 35.5t34 15.5t33.5 -15t13.5 -35v1z" />
    <glyph glyph-name="multiply" unicode="&#xd7;" 
 />
    <glyph glyph-name="plusminus" unicode="&#xd8;" horiz-adv-x="773" 
d="M613 700l33 -24l-47 -67q63 -50 98.5 -122.5t35.5 -152.5q0 -148 -99 -246t-248 -98q-46 0 -91 10.5t-86 33.5l-53 -77l-34 23l52 77q-64 57 -99 124t-35 155q0 146 102.5 243t246.5 97q31 0 57 -4.5t51 -12.5q17 -6 33.5 -13t34.5 -15l48 69v0zM245 82q26 -24 60 -38
t69 -16q5 -1 9.5 -1h8.5q124 0 186.5 92t62.5 204q0 12 -1 24t-2 23q-6 50 -25.5 98t-51.5 85l-316 -471v0zM530 585q-27 22 -60.5 35.5t-67.5 15.5h-6h-6q-126 0 -190.5 -89.5t-64.5 -205.5q0 -62 19.5 -121.5t59.5 -107.5l316 473v0z" />
    <glyph glyph-name="Thorn" unicode="&#xd9;" horiz-adv-x="728" 
d="M32 633v34q13 -2 26.5 -3t26.5 -2t26.5 -1h26.5q33 0 65.5 1.5t64.5 3.5v-33q-2 -1 -3.5 -1h-3.5q-4 0 -7.5 -0.5t-7.5 -0.5q-12 -1 -22.5 -4t-18.5 -11q-8 -9 -11.5 -22t-4.5 -28v-8.5v-8.5v-25v-219q0 -106 29 -190.5t159 -84.5q132 0 166 78.5t34 188.5v39v109l-1 75
v5v6q-1 44 -10.5 72.5t-66.5 28.5v35q23 -4 47 -5t48 -1q25 0 49.5 1t49.5 4v-33q-46 -1 -56.5 -30.5t-10.5 -70.5v-22v-22q-1 -11 -1 -22v-22v-126q0 -140 -45.5 -236.5t-212.5 -96.5q-11 0 -21.5 0.5t-21.5 1.5q-57 5 -109.5 27.5t-81.5 76.5q-11 20 -16.5 43.5t-7.5 48.5
q-1 18 -1.5 36t-0.5 34v243v30q0 46 -10 76t-65 30v1zM370 863l70 -171l-21 -10l-124 161l-0.5 0.5l-1.5 1.5q-2 3 -3.5 6t-1.5 5t2.5 4t8.5 2l71 1v0z" />
    <glyph glyph-name="Eth" unicode="&#xda;" horiz-adv-x="728" 
d="M32 633v34q13 -2 26.5 -3t26.5 -2t26.5 -1h26.5q33 0 65.5 1.5t64.5 3.5v-33q-2 -1 -3.5 -1h-3.5q-4 0 -7.5 -0.5t-7.5 -0.5q-12 -1 -22.5 -4t-18.5 -11q-8 -9 -11.5 -22t-4.5 -28v-8.5v-8.5v-25v-219q0 -106 29 -190.5t159 -84.5q132 0 166 78.5t34 188.5v39v109l-1 75
v5v6q-1 44 -10.5 72.5t-66.5 28.5v35q23 -4 47 -5t48 -1q25 0 49.5 1t49.5 4v-33q-46 -1 -56.5 -30.5t-10.5 -70.5v-22v-22q-1 -11 -1 -22v-22v-126q0 -140 -45.5 -236.5t-212.5 -96.5q-11 0 -21.5 0.5t-21.5 1.5q-57 5 -109.5 27.5t-81.5 76.5q-11 20 -16.5 43.5t-7.5 48.5
q-1 18 -1.5 36t-0.5 34v243v30q0 46 -10 76t-65 30v1zM358 864h67q1 -1 2.5 -1h2.5q4 -1 6.5 -2t2.5 -5v0q0 -4 -2 -6.5t-4 -5.5q-1 -2 -2 -3.5t-2 -2.5l-116 -155l-23 10l68 171v0z" />
    <glyph glyph-name="eth" unicode="&#xdb;" horiz-adv-x="728" 
d="M32 633v34q13 -2 26.5 -3t26.5 -2t26.5 -1h26.5q33 0 65.5 1.5t64.5 3.5v-33q-2 -1 -3.5 -1h-3.5q-4 0 -7.5 -0.5t-7.5 -0.5q-12 -1 -22.5 -4t-18.5 -11q-8 -9 -11.5 -22t-4.5 -28v-8.5v-8.5v-25v-219q0 -106 29 -190.5t159 -84.5q132 0 166 78.5t34 188.5v39v109l-1 75
v5v6q-1 44 -10.5 72.5t-66.5 28.5v35q23 -4 47 -5t48 -1q25 0 49.5 1t49.5 4v-33q-46 -1 -56.5 -30.5t-10.5 -70.5v-22v-22q-1 -11 -1 -22v-22v-126q0 -140 -45.5 -236.5t-212.5 -96.5q-11 0 -21.5 0.5t-21.5 1.5q-57 5 -109.5 27.5t-81.5 76.5q-11 20 -16.5 43.5t-7.5 48.5
q-1 18 -1.5 36t-0.5 34v243v30q0 46 -10 76t-65 30v1zM338 867h51l86 -179l-18 -11l-95 116l-91 -116l-17 11l84 179v0z" />
    <glyph glyph-name="Udieresis" unicode="&#xdc;" horiz-adv-x="728" 
d="M32 633v34q13 -2 26.5 -3t26.5 -2t26.5 -1h26.5q33 0 65.5 1.5t64.5 3.5v-33q-2 -1 -3.5 -1h-3.5q-4 0 -7.5 -0.5t-7.5 -0.5q-12 -1 -22.5 -4t-18.5 -11q-8 -9 -11.5 -22t-4.5 -28v-8.5v-8.5v-25v-219q0 -106 29 -190.5t159 -84.5q132 0 166 78.5t34 188.5v39v109l-1 75
v5v6q-1 44 -10.5 72.5t-66.5 28.5v35q23 -4 47 -5t48 -1q25 0 49.5 1t49.5 4v-33q-46 -1 -56.5 -30.5t-10.5 -70.5v-22v-22q-1 -11 -1 -22v-22v-126q0 -140 -45.5 -236.5t-212.5 -96.5q-11 0 -21.5 0.5t-21.5 1.5q-57 5 -109.5 27.5t-81.5 76.5q-11 20 -16.5 43.5t-7.5 48.5
q-1 18 -1.5 36t-0.5 34v243v30q0 46 -10 76t-65 30v1zM329 780q0 -20 -13.5 -33.5t-32.5 -13.5t-34.5 13t-15.5 32q0 20 14 35.5t34 15.5t34 -15t14 -35v1zM495 780q0 -20 -13.5 -33.5t-32.5 -13.5t-34 13t-15 32q0 20 14 35.5t34 15.5t33.5 -15t13.5 -35v1z" />
    <glyph glyph-name="Yacute" unicode="&#xdd;" 
 />
    <glyph glyph-name="glyph236" unicode="&#xde;" horiz-adv-x="517" 
d="M207 519v-355l1 -66q1 -46 23 -55t60 -9v-34q-15 0 -30 1l-30 2q-16 0 -31 0.5t-30 0.5q-32 0 -64.5 -1.5t-64.5 -2.5v35q38 -1 59 9t22 53l2 67v319l-1 43v6.5v7.5q-1 50 -12 70.5t-69 20.5v36q15 -2 30.5 -3t31.5 -2t31.5 -1h30.5t30 0.5t31 0.5l30 2l30 2v-34h-12
q-36 -1 -52 -13.5t-17 -51.5v-10q14 0 28.5 0.5t29.5 0.5q14 1 28.5 1h28.5q80 0 126.5 -47.5t46.5 -127.5q0 -100 -70.5 -152.5t-162.5 -52.5v34q69 3 110.5 44t41.5 111q0 79 -47.5 115t-120.5 36h-18.5t-19.5 -1v1z" />
    <glyph glyph-name="germandbls" unicode="&#xdf;" horiz-adv-x="516" 
d="M107 375h-58l9 31q38 2 47.5 25t13.5 52q0 5 1 9.5t1 9.5q1 1 1 1.5v1.5q13 79 71 138t141 59q55 0 95 -34t40 -91q0 -48 -21.5 -82t-46.5 -59q-16 -16 -30.5 -29.5t-24.5 -26.5q-6 -9 -10 -18t-4 -18q0 -16 9.5 -30t25.5 -28q10 -9 21.5 -18.5t24.5 -18.5
q30 -25 55 -54.5t25 -70.5q0 -55 -37.5 -93t-93.5 -38q-8 0 -17.5 1.5t-19.5 4.5q-25 6 -45.5 22.5t-20.5 42.5q0 15 10.5 27t26.5 12q17 0 24.5 -10.5t13.5 -23.5q0 -1 0.5 -2l0.5 -1q6 -15 15 -26.5t30 -11.5q25 0 40 17t15 40q0 30 -24.5 55t-54.5 49q-1 1 -2 1.5t-2 1.5
q-31 24 -57 50.5t-26 57.5q0 27 15 49t35 44q5 4 9.5 9t9.5 10q24 25 45.5 54t22.5 67q0 6 -0.5 11.5t-0.5 11.5q-6 40 -30 73.5t-70 33.5q-55 0 -82.5 -39t-35.5 -88q-4 -27 -6.5 -54.5t-2.5 -55.5q-1 -14 -1 -27.5v-27.5v-29v-179v-17v-16q-1 -8 -1 -16v-16q0 -35 9.5 -51
t47.5 -16l7 1v-32q-24 1 -48 2.5t-48 1.5q-20 0 -39.5 -1t-39.5 -2q-6 -1 -12.5 -1h-13.5v32q42 -1 55.5 12t13.5 55v16v16q-1 7 -1 15v16v213v0z" />
    <glyph glyph-name="agrave" unicode="&#xe0;" horiz-adv-x="415" 
d="M389 52l12 -19q-19 -16 -42 -27.5t-48 -11.5q-29 0 -39.5 18t-12.5 43q-25 -27 -56 -46.5t-69 -19.5q-41 0 -67.5 27.5t-26.5 67.5q0 42 28.5 62t62.5 32l10 4l10 4l107 40v33q0 9 -0.5 20.5t-2.5 24.5q-3 26 -15.5 48.5t-42.5 22.5q-7 0 -16 -2t-19 -6q-17 -7 -32.5 -19
t-16.5 -27q-3 -23 -15 -31t-36 -10q-4 0 -6.5 2.5t-2.5 6.5q0 22 10.5 37t27.5 27q9 6 19.5 13.5t21.5 15.5q9 6 18.5 12.5t19.5 11.5q13 7 26.5 12t25.5 5q65 0 85 -44t21 -97v-4v-4q0 -22 -0.5 -44t-0.5 -44q0 -23 -0.5 -45t-0.5 -44v-8v-8q2 -17 8 -31.5t22 -14.5
q6 0 12.5 3t11.5 7q2 2 4.5 3.5t4.5 2.5v1zM258 198q-12 -5 -27 -10t-30 -11q-32 -12 -58.5 -31t-26.5 -52q0 -23 16 -40t40 -17t44 13.5t37 29.5l2.5 2.5l2.5 2.5v113v0zM213 661l70 -171l-21 -10l-124 161l-0.5 0.5l-1.5 1.5q-2 3 -3.5 6t-1.5 5t2.5 4t8.5 2l71 1v0z" />
    <glyph glyph-name="aacute" unicode="&#xe1;" horiz-adv-x="415" 
d="M389 52l12 -19q-19 -16 -42 -27.5t-48 -11.5q-29 0 -39.5 18t-12.5 43q-25 -27 -56 -46.5t-69 -19.5q-41 0 -67.5 27.5t-26.5 67.5q0 42 28.5 62t62.5 32l10 4l10 4l107 40v33q0 9 -0.5 20.5t-2.5 24.5q-3 26 -15.5 48.5t-42.5 22.5q-7 0 -16 -2t-19 -6q-17 -7 -32.5 -19
t-16.5 -27q-3 -23 -15 -31t-36 -10q-4 0 -6.5 2.5t-2.5 6.5q0 22 10.5 37t27.5 27q9 6 19.5 13.5t21.5 15.5q9 6 18.5 12.5t19.5 11.5q13 7 26.5 12t25.5 5q65 0 85 -44t21 -97v-4v-4q0 -22 -0.5 -44t-0.5 -44q0 -23 -0.5 -45t-0.5 -44v-8v-8q2 -17 8 -31.5t22 -14.5
q6 0 12.5 3t11.5 7q2 2 4.5 3.5t4.5 2.5v1zM258 198q-12 -5 -27 -10t-30 -11q-32 -12 -58.5 -31t-26.5 -52q0 -23 16 -40t40 -17t44 13.5t37 29.5l2.5 2.5l2.5 2.5v113v0zM201 662h67q1 -1 2.5 -1h2.5q4 -1 6.5 -2t2.5 -5v0q0 -4 -2 -6.5t-4 -5.5q-1 -2 -2 -3.5t-2 -2.5
l-116 -155l-23 10l68 171v0z" />
    <glyph glyph-name="acircumflex" unicode="&#xe2;" horiz-adv-x="415" 
d="M389 52l12 -19q-19 -16 -42 -27.5t-48 -11.5q-29 0 -39.5 18t-12.5 43q-25 -27 -56 -46.5t-69 -19.5q-41 0 -67.5 27.5t-26.5 67.5q0 42 28.5 62t62.5 32l10 4l10 4l107 40v33q0 9 -0.5 20.5t-2.5 24.5q-3 26 -15.5 48.5t-42.5 22.5q-7 0 -16 -2t-19 -6q-17 -7 -32.5 -19
t-16.5 -27q-3 -23 -15 -31t-36 -10q-4 0 -6.5 2.5t-2.5 6.5q0 22 10.5 37t27.5 27q9 6 19.5 13.5t21.5 15.5q9 6 18.5 12.5t19.5 11.5q13 7 26.5 12t25.5 5q65 0 85 -44t21 -97v-4v-4q0 -22 -0.5 -44t-0.5 -44q0 -23 -0.5 -45t-0.5 -44v-8v-8q2 -17 8 -31.5t22 -14.5
q6 0 12.5 3t11.5 7q2 2 4.5 3.5t4.5 2.5v1zM258 198q-12 -5 -27 -10t-30 -11q-32 -12 -58.5 -31t-26.5 -52q0 -23 16 -40t40 -17t44 13.5t37 29.5l2.5 2.5l2.5 2.5v113v0zM181 666h51l86 -179l-18 -11l-95 116l-91 -116l-17 11l84 179v0z" />
    <glyph glyph-name="atilde" unicode="&#xe3;" horiz-adv-x="415" 
d="M389 52l12 -19q-19 -16 -42 -27.5t-48 -11.5q-29 0 -39.5 18t-12.5 43q-25 -27 -56 -46.5t-69 -19.5q-41 0 -67.5 27.5t-26.5 67.5q0 42 28.5 62t62.5 32l10 4l10 4l107 40v33q0 9 -0.5 20.5t-2.5 24.5q-3 26 -15.5 48.5t-42.5 22.5q-7 0 -16 -2t-19 -6q-17 -7 -32.5 -19
t-16.5 -27q-3 -23 -15 -31t-36 -10q-4 0 -6.5 2.5t-2.5 6.5q0 22 10.5 37t27.5 27q9 6 19.5 13.5t21.5 15.5q9 6 18.5 12.5t19.5 11.5q13 7 26.5 12t25.5 5q65 0 85 -44t21 -97v-4v-4q0 -22 -0.5 -44t-0.5 -44q0 -23 -0.5 -45t-0.5 -44v-8v-8q2 -17 8 -31.5t22 -14.5
q6 0 12.5 3t11.5 7q2 2 4.5 3.5t4.5 2.5v1zM258 198q-12 -5 -27 -10t-30 -11q-32 -12 -58.5 -31t-26.5 -52q0 -23 16 -40t40 -17t44 13.5t37 29.5l2.5 2.5l2.5 2.5v113v0zM315 618h23q0 -9 -1.5 -18t-3.5 -19q-5 -24 -19 -44t-40 -20q-16 0 -33 6t-34 13q-17 6 -35 12t-36 6
q-16 0 -24 -12t-10 -26l-25 1q0 5 1 11.5t2 12.5q4 29 17.5 52.5t47.5 23.5q18 0 35 -6t34 -13q1 -1 2 -1.5t2 -0.5q15 -7 31 -12.5t33 -5.5q13 0 20.5 10t11.5 22q0 2 0.5 3.5t0.5 3.5v1z" />
    <glyph glyph-name="adieresis" unicode="&#xe4;" horiz-adv-x="415" 
d="M389 52l12 -19q-19 -16 -42 -27.5t-48 -11.5q-29 0 -39.5 18t-12.5 43q-25 -27 -56 -46.5t-69 -19.5q-41 0 -67.5 27.5t-26.5 67.5q0 42 28.5 62t62.5 32l10 4l10 4l107 40v33q0 9 -0.5 20.5t-2.5 24.5q-3 26 -15.5 48.5t-42.5 22.5q-7 0 -16 -2t-19 -6q-17 -7 -32.5 -19
t-16.5 -27q-3 -23 -15 -31t-36 -10q-4 0 -6.5 2.5t-2.5 6.5q0 22 10.5 37t27.5 27q9 6 19.5 13.5t21.5 15.5q9 6 18.5 12.5t19.5 11.5q13 7 26.5 12t25.5 5q65 0 85 -44t21 -97v-4v-4q0 -22 -0.5 -44t-0.5 -44q0 -23 -0.5 -45t-0.5 -44v-8v-8q2 -17 8 -31.5t22 -14.5
q6 0 12.5 3t11.5 7q2 2 4.5 3.5t4.5 2.5v1zM258 198q-12 -5 -27 -10t-30 -11q-32 -12 -58.5 -31t-26.5 -52q0 -23 16 -40t40 -17t44 13.5t37 29.5l2.5 2.5l2.5 2.5v113v0zM172 566q0 -20 -13.5 -33.5t-32.5 -13.5t-34.5 13t-15.5 32q0 20 14 35.5t34 15.5t34 -15t14 -35v1z
M338 566q0 -20 -13.5 -33.5t-32.5 -13.5t-34 13t-15 32q0 20 14 35.5t34 15.5t33.5 -15t13.5 -35v1z" />
    <glyph glyph-name="aring" unicode="&#xe5;" horiz-adv-x="415" 
d="M389 52l12 -19q-19 -16 -42 -27.5t-48 -11.5q-29 0 -39.5 18t-12.5 43q-25 -27 -56 -46.5t-69 -19.5q-41 0 -67.5 27.5t-26.5 67.5q0 42 28.5 62t62.5 32l10 4l10 4l107 40v33q0 9 -0.5 20.5t-2.5 24.5q-3 26 -15.5 48.5t-42.5 22.5q-7 0 -16 -2t-19 -6q-17 -7 -32.5 -19
t-16.5 -27q-3 -23 -15 -31t-36 -10q-4 0 -6.5 2.5t-2.5 6.5q0 22 10.5 37t27.5 27q9 6 19.5 13.5t21.5 15.5q9 6 18.5 12.5t19.5 11.5q13 7 26.5 12t25.5 5q65 0 85 -44t21 -97v-4v-4q0 -22 -0.5 -44t-0.5 -44q0 -23 -0.5 -45t-0.5 -44v-8v-8q2 -17 8 -31.5t22 -14.5
q6 0 12.5 3t11.5 7q2 2 4.5 3.5t4.5 2.5v1zM258 198q-12 -5 -27 -10t-30 -11q-32 -12 -58.5 -31t-26.5 -52q0 -23 16 -40t40 -17t44 13.5t37 29.5l2.5 2.5l2.5 2.5v113v0zM285 567q0 -32 -23 -55.5t-55 -23.5t-55 23.5t-23 55.5t23.5 54t54.5 22q32 0 55 -22.5t23 -54.5v1z
M252 569q0 17 -13.5 30t-31.5 13t-32 -12.5t-14 -31.5t13 -33.5t32 -14.5t32.5 14.5t13.5 33.5v1z" />
    <glyph glyph-name="Otilde" unicode="&#xe6;" horiz-adv-x="578" 
d="M541 80l17 -18q-29 -32 -68.5 -49.5t-82.5 -19.5h-4h-4q-46 0 -83 20t-60 59q-24 -31 -57.5 -55t-74.5 -24q-38 0 -64 26.5t-26 63.5q0 18 6 34.5t22 26.5q26 18 54.5 31t58.5 24q7 3 14.5 6t14.5 6q7 2 14.5 5t14.5 6q1 9 1.5 18t0.5 19v18v18q0 34 -10.5 62t-51.5 28
q-25 0 -42 -15.5t-18 -41.5q0 -9 -8.5 -14t-18.5 -8q-7 -1 -13 -2t-10 -2q-4 0 -7 2.5t-3 6.5q0 41 31 62.5t68 33.5q16 6 31.5 10t28.5 8q32 -4 53.5 -21t35.5 -46q23 26 55 46t69 20q8 0 17.5 -1.5t18.5 -3.5q29 -8 53.5 -27.5t24.5 -50.5q0 -21 -15 -32t-32 -17
q-5 -2 -9.5 -3.5t-8.5 -3.5q-2 0 -3.5 -0.5t-2.5 -1.5l-169 -67q2 -68 34.5 -122.5t108.5 -54.5q28 0 53 11.5t46 28.5v1zM232 192q-10 -5 -23 -9.5t-26 -9.5q-29 -12 -53 -30t-24 -49q0 -22 14.5 -38t37.5 -16q25 0 45.5 15t36.5 33q2 1 3.5 3t3.5 4q-5 16 -8 32t-4 32
q-1 8 -1.5 16t-1.5 16v1zM299 247l133 55q3 0 5.5 1t5.5 2q12 4 21.5 11.5t9.5 20.5q0 19 -14.5 31t-32.5 16q-3 1 -7 1.5t-7 0.5q-48 0 -75 -35.5t-36 -77.5q-1 -7 -2 -13.5t-1 -13.5v1z" />
    <glyph glyph-name="ccedilla" unicode="&#xe7;" horiz-adv-x="398" 
d="M369 89l16 -19q-25 -31 -58 -50.5t-72 -25.5l-35 -33q30 0 53 -15.5t23 -48.5q0 -35 -26 -53t-57 -25q-10 -2 -20.5 -3t-19.5 -1q-4 0 -8.5 0.5t-9.5 1.5q-11 2 -19.5 7.5t-9.5 16.5q0 9 5.5 14t14.5 5q6 0 11.5 -2.5t10.5 -5.5q1 0 1.5 -0.5l0.5 -0.5l12 -6t13 -3
q17 0 28.5 12t11.5 30q0 17 -12.5 27t-29.5 10q-10 0 -19 -2t-18 -6l-9 20l79 60q-88 7 -138.5 62t-50.5 143q0 93 58.5 158t154.5 65q10 0 26 -2.5t33 -7.5q26 -8 48.5 -21.5t22.5 -30.5q0 -12 -10.5 -22t-22.5 -12h-2.5h-2.5q-2 0 -4.5 0.5t-4.5 2.5q-7 3 -14 11.5
t-16 17.5q-11 12 -26.5 22t-36.5 10q-60 0 -92 -45t-36 -99v-6.5v-6.5v-10t1 -10q5 -63 42.5 -115.5t107.5 -52.5q31 0 57.5 12.5t48.5 31.5v1z" />
    <glyph glyph-name="egrave" unicode="&#xe8;" horiz-adv-x="386" 
d="M352 84l14 -20q-30 -34 -70 -52.5t-84 -18.5q-75 0 -121 57t-53 126q0 6 -0.5 11.5t-0.5 11.5q0 88 52.5 156.5t145.5 68.5q52 0 90 -35.5t38 -87.5q0 -27 -9 -35t-33 -8l-216 1q-1 -9 -2 -16.5t-1 -15.5q0 -67 41 -121t113 -54q27 0 50.5 8.5t45.5 22.5v1zM112 293h144
q2 -1 3.5 -1h3.5q12 0 22 4t10 20q0 31 -21.5 51t-51.5 20q-45 0 -70.5 -28.5t-39.5 -66.5v1zM199 661l70 -171l-21 -10l-124 161l-0.5 0.5l-1.5 1.5q-2 3 -3.5 6t-1.5 5t2.5 4t8.5 2l71 1v0z" />
    <glyph glyph-name="eacute" unicode="&#xe9;" horiz-adv-x="386" 
d="M352 84l14 -20q-30 -34 -70 -52.5t-84 -18.5q-75 0 -121 57t-53 126q0 6 -0.5 11.5t-0.5 11.5q0 88 52.5 156.5t145.5 68.5q52 0 90 -35.5t38 -87.5q0 -27 -9 -35t-33 -8l-216 1q-1 -9 -2 -16.5t-1 -15.5q0 -67 41 -121t113 -54q27 0 50.5 8.5t45.5 22.5v1zM112 293h144
q2 -1 3.5 -1h3.5q12 0 22 4t10 20q0 31 -21.5 51t-51.5 20q-45 0 -70.5 -28.5t-39.5 -66.5v1zM187 661h67q1 -1 2.5 -1h2.5q4 -1 6.5 -2t2.5 -5v0q0 -4 -2 -6.5t-4 -5.5q-1 -2 -2 -3.5t-2 -2.5l-116 -155l-23 10l68 171v0z" />
    <glyph glyph-name="ecircumflex" unicode="&#xea;" horiz-adv-x="386" 
d="M352 84l14 -20q-30 -34 -70 -52.5t-84 -18.5q-75 0 -121 57t-53 126q0 6 -0.5 11.5t-0.5 11.5q0 88 52.5 156.5t145.5 68.5q52 0 90 -35.5t38 -87.5q0 -27 -9 -35t-33 -8l-216 1q-1 -9 -2 -16.5t-1 -15.5q0 -67 41 -121t113 -54q27 0 50.5 8.5t45.5 22.5v1zM112 293h144
q2 -1 3.5 -1h3.5q12 0 22 4t10 20q0 31 -21.5 51t-51.5 20q-45 0 -70.5 -28.5t-39.5 -66.5v1zM167 665h51l86 -179l-18 -11l-95 116l-91 -116l-17 11l84 179v0z" />
    <glyph glyph-name="edieresis" unicode="&#xeb;" horiz-adv-x="386" 
d="M352 84l14 -20q-30 -34 -70 -52.5t-84 -18.5q-75 0 -121 57t-53 126q0 6 -0.5 11.5t-0.5 11.5q0 88 52.5 156.5t145.5 68.5q52 0 90 -35.5t38 -87.5q0 -27 -9 -35t-33 -8l-216 1q-1 -9 -2 -16.5t-1 -15.5q0 -67 41 -121t113 -54q27 0 50.5 8.5t45.5 22.5v1zM112 293h144
q2 -1 3.5 -1h3.5q12 0 22 4t10 20q0 31 -21.5 51t-51.5 20q-45 0 -70.5 -28.5t-39.5 -66.5v1zM158 565q0 -20 -13.5 -33.5t-32.5 -13.5t-34.5 13t-15.5 32q0 20 14 35.5t34 15.5t34 -15t14 -35v1zM324 565q0 -20 -13.5 -33.5t-32.5 -13.5t-34 13t-15 32q0 20 14 35.5
t34 15.5t33.5 -15t13.5 -35v1z" />
    <glyph glyph-name="igrave" unicode="&#xec;" horiz-adv-x="276" 
d="M48 354l1 26q32 8 62 21.5t58 30.5l18 -7q-2 -15 -4 -29t-3 -28q-1 -15 -1.5 -29t-0.5 -28l1 -86v-32.5v-30.5q-1 -16 -1 -31.5v-31.5q0 -35 9 -51t48 -16l5 1v-33q-25 1 -49 2.5t-48 1.5q-13 0 -26 -0.5t-25 -0.5l-26 -2t-26 -1v33q43 -1 55 13t12 55v46v47
q0 23 -0.5 46t-0.5 46q0 35 -10.5 51t-47.5 16v1zM143 661l70 -171l-21 -10l-124 161l-0.5 0.5l-1.5 1.5q-2 3 -3.5 6t-1.5 5t2.5 4t8.5 2l71 1v0z" />
    <glyph glyph-name="iacute" unicode="&#xed;" horiz-adv-x="276" 
d="M48 354l1 26q32 8 62 21.5t58 30.5l18 -7q-2 -15 -4 -29t-3 -28q-1 -15 -1.5 -29t-0.5 -28l1 -86v-32.5v-30.5q-1 -16 -1 -31.5v-31.5q0 -35 9 -51t48 -16l5 1v-33q-25 1 -49 2.5t-48 1.5q-13 0 -26 -0.5t-25 -0.5l-26 -2t-26 -1v33q43 -1 55 13t12 55v46v47
q0 23 -0.5 46t-0.5 46q0 35 -10.5 51t-47.5 16v1zM131 661h67q1 -1 2.5 -1h2.5q4 -1 6.5 -2t2.5 -5v0q0 -4 -2 -6.5t-4 -5.5q-1 -2 -2 -3.5t-2 -2.5l-116 -155l-23 10l68 171v0z" />
    <glyph glyph-name="icircumflex" unicode="&#xee;" horiz-adv-x="276" 
d="M48 354l1 26q32 8 62 21.5t58 30.5l18 -7q-2 -15 -4 -29t-3 -28q-1 -15 -1.5 -29t-0.5 -28l1 -86v-32.5v-30.5q-1 -16 -1 -31.5v-31.5q0 -35 9 -51t48 -16l5 1v-33q-25 1 -49 2.5t-48 1.5q-13 0 -26 -0.5t-25 -0.5l-26 -2t-26 -1v33q43 -1 55 13t12 55v46v47
q0 23 -0.5 46t-0.5 46q0 35 -10.5 51t-47.5 16v1zM111 665h51l86 -179l-18 -11l-95 116l-91 -116l-17 11l84 179v0z" />
    <glyph glyph-name="idieresis" unicode="&#xef;" horiz-adv-x="276" 
d="M48 354l1 26q32 8 62 21.5t58 30.5l18 -7q-2 -15 -4 -29t-3 -28q-1 -15 -1.5 -29t-0.5 -28l1 -86v-32.5v-30.5q-1 -16 -1 -31.5v-31.5q0 -35 9 -51t48 -16l5 1v-33q-25 1 -49 2.5t-48 1.5q-13 0 -26 -0.5t-25 -0.5l-26 -2t-26 -1v33q43 -1 55 13t12 55v46v47
q0 23 -0.5 46t-0.5 46q0 35 -10.5 51t-47.5 16v1zM102 565q0 -20 -13.5 -33.5t-32.5 -13.5t-34.5 13t-15.5 32q0 20 14 35.5t34 15.5t34 -15t14 -35v1zM268 565q0 -20 -13.5 -33.5t-32.5 -13.5t-34 13t-15 32q0 20 14 35.5t34 15.5t33.5 -15t13.5 -35v1z" />
    <glyph glyph-name="glyph233" unicode="&#xf0;" horiz-adv-x="507" 
d="M222 640l102 78l23 -31l-89 -68q100 -71 156.5 -176t56.5 -229q0 -99 -64.5 -159.5t-161.5 -60.5q-93 0 -150.5 65t-57.5 155q0 88 67 151t153 63q22 0 43.5 -4t42.5 -12q-24 50 -57 92t-75 77l-108 -84l-25 31l101 79q-33 25 -69.5 44.5t-76.5 34.5l11 25
q47 -12 92.5 -29t85.5 -43v1zM117 218q0 -13 1.5 -25.5t3.5 -25.5q11 -49 42.5 -91t84.5 -47q74 0 109.5 51.5t35.5 119.5q0 11 -1 22.5t-3 23.5q-11 54 -45 99.5t-93 45.5q-67 0 -99 -49.5t-36 -108.5v-8v-8v1z" />
    <glyph glyph-name="ntilde" unicode="&#xf1;" horiz-adv-x="542" 
d="M179 319v-155q0 -9 -0.5 -16.5t-0.5 -15.5v-15.5v-15.5q0 -35 8 -52t48 -17l8 1v-33h-12.5t-12.5 1q-20 1 -39 2t-38 1q-12 0 -24.5 -0.5t-25.5 -0.5q-13 -1 -25.5 -2t-24.5 -1v33q41 -1 54.5 12t13.5 54v46.5t-1 47.5q0 23 -0.5 46.5t-0.5 46.5q0 37 -9 52t-46 15v27
q30 10 58.5 23t56.5 29l19 -8q-2 -18 -3.5 -35.5t-2.5 -34.5q5 4 11 8l12 8q28 20 60.5 37t67.5 17q69 0 95.5 -45.5t26.5 -105.5v-44.5v-44.5q-1 -22 -1 -44.5v-44.5v-4v-3q0 -15 2.5 -27.5t8.5 -17.5q5 -5 13 -7.5t16 -2.5q4 -1 8.5 -1h8.5l2 1v-33h-12.5t-12.5 1
q-18 1 -37 2t-38 1q-12 0 -24 -0.5t-24 -1.5q-7 0 -13 -0.5t-12 -0.5q-6 -1 -12 -1h-12v33q44 -1 55.5 13.5t11.5 54.5v34.5v34.5q-1 17 -1 34.5v34.5q0 8 -0.5 16.5t-0.5 16.5q-4 38 -21 69t-62 31q-34 0 -62.5 -16t-53.5 -38v1zM379 618h23q0 -9 -1.5 -18t-3.5 -19
q-5 -24 -19 -44t-40 -20q-16 0 -33 6t-34 13q-17 6 -35 12t-36 6q-16 0 -24 -12t-10 -26l-25 1q0 5 1 11.5t2 12.5q4 29 17.5 52.5t47.5 23.5q18 0 35 -6t34 -13q1 -1 2 -1.5t2 -0.5q15 -7 31 -12.5t33 -5.5q13 0 20.5 10t11.5 22q0 2 0.5 3.5t0.5 3.5v1z" />
    <glyph glyph-name="ograve" unicode="&#xf2;" horiz-adv-x="508" 
d="M472 207q0 -92 -65.5 -153t-154.5 -61q-95 0 -155 62t-60 156q0 93 66 155t157 62q95 0 153.5 -65t58.5 -157v1zM394 198q0 10 -1 21.5t-3 22.5q-10 56 -44.5 102.5t-95.5 46.5q-64 0 -98 -49t-35 -107v-1.5v-1.5q0 -14 1.5 -29.5t4.5 -30.5q11 -54 43 -99t93 -45
q70 0 102 52t33 114v1.5v1.5v1zM260 661l70 -171l-21 -10l-124 161l-0.5 0.5l-1.5 1.5q-2 3 -3.5 6t-1.5 5t2.5 4t8.5 2l71 1v0z" />
    <glyph glyph-name="oacute" unicode="&#xf3;" horiz-adv-x="508" 
d="M472 207q0 -92 -65.5 -153t-154.5 -61q-95 0 -155 62t-60 156q0 93 66 155t157 62q95 0 153.5 -65t58.5 -157v1zM394 198q0 10 -1 21.5t-3 22.5q-10 56 -44.5 102.5t-95.5 46.5q-64 0 -98 -49t-35 -107v-1.5v-1.5q0 -14 1.5 -29.5t4.5 -30.5q11 -54 43 -99t93 -45
q70 0 102 52t33 114v1.5v1.5v1zM248 661h67q1 -1 2.5 -1h2.5q4 -1 6.5 -2t2.5 -5v0q0 -4 -2 -6.5t-4 -5.5q-1 -2 -2 -3.5t-2 -2.5l-116 -155l-23 10l68 171v0z" />
    <glyph glyph-name="ocircumflex" unicode="&#xf4;" horiz-adv-x="508" 
d="M472 207q0 -92 -65.5 -153t-154.5 -61q-95 0 -155 62t-60 156q0 93 66 155t157 62q95 0 153.5 -65t58.5 -157v1zM394 198q0 10 -1 21.5t-3 22.5q-10 56 -44.5 102.5t-95.5 46.5q-64 0 -98 -49t-35 -107v-1.5v-1.5q0 -14 1.5 -29.5t4.5 -30.5q11 -54 43 -99t93 -45
q70 0 102 52t33 114v1.5v1.5v1zM228 665h51l86 -179l-18 -11l-95 116l-91 -116l-17 11l84 179v0z" />
    <glyph glyph-name="otilde" unicode="&#xf5;" horiz-adv-x="508" 
d="M472 207q0 -92 -65.5 -153t-154.5 -61q-95 0 -155 62t-60 156q0 93 66 155t157 62q95 0 153.5 -65t58.5 -157v1zM394 198q0 10 -1 21.5t-3 22.5q-10 56 -44.5 102.5t-95.5 46.5q-64 0 -98 -49t-35 -107v-1.5v-1.5q0 -14 1.5 -29.5t4.5 -30.5q11 -54 43 -99t93 -45
q70 0 102 52t33 114v1.5v1.5v1zM362 617h23q0 -9 -1.5 -18t-3.5 -19q-5 -24 -19 -44t-40 -20q-16 0 -33 6t-34 13q-17 6 -35 12t-36 6q-16 0 -24 -12t-10 -26l-25 1q0 5 1 11.5t2 12.5q4 29 17.5 52.5t47.5 23.5q18 0 35 -6t34 -13q1 -1 2 -1.5t2 -0.5q15 -7 31 -12.5
t33 -5.5q13 0 20.5 10t11.5 22q0 2 0.5 3.5t0.5 3.5v1z" />
    <glyph glyph-name="odieresis" unicode="&#xf6;" horiz-adv-x="508" 
d="M472 207q0 -92 -65.5 -153t-154.5 -61q-95 0 -155 62t-60 156q0 93 66 155t157 62q95 0 153.5 -65t58.5 -157v1zM394 198q0 10 -1 21.5t-3 22.5q-10 56 -44.5 102.5t-95.5 46.5q-64 0 -98 -49t-35 -107v-1.5v-1.5q0 -14 1.5 -29.5t4.5 -30.5q11 -54 43 -99t93 -45
q70 0 102 52t33 114v1.5v1.5v1zM219 565q0 -20 -13.5 -33.5t-32.5 -13.5t-34.5 13t-15.5 32q0 20 14 35.5t34 15.5t34 -15t14 -35v1zM385 565q0 -20 -13.5 -33.5t-32.5 -13.5t-34 13t-15 32q0 20 14 35.5t34 15.5t33.5 -15t13.5 -35v1z" />
    <glyph glyph-name="Aacute" unicode="&#xf7;" 
 />
    <glyph glyph-name="OE" unicode="&#xf8;" horiz-adv-x="506" 
d="M404 457l31 -19l-38 -58q34 -32 52 -75.5t20 -89.5v-4.5v-4.5q0 -91 -63.5 -152t-153.5 -61q-25 0 -49 4.5t-47 14.5l-41 -60l-29 18l39 59q-42 32 -65.5 78t-23.5 101q0 93 64 156t156 63q6 0 12.5 -0.5t13.5 -0.5q22 -3 44 -10t41 -18l37 59v0zM185 55q12 -12 27.5 -18
t31.5 -7q3 -1 6.5 -1h7.5q71 0 102 52.5t31 115.5q0 34 -8.5 67t-25.5 61l-172 -270v0zM335 353q-18 18 -41 27t-49 9q-61 0 -93.5 -46t-35.5 -101v-5.5v-5.5q0 -10 0.5 -20.5t1.5 -21.5q4 -29 14 -57.5t29 -51.5l174 273v0z" />
    <glyph glyph-name="ugrave" unicode="&#xf9;" horiz-adv-x="521" 
d="M484 39v-29q-32 -4 -63.5 -9t-62.5 -14l-12 13q3 15 5.5 31t2.5 32q-30 -30 -69 -52t-83 -22q-60 0 -83.5 40.5t-27.5 89.5q-1 7 -1 13.5v12.5v19.5t1 19.5v18.5v19.5v24t1 24v24v24q0 38 -12.5 51t-48.5 13v33q3 -2 6 -2h5q32 0 62.5 1t61.5 7q-3 -57 -4 -114t-1 -114
v-5v-5q1 -8 1 -16t1 -16q2 -38 17 -70t63 -32q32 0 59 13t52 32v159v15.5t1 16.5v16.5v16.5q0 37 -11.5 50.5t-49.5 13.5v33q2 -2 4 -2h4h7.5h7.5q4 -1 7.5 -1h7.5q25 0 49.5 2.5t48.5 6.5l-2 -19q-1 -32 -1.5 -63.5t-1.5 -62.5v-62.5v-62.5v-7.5v-7.5q0 -26 1.5 -48.5
t4.5 -29.5q5 -10 14.5 -13.5t19.5 -5.5q4 0 8 -0.5t8 -0.5h1.5h1.5v1zM267 661l70 -171l-21 -10l-124 161l-0.5 0.5l-1.5 1.5q-2 3 -3.5 6t-1.5 5t2.5 4t8.5 2l71 1v0z" />
    <glyph glyph-name="uacute" unicode="&#xfa;" horiz-adv-x="521" 
d="M484 39v-29q-32 -4 -63.5 -9t-62.5 -14l-12 13q3 15 5.5 31t2.5 32q-30 -30 -69 -52t-83 -22q-60 0 -83.5 40.5t-27.5 89.5q-1 7 -1 13.5v12.5v19.5t1 19.5v18.5v19.5v24t1 24v24v24q0 38 -12.5 51t-48.5 13v33q3 -2 6 -2h5q32 0 62.5 1t61.5 7q-3 -57 -4 -114t-1 -114
v-5v-5q1 -8 1 -16t1 -16q2 -38 17 -70t63 -32q32 0 59 13t52 32v159v15.5t1 16.5v16.5v16.5q0 37 -11.5 50.5t-49.5 13.5v33q2 -2 4 -2h4h7.5h7.5q4 -1 7.5 -1h7.5q25 0 49.5 2.5t48.5 6.5l-2 -19q-1 -32 -1.5 -63.5t-1.5 -62.5v-62.5v-62.5v-7.5v-7.5q0 -26 1.5 -48.5
t4.5 -29.5q5 -10 14.5 -13.5t19.5 -5.5q4 0 8 -0.5t8 -0.5h1.5h1.5v1zM255 661h67q1 -1 2.5 -1h2.5q4 -1 6.5 -2t2.5 -5v0q0 -4 -2 -6.5t-4 -5.5q-1 -2 -2 -3.5t-2 -2.5l-116 -155l-23 10l68 171v0z" />
    <glyph glyph-name="ucircumflex" unicode="&#xfb;" horiz-adv-x="521" 
d="M484 39v-29q-32 -4 -63.5 -9t-62.5 -14l-12 13q3 15 5.5 31t2.5 32q-30 -30 -69 -52t-83 -22q-60 0 -83.5 40.5t-27.5 89.5q-1 7 -1 13.5v12.5v19.5t1 19.5v18.5v19.5v24t1 24v24v24q0 38 -12.5 51t-48.5 13v33q3 -2 6 -2h5q32 0 62.5 1t61.5 7q-3 -57 -4 -114t-1 -114
v-5v-5q1 -8 1 -16t1 -16q2 -38 17 -70t63 -32q32 0 59 13t52 32v159v15.5t1 16.5v16.5v16.5q0 37 -11.5 50.5t-49.5 13.5v33q2 -2 4 -2h4h7.5h7.5q4 -1 7.5 -1h7.5q25 0 49.5 2.5t48.5 6.5l-2 -19q-1 -32 -1.5 -63.5t-1.5 -62.5v-62.5v-62.5v-7.5v-7.5q0 -26 1.5 -48.5
t4.5 -29.5q5 -10 14.5 -13.5t19.5 -5.5q4 0 8 -0.5t8 -0.5h1.5h1.5v1zM235 665h51l86 -179l-18 -11l-95 116l-91 -116l-17 11l84 179v0z" />
    <glyph glyph-name="udieresis" unicode="&#xfc;" horiz-adv-x="521" 
d="M484 39v-29q-32 -4 -63.5 -9t-62.5 -14l-12 13q3 15 5.5 31t2.5 32q-30 -30 -69 -52t-83 -22q-60 0 -83.5 40.5t-27.5 89.5q-1 7 -1 13.5v12.5v19.5t1 19.5v18.5v19.5v24t1 24v24v24q0 38 -12.5 51t-48.5 13v33q3 -2 6 -2h5q32 0 62.5 1t61.5 7q-3 -57 -4 -114t-1 -114
v-5v-5q1 -8 1 -16t1 -16q2 -38 17 -70t63 -32q32 0 59 13t52 32v159v15.5t1 16.5v16.5v16.5q0 37 -11.5 50.5t-49.5 13.5v33q2 -2 4 -2h4h7.5h7.5q4 -1 7.5 -1h7.5q25 0 49.5 2.5t48.5 6.5l-2 -19q-1 -32 -1.5 -63.5t-1.5 -62.5v-62.5v-62.5v-7.5v-7.5q0 -26 1.5 -48.5
t4.5 -29.5q5 -10 14.5 -13.5t19.5 -5.5q4 0 8 -0.5t8 -0.5h1.5h1.5v1zM226 565q0 -20 -13.5 -33.5t-32.5 -13.5t-34.5 13t-15.5 32q0 20 14 35.5t34 15.5t34 -15t14 -35v1zM392 565q0 -20 -13.5 -33.5t-32.5 -13.5t-34 13t-15 32q0 20 14 35.5t34 15.5t33.5 -15t13.5 -35v1z
" />
    <glyph glyph-name="yacute" unicode="&#xfd;" 
 />
    <glyph glyph-name="glyph237" unicode="&#xfe;" horiz-adv-x="513" 
d="M165 17v-140q0 -36 9 -52.5t47 -16.5h8v-33q-13 1 -25.5 2t-24.5 2q-13 0 -25.5 0.5t-25.5 0.5t-25.5 -0.5t-24.5 -0.5q-13 -1 -25.5 -2t-25.5 -2v33q38 0 52.5 10t14.5 53v17.5v16.5q-1 8 -1 16.5v17.5v561l-1 67q0 32 -10 48.5t-45 16.5v28q32 6 60.5 20.5t56.5 31.5
l18 -8q-5 -52 -7 -103t-2 -102v-135l2 4q1 0 2 0.5t2 1.5q30 20 61 37t69 17q84 0 130.5 -63.5t46.5 -141.5v-4v-5q-3 -81 -59 -149t-143 -68q-28 0 -55.5 6t-53.5 17v1zM165 75q14 -19 35 -29.5t43 -14.5q7 -1 13 -1.5t12 -0.5q68 0 101.5 50.5t35.5 111.5v3.5v2.5
q0 67 -36 119t-110 52q-7 0 -13.5 -0.5t-13.5 -2.5q-18 -3 -35 -10t-32 -17v-263v0z" />
    <glyph glyph-name="Egrave" unicode="&#xff;" horiz-adv-x="432" 
d="M-3 386v32q12 -2 23.5 -3t22.5 -2q11 0 22.5 -0.5t23.5 -0.5q25 0 49.5 1.5t49.5 3.5v-31q-4 -1 -9.5 -1t-10.5 -1q-11 -2 -20.5 -7t-9.5 -17q0 -4 0.5 -7.5t1.5 -7.5q1 -8 4 -16t6 -15q1 -3 2.5 -6.5t2.5 -6.5l78 -203l54 142q3 6 6 13.5t6 15.5q9 20 16.5 42t7.5 44
q0 17 -12 23t-26 7h-6.5h-6.5v33q6 -1 11.5 -1.5t10.5 -1.5q6 0 11.5 -0.5t11.5 -0.5q11 -1 22 -1.5t22 -0.5q21 0 42 1.5t43 3.5v-31q-50 -7 -69 -35t-32 -66q-4 -11 -8 -22.5t-9 -23.5l-90 -224q-7 -18 -17.5 -44.5t-23.5 -54.5q-21 -46 -51 -85t-69 -39q-16 0 -29 11.5
t-13 28.5q0 19 14 28.5t30 12.5q3 1 5.5 1.5t5.5 0.5q36 5 56 32t34 59q3 8 6.5 16t6.5 16l1.5 3l1.5 3l-93 242l-18 42q-5 13 -9 24.5t-8 21.5q-9 23 -22.5 35t-47.5 16zM181 565q0 -20 -13.5 -33.5t-32.5 -13.5t-34.5 13t-15.5 32q0 20 14 35.5t34 15.5t34 -15t14 -35v1z
M347 565q0 -20 -13.5 -33.5t-32.5 -13.5t-34 13t-15 32q0 20 14 35.5t34 15.5t33.5 -15t13.5 -35v1z" />
    <glyph glyph-name="Abreve" unicode="&#x102;" 
 />
    <glyph glyph-name="abreve" unicode="&#x103;" 
 />
    <glyph glyph-name="Aogonek" unicode="&#x104;" 
 />
    <glyph glyph-name="aogonek" unicode="&#x105;" 
 />
    <glyph glyph-name="Cacute" unicode="&#x106;" 
 />
    <glyph glyph-name="cacute" unicode="&#x107;" 
 />
    <glyph glyph-name="Ccaron" unicode="&#x10c;" 
 />
    <glyph glyph-name="ccaron" unicode="&#x10d;" 
 />
    <glyph glyph-name="Dcaron" unicode="&#x10e;" 
 />
    <glyph glyph-name="dcaron" unicode="&#x10f;" 
 />
    <glyph glyph-name="Dcroat" unicode="&#x110;" 
 />
    <glyph glyph-name="dcroat" unicode="&#x111;" 
 />
    <glyph glyph-name="Eogonek" unicode="&#x118;" 
 />
    <glyph glyph-name="eogonek" unicode="&#x119;" 
 />
    <glyph glyph-name="Ecaron" unicode="&#x11a;" 
 />
    <glyph glyph-name="ecaron" unicode="&#x11b;" 
 />
    <glyph glyph-name="Gbreve" unicode="&#x11e;" 
 />
    <glyph glyph-name="gbreve" unicode="&#x11f;" 
 />
    <glyph glyph-name="Idotaccent" unicode="&#x130;" 
 />
    <glyph glyph-name="thorn" unicode="&#x131;" horiz-adv-x="276" 
d="M48 354l1 26q32 8 62 21.5t58 30.5l18 -7q-2 -15 -4 -29t-3 -28q-1 -15 -1.5 -29t-0.5 -28l1 -86v-32.5v-30.5q-1 -16 -1 -31.5v-31.5q0 -35 9 -51t48 -16l5 1v-33q-25 1 -49 2.5t-48 1.5q-13 0 -26 -0.5t-25 -0.5l-26 -2t-26 -1v33q43 -1 55 13t12 55v46v47
q0 23 -0.5 46t-0.5 46q0 35 -10.5 51t-47.5 16v1z" />
    <glyph glyph-name="Lacute" unicode="&#x139;" 
 />
    <glyph glyph-name="lacute" unicode="&#x13a;" 
 />
    <glyph glyph-name="Lcaron" unicode="&#x13d;" 
 />
    <glyph glyph-name="lcaron" unicode="&#x13e;" 
 />
    <glyph glyph-name="Ldot" unicode="&#x13f;" 
 />
    <glyph glyph-name="ldot" unicode="&#x140;" 
 />
    <glyph glyph-name="glyph225" unicode="&#x141;" horiz-adv-x="524" 
d="M124 328v175l-2 65q0 43 -20.5 53t-57.5 10v36q15 -2 29.5 -3t28.5 -2q14 0 28.5 -0.5t29.5 -0.5q32 0 64.5 1t65.5 4v-34h-13q-37 -1 -52.5 -13.5t-16.5 -51.5l-1 -64v-120l126 97v-54l-126 -97v-155v-62v-9.5t1 -8.5q1 -14 5 -26.5t15 -19.5q8 -5 24.5 -6.5t34.5 -2.5
h8.5h8.5q79 0 124 13.5t71 95.5l32 -8l-41 -140q-81 3 -162 3.5t-163 0.5q-30 0 -60 -1.5t-61 -2.5v35q38 -1 58 9.5t20 52.5l2 67v110l-80 -61v54l80 61v0z" />
    <glyph glyph-name="glyph226" unicode="&#x142;" horiz-adv-x="267" 
d="M100 377v129l-1 61q0 32 -10 49t-45 17v27q32 7 60.5 21t56.5 31l19 -8q-6 -50 -8 -99.5t-2 -99.5v-83l71 54v-50l-71 -55v-207v-62q0 -36 8 -53t48 -17l8 1v-33q-23 1 -47 2.5t-48 1.5q-25 0 -50.5 -1.5t-51.5 -2.5v33q38 -1 51 11.5t13 50.5v17.5v16.5q-1 8 -1 16.5
v17.5v163l-70 -54v50l70 55v0z" />
    <glyph glyph-name="Nacute" unicode="&#x143;" 
 />
    <glyph glyph-name="nacute" unicode="&#x144;" 
 />
    <glyph glyph-name="Ncaron" unicode="&#x147;" 
 />
    <glyph glyph-name="ncaron" unicode="&#x148;" 
 />
    <glyph glyph-name="Ohungarumlaut" unicode="&#x150;" 
 />
    <glyph glyph-name="ohungarumlaut" unicode="&#x151;" 
 />
    <glyph glyph-name="fi" unicode="&#x152;" horiz-adv-x="934" 
d="M496 663h223q24 0 47.5 0.5t46.5 0.5q12 0 23.5 0.5t23.5 0.5h12t13 1q2 -34 4.5 -68.5t7.5 -69.5l-34 -5q-1 2 -1.5 5.5t-1.5 6.5q-6 25 -15 46.5t-36 32.5q-13 6 -28 8t-30 3h-7.5h-7.5l-40 1h-123q63 -33 107 -97.5t55 -135.5q1 -8 2 -15.5t1 -15.5q51 0 67 19t16 62
l35 1q-1 -13 -1.5 -25.5t-0.5 -25.5q-1 -13 -1 -25.5v-24.5q0 -25 1 -49.5t2 -49.5l-35 1l-1 12q-2 42 -20.5 54t-59.5 13q-2 -94 -42.5 -164t-119.5 -120l112 1q85 -1 126.5 13t68.5 98l32 -8l-32 -144q-37 1 -73.5 1.5t-73.5 0.5l-246 1q-26 -6 -52.5 -9.5t-53.5 -3.5
q-151 0 -248.5 97.5t-97.5 248.5q0 155 107 247.5t256 92.5q24 0 47.5 -4.5t45.5 -9.5v1zM448 630q-12 1 -24 3t-25 2q-130 0 -201 -87t-71 -212q0 -9 0.5 -18t1.5 -17q10 -103 76.5 -189t179.5 -86h10.5h10.5q11 1 21.5 2.5t20.5 3.5v598v0zM528 325v-264q60 27 88.5 84
t35.5 119q2 15 3 30t1 30l-128 1v0zM528 363h127q-1 15 -4.5 32t-7.5 34q-15 51 -43.5 97t-71.5 72v-235v0z" />
    <glyph glyph-name="fl" unicode="&#x153;" horiz-adv-x="726" 
d="M692 84l14 -20q-27 -32 -66 -51.5t-82 -19.5q-46 0 -84.5 22.5t-61.5 61.5q-31 -43 -76.5 -63.5t-98.5 -20.5q-94 0 -147 60t-53 152q0 91 59.5 155t151.5 64q53 0 95.5 -23.5t72.5 -64.5q26 36 66 62t86 26q51 0 93 -31t42 -87v-5v-5q-1 -13 -6 -24t-21 -11l-16 1h-214
q-1 -5 -1.5 -9t-0.5 -8q-1 -4 -1 -8v-8q0 -69 40.5 -122.5t114.5 -53.5q23 0 42.5 6.5t38.5 16.5q3 2 6.5 3.5t6.5 3.5v1zM377 209v8.5v8.5q-4 60 -33 110.5t-100 50.5q-63 0 -92.5 -45.5t-35.5 -100.5q-1 -8 -1.5 -16.5t-0.5 -16.5t0.5 -16t1.5 -16q6 -54 35 -99t92 -45
q70 0 100 50t34 110v8v8v1zM452 295h144q17 -1 28.5 2.5t11.5 23.5q0 30 -21.5 47.5t-50.5 17.5q-45 0 -71 -27t-41 -65v1z" />
    <glyph glyph-name="Racute" unicode="&#x154;" 
 />
    <glyph glyph-name="racute" unicode="&#x155;" 
 />
    <glyph glyph-name="Rcaron" unicode="&#x158;" 
 />
    <glyph glyph-name="rcaron" unicode="&#x159;" 
 />
    <glyph glyph-name="Sacute" unicode="&#x15a;" 
 />
    <glyph glyph-name="sacute" unicode="&#x15b;" 
 />
    <glyph glyph-name="Scedilla" unicode="&#x15e;" 
 />
    <glyph glyph-name="scedilla" unicode="&#x15f;" 
 />
    <glyph glyph-name="glyph227" unicode="&#x160;" horiz-adv-x="457" 
d="M410 536l-34 -7q-10 43 -38.5 76t-76.5 36q-49 0 -89.5 -29.5t-40.5 -83.5q0 -47 33 -78t77 -59q7 -5 15 -10t17 -10q53 -33 97 -76.5t44 -118.5q0 -90 -66 -138t-149 -48q-40 0 -79 9.5t-75 25.5q-3 34 -8.5 67.5t-11.5 66.5l38 8q12 -56 43 -97.5t94 -44.5q53 0 96 33
t43 90q0 54 -36.5 88t-82.5 64l-10 6l-10 6q-52 33 -95.5 75t-43.5 113q0 89 64.5 132.5t144.5 43.5q30 0 60 -5.5t59 -14.5q3 -31 8.5 -61t12.5 -60v1zM257 677h-52l-86 179l18 11l95 -115l91 115l17 -11l-83 -179v0z" />
    <glyph glyph-name="glyph228" unicode="&#x161;" horiz-adv-x="336" 
d="M275 406l9 -85l-25 -4l-0.5 0.5t-0.5 1.5q-8 27 -26.5 49.5t-49.5 22.5q-25 0 -43.5 -15.5t-18.5 -41.5q0 -30 21 -50t50 -38q4 -3 8.5 -5.5t8.5 -5.5q33 -21 60.5 -47.5t27.5 -71.5q0 -57 -40.5 -90t-95.5 -33q-8 0 -15.5 0.5t-15.5 1.5q-20 2 -39 6.5t-37 11.5l-13 103
l27 5q8 -37 26.5 -67t61.5 -30q30 0 52 18t22 49q0 25 -17.5 42.5t-42.5 34.5q-7 4 -13.5 8.5t-13.5 8.5q-33 22 -60 49.5t-27 72.5q0 56 37.5 86.5t90.5 30.5q6 0 12 -0.5t11 -0.5q18 -2 35.5 -7t33.5 -11v1zM196 475h-52l-86 179l18 11l95 -115l91 115l17 -11l-83 -179v0z
" />
    <glyph glyph-name="uni0162" unicode="&#x162;" 
 />
    <glyph glyph-name="uni0163" unicode="&#x163;" 
 />
    <glyph glyph-name="Tcaron" unicode="&#x164;" 
 />
    <glyph glyph-name="tcaron" unicode="&#x165;" 
 />
    <glyph glyph-name="Uring" unicode="&#x16e;" 
 />
    <glyph glyph-name="uring" unicode="&#x16f;" 
 />
    <glyph glyph-name="Uhungarumlaut" unicode="&#x170;" 
 />
    <glyph glyph-name="uhungarumlaut" unicode="&#x171;" 
 />
    <glyph glyph-name="Iacute" unicode="&#x178;" horiz-adv-x="537" 
d="M-30 635v32q15 -2 28 -3t27 -2t27.5 -1h27.5h30.5t30.5 1t30.5 2t30.5 2v-31q-4 -1 -9 -1.5t-10 -1.5q-13 -2 -23.5 -7.5t-10.5 -20.5v0q1 -15 6.5 -28t12.5 -25q3 -4 5.5 -8.5t4.5 -9.5l110 -201l96 180l7.5 12.5t8.5 16.5q2 4 4.5 8.5t4.5 9.5q5 12 9 23.5t4 20.5v2
q-1 15 -12.5 21t-24.5 7q-4 1 -7.5 1h-7.5v33q14 -2 27.5 -3t27.5 -2q13 -1 27 -1h27q23 0 46 1.5t45 3.5v-31q-51 -3 -76.5 -31.5t-45.5 -66.5l-8 -16l-8 -16l-121 -232v-109v-11.5v-11.5q-1 -5 -1 -10.5v-11.5q0 -43 12.5 -64t58.5 -21l12 1v-35q-31 1 -61.5 2.5
t-61.5 1.5h-31.5t-30.5 -1q-16 -1 -31.5 -1.5t-31.5 -1.5v35q2 -1 4 -1h4q27 1 49.5 10t24.5 41q1 10 1 19.5v19.5v40v112l-154 275q-18 34 -40.5 57t-62.5 26zM233 780q0 -20 -13.5 -33.5t-32.5 -13.5t-34.5 13t-15.5 32q0 20 14 35.5t34 15.5t34 -15t14 -35v1zM399 780
q0 -20 -13.5 -33.5t-32.5 -13.5t-34 13t-15 32q0 20 14 35.5t34 15.5t33.5 -15t13.5 -35v1z" />
    <glyph glyph-name="Zacute" unicode="&#x179;" 
 />
    <glyph glyph-name="zacute" unicode="&#x17a;" 
 />
    <glyph glyph-name="Zdotaccent" unicode="&#x17b;" 
 />
    <glyph glyph-name="zdotaccent" unicode="&#x17c;" 
 />
    <glyph glyph-name="Zcaron" unicode="&#x17d;" 
 />
    <glyph glyph-name="zcaron" unicode="&#x17e;" 
 />
    <glyph glyph-name="quotedblright" unicode="&#x192;" horiz-adv-x="467" 
d="M275 401h97l-11 -41h-92l-30 -219q-2 -17 -5 -33.5t-7 -32.5q-19 -79 -67.5 -145.5t-140.5 -66.5q-5 0 -11 0.5t-11 2.5q-11 2 -21 8t-11 17q0 4 1.5 10t4.5 11q6 11 15 20.5t18 11.5h1.5h1.5q3 0 6 -0.5t5 -2.5q6 -2 12 -6.5t12 -9.5q9 -6 18.5 -12t21.5 -6q29 0 46 41
t26 89q7 36 10.5 68.5t6.5 49.5l29 205h-59l11 35q24 1 39 9.5t22 33.5q4 16 8.5 32.5t9.5 32.5q22 74 64.5 136t132.5 62q3 0 7 -0.5t8 -0.5q11 -3 20.5 -8.5t9.5 -13.5q0 -4 -2.5 -10t-6.5 -13q-3 -6 -8 -12t-10 -11q-5 -3 -9 -5.5t-8 -2.5l-1 1q-8 -1 -15 3.5t-13 10.5
q0 1 -0.5 1.5t-1.5 0.5q-6 6 -13.5 11.5t-17.5 5.5q-31 0 -48 -43.5t-27 -96.5q-6 -34 -10 -66.5t-7 -51.5v1z" />
    <glyph glyph-name="uni02BA" unicode="&#x2ba;" horiz-adv-x="500" 
d="M184 661h62q1 -1 2.5 -1h2.5q4 -1 6.5 -2t2.5 -5v0q0 -4 -1.5 -7t-3.5 -6q-1 -1 -2 -2.5t-2 -2.5l-111 -155l-20 7l64 174v0zM304 661h62q1 -1 2.5 -1h2.5q4 -1 6.5 -2t2.5 -5v0q0 -4 -1.5 -7t-3.5 -6q-1 -1 -2 -2.5t-2 -2.5l-111 -155l-20 7l64 174v0z" />
    <glyph glyph-name="arrowright" unicode="&#x2c6;" horiz-adv-x="500" 
d="M358 618h23q0 -9 -1.5 -18t-3.5 -19q-5 -24 -19 -44t-40 -20q-16 0 -33 6t-34 13q-17 6 -35 12t-36 6q-16 0 -24 -12t-10 -26l-25 1q0 5 1 11.5t2 12.5q4 29 17.5 52.5t47.5 23.5q18 0 35 -6t34 -13q1 -1 2 -1.5t2 -0.5q15 -7 31 -12.5t33 -5.5q13 0 20.5 10t11.5 22
q0 2 0.5 3.5t0.5 3.5v1z" />
    <glyph glyph-name="glyph224" unicode="&#x2c7;" horiz-adv-x="500" 
d="M278 475h-52l-86 179l18 11l95 -115l91 115l17 -11l-83 -179v0z" />
    <glyph glyph-name="house" unicode="&#x2c9;" horiz-adv-x="500" 
d="M125 587h250v-44h-250v44v0z" />
    <glyph glyph-name="endash" unicode="&#x2d8;" horiz-adv-x="500" 
d="M140 623h29q8 -35 27 -48t54 -13q34 0 54.5 13.5t27.5 46.5l29 1q-3 -55 -27 -88t-84 -33q-52 0 -81 35t-29 85v1z" />
    <glyph glyph-name="sfthyphen" unicode="&#x2d9;" horiz-adv-x="500" 
d="M298 566q0 -20 -13.5 -33.5t-32.5 -13.5t-34.5 13t-15.5 32q0 20 14 35.5t34 15.5t34 -15t14 -35v1z" />
    <glyph glyph-name="filledbox" unicode="&#x2da;" horiz-adv-x="500" 
d="M328 566q0 -32 -23 -55.5t-55 -23.5t-55 23.5t-23 55.5t23.5 54t54.5 22q32 0 55 -22.5t23 -54.5v1zM295 568q0 17 -13.5 30t-31.5 13t-32 -12.5t-14 -31.5t13 -33.5t32 -14.5t32.5 14.5t13.5 33.5v1z" />
    <glyph glyph-name="glyph223" unicode="&#x2db;" horiz-adv-x="500" 
d="M257 0h61q-7 -2 -15.5 -5.5t-16.5 -7.5q-26 -11 -47 -30.5t-22 -47.5q0 -20 15 -34t35 -14q18 0 28 4t18 10q3 2 7 5t9 6q2 1 4 2.5t4 2.5h1q4 0 7 -3t5 -7q1 -2 1.5 -4t0.5 -3q-3 -12 -20.5 -22.5t-37.5 -17.5q-14 -5 -27 -7.5t-21 -2.5q-33 0 -60 19.5t-27 54.5
q0 39 29 64.5t63 35.5q2 1 3.5 1.5t2.5 0.5v0z" />
    <glyph glyph-name="onehalf" unicode="&#x2dc;" horiz-adv-x="500" 
d="M224 665h51l86 -179l-18 -11l-95 116l-91 -116l-17 11l84 179v0z" />
    <glyph glyph-name="Gamma" unicode="&#x393;" 
 />
    <glyph glyph-name="Theta" unicode="&#x398;" 
 />
    <glyph glyph-name="exclamdown" unicode="&#x3a3;" 
 />
    <glyph glyph-name="Phi" unicode="&#x3a6;" 
 />
    <glyph glyph-name="Atilde" unicode="&#x3a9;" 
 />
    <glyph glyph-name="alpha" unicode="&#x3b1;" 
 />
    <glyph glyph-name="delta" unicode="&#x3b4;" 
 />
    <glyph glyph-name="epsilon" unicode="&#x3b5;" 
 />
    <glyph glyph-name="guillemotleft" unicode="&#x3c0;" 
 />
    <glyph glyph-name="sigma" unicode="&#x3c3;" 
 />
    <glyph glyph-name="tau" unicode="&#x3c4;" 
 />
    <glyph glyph-name="phi" unicode="&#x3c6;" 
 />
    <glyph glyph-name="glyph259" unicode="&#x2013;" horiz-adv-x="411" 
d="M33 250h345v-63h-345v63v0z" />
    <glyph glyph-name="periodcentered" unicode="&#x2014;" horiz-adv-x="599" 
d="M0 250h599v-63h-599v63v0z" />
    <glyph glyph-name="underscoredbl" unicode="&#x2017;" 
 />
    <glyph glyph-name="Acircumflex" unicode="&#x2018;" horiz-adv-x="232" 
d="M199 714l-3 -29q-35 -2 -64 -20t-29 -58q0 -17 10 -22t23 -8q2 -1 4 -1t3 -1q16 -4 28.5 -13.5t12.5 -38.5q0 -24 -18 -39t-41 -15q-33 0 -51 25t-23 54q-1 7 -1.5 13.5t-0.5 12.5q0 68 43 103.5t107 35.5v1z" />
    <glyph glyph-name="Ecircumflex" unicode="&#x2019;" horiz-adv-x="232" 
d="M33 469l3 29q35 1 64.5 18.5t29.5 57.5q0 11 -5.5 19t-16.5 9q-25 0 -42.5 15t-17.5 41q0 24 18 39t41 15q33 0 51 -25t23 -54q1 -7 1.5 -13.5t0.5 -12.5q0 -67 -42.5 -103t-107.5 -36v1z" />
    <glyph glyph-name="Ugrave" unicode="&#x201a;" 
 />
    <glyph glyph-name="quotedblbase" unicode="&#x201c;" horiz-adv-x="415" 
d="M198 714l-3 -29q-35 -2 -64 -20t-29 -58q0 -17 10 -22t23 -8q2 -1 4 -1t3 -1q16 -4 28.5 -13.5t12.5 -38.5q0 -24 -18 -39t-41 -15q-33 0 -51 25t-23 54q-1 7 -1.5 13.5t-0.5 12.5q0 68 43 103.5t107 35.5v1zM382 714l-4 -29q-1 -1 -1.5 -1h-1.5q-34 -2 -62 -20t-28 -57
q0 -17 10 -22t23 -8q2 0 4 -0.5t4 -0.5q15 -4 28 -13.5t13 -39.5q0 -24 -18 -39t-41 -15q-33 0 -51 25t-23 54q-1 7 -1.5 13.5t-0.5 12.5q0 69 43 104t107 35v1z" />
    <glyph glyph-name="perthousand" unicode="&#x201d;" horiz-adv-x="415" 
d="M33 469l3 29q35 1 64.5 18.5t29.5 57.5q0 11 -5.5 19t-16.5 9q-25 0 -42.5 15t-17.5 41q0 24 18 39t41 15q33 0 51 -25t23 -54q1 -7 1.5 -13.5t0.5 -12.5q0 -67 -42.5 -103t-107.5 -36v1zM217 469l3 29q1 -1 1.5 -1h1.5q34 2 62 20t28 57q0 16 -9.5 21t-22.5 9
q-2 0 -4 0.5t-4 1.5q-16 4 -28.5 14t-12.5 38q0 24 18 39t40 15q34 0 52 -25t23 -54q1 -7 1.5 -13.5t0.5 -12.5q0 -67 -42.5 -103t-107.5 -36v1z" />
    <glyph glyph-name="dotlessi" unicode="&#x201e;" horiz-adv-x="415" 
d="M33 -142l3 29q35 1 64.5 19t29.5 58q0 16 -10 21t-23 9q-2 0 -4 0.5t-4 1.5q-15 4 -28 13.5t-13 37.5q0 24 18 39t41 15q33 0 51 -25t23 -54q1 -7 1.5 -13.5t0.5 -11.5q0 -68 -42.5 -103.5t-107.5 -35.5v0zM217 -142l3 29h1.5h1.5q34 2 62 20t28 57q0 17 -10 22t-23 8
q-2 1 -4 1t-3 1q-16 4 -28.5 13t-12.5 38q0 24 18 39t40 15q34 0 52 -25t23 -54q1 -7 1.5 -13.5t0.5 -11.5q0 -68 -43 -103.5t-107 -35.5v0z" />
    <glyph glyph-name="dagger" unicode="&#x2020;" horiz-adv-x="467" 
d="M252 -187h-37v121.5t-2 120.5v12v12q0 17 -0.5 35t-1.5 37q-2 37 -11 73.5t-30 65.5q23 23 34 54t11 63q-9 0 -19 -1t-19 -3q-13 -2 -25.5 -5t-24.5 -5q-21 -6 -38 -10.5t-26 -4.5q-5 0 -13 2.5t-17 6.5q-13 6 -23 14t-12 17v1.5v1.5q0 12 11 22t24 16q7 3 14 5t12 2
q16 0 36.5 -4.5t42.5 -9.5q5 -1 11 -2.5t11 -2.5q14 -4 28 -6t27 -3q0 8 -1 15.5t-2 15.5q-2 12 -5 24t-5 23q-6 21 -10 40t-4 35v5.5t1 5.5q1 14 6.5 27.5t14.5 24.5q1 1 2.5 3t3.5 4q3 4 7.5 7t9.5 3t10 -3t8 -7q2 -2 3.5 -4t2.5 -3q9 -11 14 -24.5t6 -27.5q1 -3 1 -5.5
v-5.5q0 -18 -4 -37t-9 -39q-3 -11 -5 -21.5t-4 -20.5q-2 -9 -3 -17.5t-1 -17.5q14 1 28.5 3.5t29.5 5.5q5 2 10 3t9 2q22 5 42.5 9.5t36.5 4.5q13 0 25 -6t21 -15l2.5 -2.5t3.5 -2.5q3 -3 5.5 -7t3.5 -7q1 -2 1 -3v-2q0 -3 -2 -7t-6 -7q-5 -6 -13.5 -12t-17.5 -10
q-7 -3 -14 -5t-13 -2q-12 1 -23 3.5t-22 5.5q-4 1 -8 2.5t-8 2.5q-20 5 -41.5 9.5t-49.5 5.5v-8.5t1 -8.5q2 -27 13 -53.5t30 -46.5q-21 -31 -29.5 -69t-11.5 -77q-1 -19 -1.5 -38t-0.5 -37v-6.5v-7.5q-1 -60 -1 -120.5v-121.5v0z" />
    <glyph glyph-name="Uacute" unicode="&#x2021;" horiz-adv-x="467" 
d="M170 252q14 18 23.5 42.5t14.5 49.5q4 17 5.5 32.5t1.5 30.5q-9 0 -19 -1t-19 -3q-13 -2 -25.5 -5t-24.5 -5q-21 -6 -38 -10.5t-26 -4.5q-5 0 -13 2.5t-17 6.5q-13 6 -23 14t-12 17v1.5v1.5q0 12 11 22t24 16q7 3 14 5t12 2q16 0 36.5 -4.5t42.5 -9.5q5 -1 11 -2.5
t11 -2.5q14 -4 28 -6t27 -3q0 8 -1 15.5t-2 15.5q-2 12 -5 24t-5 23q-6 21 -10 40t-4 35v5.5t1 5.5q1 14 6.5 27.5t14.5 24.5q1 1 2.5 3t3.5 4q3 4 7.5 7t9.5 3t10 -3t8 -7q2 -2 3.5 -4t2.5 -3q9 -11 14 -24.5t6 -27.5q1 -3 1 -5.5v-5.5q0 -18 -4 -37t-9 -39
q-3 -11 -5 -21.5t-4 -20.5q-2 -9 -3 -17.5t-1 -17.5q14 1 28.5 3.5t29.5 5.5q5 2 10 3t9 2q22 5 42.5 9.5t36.5 4.5q13 0 25 -6t21 -15l2.5 -2.5t3.5 -2.5q3 -3 5.5 -7t3.5 -7q1 -2 1 -3v-2q0 -3 -2 -7t-6 -7q-5 -6 -13.5 -12t-17.5 -10q-7 -3 -14 -5t-13 -2q-12 1 -23 3.5
t-22 5.5q-4 1 -8 2.5t-8 2.5q-20 5 -41.5 9.5t-49.5 5.5q0 -8 0.5 -15.5t0.5 -15.5q3 -33 13.5 -65t29.5 -59q-15 -26 -25 -56.5t-15 -61.5q-2 -15 -3 -29.5t-1 -28.5q12 0 25.5 2t27.5 5q9 2 17 3.5t16 3.5q22 6 40 10.5t26 4.5q14 0 26.5 -6t22.5 -15l3 -3l4 -4
q3 -2 5 -4.5t4 -5.5q0 -1 0.5 -2.5t0.5 -2.5q0 -2 -1 -5t-2 -5q-5 -8 -14.5 -16t-20.5 -13q-6 -3 -12.5 -4.5t-11.5 -1.5q-16 0 -36.5 4.5t-42.5 9.5q-4 1 -9 2t-10 3q-15 3 -29.5 5.5t-28.5 3.5q0 -7 1 -13.5t2 -13.5q2 -12 4.5 -24t5.5 -24q5 -21 9 -40t4 -37q0 -6 -2 -16
t-5 -20q-6 -16 -15.5 -30t-22.5 -14q-12 0 -21.5 14t-15.5 30q-4 10 -6 20t-2 16q0 16 4 35t10 39q1 8 3 15.5t4 15.5q2 11 4 23t2 24q-13 -1 -27 -3t-28 -6q-6 -1 -11.5 -2.5t-11.5 -2.5q-22 -5 -42 -9.5t-36 -4.5q-5 0 -12 2t-14 5q-13 6 -24 16t-11 22v1.5v1.5q2 9 12 17
t23 14q9 4 17 6.5t13 2.5q11 -1 21 -3t20 -5q6 -1 11.5 -3t10.5 -3q19 -5 40 -9.5t49 -5.5q0 16 -1.5 34t-5.5 36q-5 29 -14.5 56.5t-23.5 48.5v1z" />
    <glyph glyph-name="glyph262" unicode="&#x2022;" horiz-adv-x="600" 
d="M198 286q0 39 28 67t68 28q41 0 69.5 -28t28.5 -68t-28.5 -68t-69.5 -28q-40 0 -68 28t-28 68v1z" />
    <glyph glyph-name="fraction" unicode="&#x2026;" horiz-adv-x="655" 
d="M166 46q0 -24 -16.5 -40t-39.5 -16t-39.5 16t-16.5 39t16.5 39.5t39.5 16.5t39.5 -16.5t16.5 -39.5v1zM384 46q0 -24 -16.5 -40t-39.5 -16q-22 0 -39 16t-17 39t17 39.5t39 16.5q23 0 39.5 -16.5t16.5 -39.5v1zM602 46q0 -24 -16.5 -40t-39.5 -16q-22 0 -38.5 16
t-16.5 39t16.5 39.5t38.5 16.5q23 0 39.5 -16.5t16.5 -39.5v1z" />
    <glyph glyph-name="circumflex" unicode="&#x2030;" horiz-adv-x="1123" 
d="M758 205q0 -17 -1.5 -34t-4.5 -34q-10 -55 -40.5 -100.5t-92.5 -45.5q-61 0 -92 45.5t-41 100.5q-3 17 -4.5 34t-1.5 33t1.5 33t4.5 35q11 54 41.5 99.5t91.5 45.5t92 -45.5t41 -99.5q3 -18 4.5 -35t1.5 -33v1zM688 206q0 12 -1 35.5t-4 49.5q-6 37 -20.5 67.5
t-43.5 30.5t-43.5 -30.5t-19.5 -67.5q-4 -26 -4.5 -49.5t-0.5 -36.5t0.5 -36.5t4.5 -49.5q5 -37 19.5 -67.5t43.5 -30.5t43.5 30.5t20.5 67.5q3 26 4 49.5t1 36.5v1zM1090 205q0 -17 -1.5 -34t-4.5 -34q-10 -55 -41 -100.5t-92 -45.5t-92 45.5t-41 100.5q-3 17 -4.5 34
t-1.5 33t1.5 33t4.5 35q11 54 41.5 99.5t91.5 45.5t91.5 -45.5t41.5 -99.5q3 -18 4.5 -35t1.5 -33v1zM1020 206q0 12 -1 35.5t-4 49.5q-6 37 -20.5 67.5t-43.5 30.5t-43.5 -30.5t-20.5 -67.5q-3 -26 -4 -49.5t-1 -36.5t1 -36.5t4 -49.5q6 -37 20.5 -67.5t43.5 -30.5
t43.5 30.5t20.5 67.5q3 26 4 49.5t1 36.5v1zM497 634h41l-242 -634h-42l243 634v0zM312 429q0 -17 -1.5 -34.5t-4.5 -35.5q-11 -54 -41.5 -99.5t-91.5 -45.5q-60 0 -91 45.5t-41 99.5q-4 18 -5.5 35.5t-1.5 33.5t1.5 33.5t5.5 35.5q10 54 41 99.5t91 45.5q61 0 91.5 -45.5
t41.5 -99.5q3 -18 4.5 -35.5t1.5 -33.5v1zM242 430q0 12 -1 35.5t-4 49.5q-6 37 -20.5 67.5t-43.5 30.5t-43.5 -30.5t-19.5 -67.5q-4 -26 -4.5 -49.5t-0.5 -36.5t0.5 -36.5t4.5 -49.5q5 -37 19.5 -67.5t43.5 -30.5t43.5 30.5t20.5 67.5q3 26 4 49.5t1 36.5v1z" />
    <glyph glyph-name="Igrave" unicode="&#x2039;" horiz-adv-x="235" 
d="M195 88l-20 -17l-141 144v9l141 141l20 -19l-88 -128l88 -130v0z" />
    <glyph glyph-name="Oacute" unicode="&#x203a;" horiz-adv-x="235" 
d="M40 348l20 17l141 -144v-9l-141 -141l-20 18l88 128l-88 131v0z" />
    <glyph glyph-name="exclamdbl" unicode="&#x203c;" 
 />
    <glyph glyph-name="uni207F" unicode="&#x207f;" 
 />
    <glyph glyph-name="franc" unicode="&#x20a3;" 
 />
    <glyph glyph-name="peseta" unicode="&#x20a7;" 
 />
    <glyph glyph-name="trademark" unicode="&#x2122;" horiz-adv-x="933" 
d="M32 677h15q6 -5 13 -7l14 -4q8 -1 16.5 -2t17.5 -1q8 -1 16.5 -1h16.5q40 0 79.5 0.5t79.5 2.5q9 0 17 2t16 3q1 1 1.5 1h0.5q9 2 17.5 3.5t17.5 1.5q-7 -22 -13 -45t-11 -46l-28 1q1 2 1.5 4.5t0.5 5.5q1 3 1 5.5v5.5q0 17 -10.5 21t-23.5 5h-2.5h-2.5h-0.5h-1.5l-65 1
v-268v-23v-5.5v-4.5q0 -10 1.5 -19t5.5 -13t9 -5.5t10 -2.5q3 -1 6.5 -1h6.5l13 1v-27q-20 1 -40.5 1.5t-41.5 0.5q-20 0 -40.5 -0.5t-40.5 -2.5v28h11q29 -1 34 12t5 36v25v268h-36q-31 -1 -49 -6.5t-33 -35.5l-4 -6h-29q9 22 16 44.5t13 45.5v1zM394 667q6 -2 12.5 -2.5
t13.5 -0.5q7 -1 13.5 -1h12.5h14t14 1q6 0 13 0.5t14 1.5q8 -20 17 -39t19 -38q0 -1 1 -2.5t1 -2.5q5 -10 10 -20.5t10 -20.5l92 -180l91 181q3 6 6.5 12.5t7.5 13.5q11 23 22.5 47t20.5 49q14 -1 27.5 -2t27.5 -1h12.5t13.5 1q7 0 13.5 0.5t12.5 1.5v-25q-2 -1 -4 -1h-4
q-2 -1 -4.5 -1h-4.5q-21 0 -30.5 -6t-9.5 -29v-13l6 -210l1 -35q1 -36 8.5 -44t41.5 -9v-27q-19 1 -39.5 1.5t-40.5 0.5t-40 -0.5t-40 -2.5v29h16q23 1 29 12t6 31v22l-3 212l-113 -229q-9 -19 -17.5 -37t-15.5 -36l-16 1l-148 298l-3 -177v-11v-9q-1 -5 -1 -10v-10
q0 -35 8 -46.5t43 -11.5v-27q-9 0 -18 0.5t-17 0.5q-9 1 -18 1h-18q-16 0 -32.5 -0.5t-33.5 -2.5v28l15 2q22 1 27 16t6 32v4v4q1 3 1 6v6v21l6 179q1 10 1.5 21.5t0.5 22.5q0 17 -7.5 24.5t-33.5 7.5h-4t-4 1h-4h-4v27v0z" />
    <glyph glyph-name="arrowleft" unicode="&#x2190;" 
 />
    <glyph glyph-name="arrowup" unicode="&#x2191;" 
 />
    <glyph glyph-name="glyph257" unicode="&#x2192;" horiz-adv-x="500" 
 />
    <glyph glyph-name="arrowdown" unicode="&#x2193;" 
 />
    <glyph glyph-name="arrowboth" unicode="&#x2194;" 
 />
    <glyph glyph-name="arrowupdn" unicode="&#x2195;" 
 />
    <glyph glyph-name="arrowupdnbse" unicode="&#x21a8;" 
 />
    <glyph glyph-name="questiondown" unicode="&#x2202;" 
 />
    <glyph glyph-name="quoteright" unicode="&#x2206;" 
 />
    <glyph glyph-name="florin" unicode="&#x220f;" 
 />
    <glyph glyph-name="minus" unicode="&#x2212;" 
 />
    <glyph glyph-name="Icircumflex" unicode="&#x2215;" horiz-adv-x="125" 
d="M152 635h43l-223 -635h-42l222 635v0z" />
    <glyph glyph-name="Ucircumflex" unicode="&#x2219;" horiz-adv-x="218" 
d="M165 217q0 -24 -16.5 -40.5t-39.5 -16.5t-39.5 16.5t-16.5 39.5t16.5 39.5t39.5 16.5t39.5 -16.5t16.5 -39.5v1z" />
    <glyph glyph-name="quotedblleft" unicode="&#x221a;" 
 />
    <glyph glyph-name="yen" unicode="&#x221e;" 
 />
    <glyph glyph-name="orthogonal" unicode="&#x221f;" 
 />
    <glyph glyph-name="intersection" unicode="&#x2229;" 
 />
    <glyph glyph-name="guillemotright" unicode="&#x222b;" 
 />
    <glyph glyph-name="quoteleft" unicode="&#x2248;" 
 />
    <glyph glyph-name="AE" unicode="&#x2260;" 
 />
    <glyph glyph-name="equivalence" unicode="&#x2261;" 
 />
    <glyph glyph-name="ordfeminine" unicode="&#x2264;" 
 />
    <glyph glyph-name="ordmasculine" unicode="&#x2265;" 
 />
    <glyph glyph-name="glyph258" unicode="&#x2302;" 
 />
    <glyph glyph-name="revlogicalnot" unicode="&#x2310;" 
 />
    <glyph glyph-name="integraltp" unicode="&#x2320;" 
 />
    <glyph glyph-name="integralbt" unicode="&#x2321;" 
 />
    <glyph glyph-name="SF100000" unicode="&#x2500;" 
 />
    <glyph glyph-name="SF110000" unicode="&#x2502;" 
 />
    <glyph glyph-name="SF010000" unicode="&#x250c;" 
 />
    <glyph glyph-name="SF030000" unicode="&#x2510;" 
 />
    <glyph glyph-name="SF020000" unicode="&#x2514;" 
 />
    <glyph glyph-name="SF040000" unicode="&#x2518;" 
 />
    <glyph glyph-name="SF080000" unicode="&#x251c;" 
 />
    <glyph glyph-name="SF090000" unicode="&#x2524;" 
 />
    <glyph glyph-name="SF060000" unicode="&#x252c;" 
 />
    <glyph glyph-name="SF070000" unicode="&#x2534;" 
 />
    <glyph glyph-name="SF050000" unicode="&#x253c;" 
 />
    <glyph glyph-name="SF430000" unicode="&#x2550;" 
 />
    <glyph glyph-name="SF240000" unicode="&#x2551;" 
 />
    <glyph glyph-name="SF510000" unicode="&#x2552;" 
 />
    <glyph glyph-name="SF520000" unicode="&#x2553;" 
 />
    <glyph glyph-name="SF390000" unicode="&#x2554;" 
 />
    <glyph glyph-name="SF220000" unicode="&#x2555;" 
 />
    <glyph glyph-name="SF210000" unicode="&#x2556;" 
 />
    <glyph glyph-name="SF250000" unicode="&#x2557;" 
 />
    <glyph glyph-name="SF500000" unicode="&#x2558;" 
 />
    <glyph glyph-name="SF490000" unicode="&#x2559;" 
 />
    <glyph glyph-name="SF380000" unicode="&#x255a;" 
 />
    <glyph glyph-name="SF280000" unicode="&#x255b;" 
 />
    <glyph glyph-name="SF270000" unicode="&#x255c;" 
 />
    <glyph glyph-name="SF260000" unicode="&#x255d;" 
 />
    <glyph glyph-name="SF360000" unicode="&#x255e;" 
 />
    <glyph glyph-name="SF370000" unicode="&#x255f;" 
 />
    <glyph glyph-name="SF420000" unicode="&#x2560;" 
 />
    <glyph glyph-name="SF190000" unicode="&#x2561;" 
 />
    <glyph glyph-name="SF200000" unicode="&#x2562;" 
 />
    <glyph glyph-name="SF230000" unicode="&#x2563;" 
 />
    <glyph glyph-name="SF470000" unicode="&#x2564;" 
 />
    <glyph glyph-name="SF480000" unicode="&#x2565;" 
 />
    <glyph glyph-name="SF410000" unicode="&#x2566;" 
 />
    <glyph glyph-name="SF450000" unicode="&#x2567;" 
 />
    <glyph glyph-name="SF460000" unicode="&#x2568;" 
 />
    <glyph glyph-name="SF400000" unicode="&#x2569;" 
 />
    <glyph glyph-name="SF540000" unicode="&#x256a;" 
 />
    <glyph glyph-name="SF530000" unicode="&#x256b;" 
 />
    <glyph glyph-name="SF440000" unicode="&#x256c;" 
 />
    <glyph glyph-name="upblock" unicode="&#x2580;" 
 />
    <glyph glyph-name="dnblock" unicode="&#x2584;" 
 />
    <glyph glyph-name="block" unicode="&#x2588;" 
 />
    <glyph glyph-name="lfblock" unicode="&#x258c;" 
 />
    <glyph glyph-name="rtblock" unicode="&#x2590;" 
 />
    <glyph glyph-name="ltshade" unicode="&#x2591;" 
 />
    <glyph glyph-name="shade" unicode="&#x2592;" 
 />
    <glyph glyph-name="dkshade" unicode="&#x2593;" 
 />
    <glyph glyph-name="glyph261" unicode="&#x25a0;" horiz-adv-x="500" 
 />
    <glyph glyph-name="filledrect" unicode="&#x25ac;" 
 />
    <glyph glyph-name="triagup" unicode="&#x25b2;" 
 />
    <glyph glyph-name="triagrt" unicode="&#x25ba;" 
 />
    <glyph glyph-name="triagdn" unicode="&#x25bc;" 
 />
    <glyph glyph-name="triaglf" unicode="&#x25c4;" 
 />
    <glyph glyph-name="Edieresis" unicode="&#x25ca;" 
 />
    <glyph glyph-name="circle" unicode="&#x25cb;" 
 />
    <glyph glyph-name="invbullet" unicode="&#x25d8;" 
 />
    <glyph glyph-name="invcircle" unicode="&#x25d9;" 
 />
    <glyph glyph-name="smileface" unicode="&#x263a;" 
 />
    <glyph glyph-name="invsmileface" unicode="&#x263b;" 
 />
    <glyph glyph-name="sun" unicode="&#x263c;" 
 />
    <glyph glyph-name="female" unicode="&#x2640;" 
 />
    <glyph glyph-name="male" unicode="&#x2642;" 
 />
    <glyph glyph-name="spade" unicode="&#x2660;" 
 />
    <glyph glyph-name="club" unicode="&#x2663;" 
 />
    <glyph glyph-name="heart" unicode="&#x2665;" 
 />
    <glyph glyph-name="diamond" unicode="&#x2666;" 
 />
    <glyph glyph-name="musicalnote" unicode="&#x266a;" 
 />
    <glyph glyph-name="musicalnotedbl" unicode="&#x266b;" 
 />
    <glyph glyph-name="Scaron" unicode="&#xf000;" 
 />
    <glyph glyph-name="Ocircumflex" unicode="&#xf001;" horiz-adv-x="591" 
d="M416 680q7 5 15 9.5t18 4.5q19 0 33.5 -14.5t14.5 -33.5t-14 -32t-33 -13q-16 0 -27 8.5t-17 21.5q-1 -1 -2.5 -2t-2.5 -2q-5 -4 -10.5 -7t-11.5 -3q-7 0 -13.5 3.5t-12.5 8.5l-6.5 6.5t-7.5 6.5q-10 9 -21.5 17t-26.5 8q-54 0 -77.5 -44t-30.5 -97q-4 -28 -5 -55t-1 -47
v-23h138l-15 -41h-123v-196v-17v-16q-1 -8 -1 -16v-16q0 -35 9 -51t48 -16l23 1v-33q-13 0 -26.5 1t-26.5 2q-14 0 -27 0.5t-27 0.5q-20 0 -40 -1l-40 -2q-6 -1 -12.5 -1h-13.5v33q41 -1 52.5 13.5t11.5 52.5v16v16q-1 8 -1 16v16v197h-63l9 34q31 4 43.5 14t14.5 41
q10 104 64 178.5t169 74.5h7.5t6.5 -1q16 -1 31.5 -6.5t27.5 -15.5v1zM364 354v26q32 8 62 21.5t58 30.5l18 -7q-1 -14 -2.5 -26.5t-2.5 -24.5q-2 -13 -2.5 -25.5t-0.5 -25.5v-221v-8.5v-7.5q1 -13 3 -25.5t8 -17.5q5 -5 12 -7.5t14 -2.5q5 -1 10 -1h9l5 1v-33
q-24 1 -48 2.5t-49 1.5t-51 -1.5t-52 -2.5v33q43 -1 55.5 12.5t12.5 53.5v46.5t-1 47.5q0 23 -0.5 46.5t-0.5 46.5q0 31 -7 49t-50 18v1z" />
    <glyph glyph-name="Ograve" unicode="&#xf002;" horiz-adv-x="582" 
d="M417 680q16 7 30.5 15t28.5 17l19 -8q-5 -50 -7 -99.5t-2 -99.5v-341v-17v-16q-1 -8 -1 -16v-16v-5.5v-5.5q1 -14 3 -26.5t8 -18.5q5 -5 12 -7t14 -3q6 -1 11 -1h9l8 1v-33q-12 0 -24 1t-23 2q-12 0 -24 0.5t-24 0.5q-26 0 -51.5 -1.5t-51.5 -2.5v33q44 -1 54 14.5
t10 53.5v63v342v16.5v16.5q-1 8 -1 16.5v17.5q0 15 -2.5 28.5t-13.5 23.5q-4 -3 -9 -5.5t-10 -2.5q-7 0 -13.5 3.5t-12.5 8.5l-6.5 6.5t-7.5 6.5q-10 9 -21.5 17t-26.5 8q-54 0 -77.5 -44t-30.5 -97q-4 -28 -5 -55t-1 -47v-23h138l-15 -41h-123v-196v-17v-16q-1 -8 -1 -16
v-16q0 -35 9 -51t48 -16l23 1v-33q-13 0 -26.5 1t-26.5 2q-14 0 -27 0.5t-27 0.5q-20 0 -40 -1l-40 -2q-6 -1 -12.5 -1h-13.5v33q41 -1 52.5 13.5t11.5 52.5v16v16q-1 8 -1 16v16v197h-63l9 34q31 4 43.5 14t14.5 41q10 104 64 178.5t169 74.5h7.5t6.5 -1q16 -1 31.5 -6.5
t27.5 -15.5v1z" />
    <glyph glyph-name="degree" horiz-adv-x="432" 
d="M228 640q36 -5 62.5 -32t26.5 -64q0 -39 -29 -67t-68 -28t-68 29t-29 68q0 44 32 68.5t73 24.5v1zM144 536q5 -29 27 -48t50 -19q30 0 53 23t23 53q0 32 -24.5 52.5t-54.5 20.5t-52.5 -21t-22.5 -52v-4.5t1 -5.5v1z" />
    <glyph glyph-name="bullet" horiz-adv-x="600" 
d="M198 286q0 39 28 67t68 28q41 0 69.5 -28t28.5 -68t-28.5 -68t-69.5 -28q-40 0 -68 28t-28 68v1z" />
    <glyph glyph-name="daggerdbl" horiz-adv-x="411" 
d="M33 250h345v-63h-345v63v0z" />
    </font>
</defs>
</svg>
